
<svg xmlns="http://www.w3.org/2000/svg" width="548.29303" height="471.33701" viewBox="0 0 145.06919 124.70792" version="1.1">
  <g id="layer1">
    <path style="fill:#ffffff;stroke:none;stroke-width:0.352778" d="m 132.20259,62.349948 c 0,34.437815 -27.91954,62.358062 -62.354882,62.358062 -34.437816,0 -62.3541833,-27.920247 -62.3541833,-62.358062 C 7.4935247,27.915307 35.409892,0 69.847708,0 104.28305,0 132.20259,27.915307 132.20259,62.349948 Z" id="path260"></path>
    <path style="fill:#0071b1;stroke:none;stroke-width:0.352778" d="m 126.98289,69.040731 -3.556,-2.229555 c -2.26236,27.619327 -25.391177,49.331734 -53.593293,49.331734 -28.325235,0 -51.53237,-21.903617 -53.618345,-49.697212 l -3.51508,-2.201686 h -0.0063 L 9.3406692,66.345156 C 11.385722,97.978393 37.68919,123.0055 69.833597,123.0055 c 31.941913,0 58.115903,-24.699377 60.464353,-56.038749 l -3.31259,2.07398 z" id="path262"></path>
    <path style="fill:#0071b1;stroke:none;stroke-width:0.352778" d="m 12.700172,59.458581 3.371852,2.112433 C 16.500296,32.244596 40.40452,8.598606 69.833597,8.598606 c 29.622046,0 53.650093,23.952906 53.776033,53.541086 l 3.37326,2.114903 h 0.002 l 3.48016,-2.179461 C 130.30077,28.733751 103.22013,1.749425 69.833597,1.749425 c -33.232374,0 -60.2223472,26.747965 -60.6164,59.887559 l 3.476625,-2.178403 z" id="path264"></path>
    <path style="fill:#ffcc00;stroke:none;stroke-width:0.352778" d="m 36.817123,80.765653 0.0381,0.12242 0.01623,0.0116 c 1.967089,5.89421 5.496278,11.17212 10.222089,15.2654 4.724753,4.091157 10.452806,6.833657 16.567857,7.943497 l 0.006,0.006 0.132292,0.0243 c 6.312606,1.12254 12.81677,0.48189 18.800234,-1.83833 v -7e-4 c 4.563887,-1.78188 8.628945,-4.454177 12.082993,-7.945267 l 0.01588,-0.0123 0.01799,-0.0236 v -0.001 l 1.557161,-1.67992 c 0.880534,-1.01777 1.713089,-2.09092 2.473678,-3.20781 l 0.006,-0.002 0.0099,-0.0268 0.0018,0.002 0.0099,-0.0205 c 2.853973,-4.19205 4.718403,-8.86283 5.548843,-13.871924 v -0.0014 l 0.0123,-0.06103 c 1.1549,-7.129694 0.0376,-14.615639 -3.14123,-21.073236 l -0.0374,-0.0695 -0.006,-0.0053 C 99.097574,50.159711 96.272177,46.509872 92.750749,43.459755 89.229673,40.409285 85.216826,38.134574 80.823684,36.68889 l -0.0056,-0.0063 -0.07267,-0.02187 C 73.893364,34.42829 66.323105,34.389485 59.437235,36.554835 l -0.0635,0.02011 -0.01411,0.0074 c -4.849989,1.534583 -9.216673,4.056591 -12.971287,7.495822 v 0.0018 c -0.999419,0.925689 -1.946275,1.892653 -2.821869,2.90195 0,0 -1.358548,1.677459 -1.442862,1.783292 l -0.01305,0.01094 -0.0042,0.0046 v 0.0046 c -2.966861,3.920067 -5.038725,8.331554 -6.145742,13.10746 -0.798689,3.425472 -1.069975,6.932789 -0.818797,10.4013 0.203553,2.874081 0.762353,5.714295 1.675342,8.471604 z" id="path268"></path>
    <path style="fill:#88898b;stroke:none;stroke-width:0.352778" d="m 36.585701,80.883133 0.03951,0.13123 0.0085,0.008 c 1.990725,5.95383 5.561895,11.28783 10.335332,15.42345 4.773083,4.132437 10.558992,6.904557 16.743892,8.025687 l 7.06e-4,0.01 0.135467,0.0222 c 6.383161,1.13348 12.951531,0.4893 18.993909,-1.85879 4.617156,-1.79846 8.721373,-4.502147 12.211404,-8.026747 l 0.01376,-0.0155 0.02434,-0.0194 1.569155,-1.70039 c 0.891117,-1.02412 1.733198,-2.11949 2.496962,-3.24309 l 0.0018,-0.003 0.01729,-0.0233 0.0018,0.004 0.01235,-0.0208 c 2.885012,-4.23686 4.767442,-8.95456 5.601762,-14.017982 l 0.002,-0.006 0.007,-0.05962 c 1.17757,-7.203018 0.0504,-14.765868 -3.1743,-21.293316 l -0.0346,-0.06985 -0.007,-0.0078 C 99.516674,49.957569 96.661643,46.273511 93.100351,43.194466 89.545057,40.108013 85.488112,37.810371 81.048756,36.350224 l -0.0049,-0.0067 -0.0769,-0.02469 C 74.047219,34.068111 66.39688,34.031775 59.440807,36.217234 l -0.06385,0.01693 -0.01729,0.0085 c -4.897261,1.553986 -9.310864,4.098572 -13.101109,7.576256 v 0.0032 c -1.013531,0.930275 -1.967089,1.905 -2.856795,2.931583 0,0 -1.370894,1.692628 -1.45168,1.797756 l -0.01235,0.01552 -0.0042,0.0046 c -3.003903,3.960636 -5.092347,8.417278 -6.215945,13.249981 -0.805391,3.457223 -1.074914,6.998406 -0.826911,10.508898 0.209197,2.899128 0.770467,5.767917 1.695098,8.552745 z m 11.004903,14.84312 c -4.153253,-3.60821 -7.304264,-8.17492 -9.329209,-13.23904 2.754489,1.66264 5.91185,1.61819 7.761464,1.385 l 0.06456,-0.008 c 0.406753,-0.0494 0.745067,-0.10654 1.000478,-0.16192 l 0.02963,0.0638 c 0.02152,0.0501 0.04163,0.1016 0.06703,0.1584 0.01834,0.036 0.0381,0.0663 0.05468,0.0984 0.02646,0.0586 0.05856,0.11818 0.09419,0.1778 0.01587,0.0399 0.03704,0.0737 0.05856,0.1076 0.05468,0.0967 0.108303,0.20002 0.178858,0.31432 l 0.0247,0.0321 c 0.06279,0.10336 0.134761,0.21413 0.212725,0.32385 0.02611,0.0402 0.05009,0.0797 0.07902,0.11677 0.06632,0.10336 0.138289,0.20496 0.2159,0.31009 0.02575,0.0339 0.05115,0.0762 0.08608,0.12171 0.218369,0.28434 0.470606,0.6036 0.764822,0.95073 0.03563,0.0416 0.07585,0.0924 0.112184,0.13229 0.119238,0.1397 0.249061,0.27835 0.380647,0.42651 0.04621,0.0462 0.08925,0.0917 0.130528,0.14429 0.350661,0.37853 0.751416,0.78846 1.198033,1.22237 0.06138,0.0596 0.121356,0.11536 0.176036,0.17533 0.186972,0.16898 0.367947,0.33973 0.556684,0.51294 0.07091,0.0684 0.14358,0.133 0.212372,0.19897 0.261408,0.23319 0.526697,0.47731 0.815269,0.72284 0.286103,0.25541 0.565503,0.4819 0.835731,0.7045 0.07373,0.0639 0.14993,0.12241 0.222603,0.18344 0.20073,0.16052 0.395111,0.31927 0.586316,0.46391 0.0635,0.0571 0.137231,0.10971 0.204259,0.16192 0.493536,0.38629 0.950736,0.71861 1.37795,1.01036 0.05644,0.0395 0.108655,0.0755 0.161219,0.11006 0.165453,0.11007 0.325967,0.21484 0.476603,0.31151 0.04516,0.0342 0.09807,0.0674 0.148519,0.0977 0.386292,0.24553 0.735895,0.45155 1.055864,0.62688 0.04163,0.0166 0.08114,0.0363 0.121003,0.061 0.119945,0.0603 0.236361,0.12171 0.346428,0.17286 0.03634,0.0215 0.07655,0.043 0.115711,0.0568 0.133703,0.0663 0.265289,0.12947 0.379236,0.17533 l 0.01341,0.007 c 0.121355,0.0564 0.237419,0.10019 0.343958,0.14041 0.03387,0.0134 0.0635,0.0289 0.09419,0.0367 0.07197,0.0247 0.145697,0.0473 0.212372,0.0762 l 0.08714,0.0307 c 0.08008,0.0229 0.14852,0.0427 0.209197,0.0603 l 0.02893,0.01 c -0.0092,0.20814 -0.02081,0.46849 -0.01834,0.78035 0,0.16051 0,0.34008 0.0092,0.5207 0.0049,0.0656 0.0064,0.13229 0.01235,0.19367 0.006,0.11642 0.0081,0.23072 0.01834,0.3616 l 0.0056,0.0586 c 0.01094,0.15346 0.0321,0.32632 0.04868,0.49107 0.006,0.0734 0.01235,0.14534 0.02152,0.22401 0.134055,1.14441 0.352425,2.931227 2.371372,5.924897 -5.305778,-1.2774 -10.270067,-3.741557 -14.434609,-7.339537 z m 0.708731,-36.529081 c 0.0049,-0.09419 0,-0.191205 0.0014,-0.291041 0.02399,-0.448734 0.06703,-0.903464 0.134055,-1.358195 0.01729,-0.03493 0.05468,-0.09525 0.08749,-0.167216 l 0.03634,-0.05891 c 0.02258,-0.03951 0.05715,-0.09666 0.07937,-0.142875 0.585611,-1.025878 2.131837,-3.595512 4.247445,-5.99299 l 0.04904,-0.05433 c 0.233892,-0.264231 0.471311,-0.522112 0.71755,-0.774348 0.04551,-0.05221 0.09102,-0.100189 0.134761,-0.145697 0.21837,-0.219428 0.432506,-0.429683 0.655814,-0.640292 0.08502,-0.0762 0.166159,-0.158397 0.246945,-0.237772 0.183797,-0.163689 0.370416,-0.316794 0.555978,-0.481189 0.133702,-0.104069 0.254352,-0.214841 0.388408,-0.324203 0.124883,-0.100894 0.257175,-0.186972 0.385233,-0.283633 0.825148,-0.611011 1.681692,-1.140883 2.576337,-1.498247 0.02752,-7.06e-4 0.0762,-0.0078 0.134761,-0.01587 l 0.06879,-0.0099 c 0.05609,-0.0095 0.125589,-0.01693 0.192617,-0.02716 0.05115,-0.0099 0.105833,-0.01411 0.162983,-0.02187 0.08079,-0.006 0.179211,-0.02187 0.273403,-0.0314 0.06033,-0.0074 0.124178,-0.01446 0.183797,-0.01799 0.124531,-0.01411 0.256823,-0.02646 0.394406,-0.03351 0.05045,-0.0078 0.110772,-0.01164 0.170392,-0.01905 0.163336,-0.0095 0.338666,-0.01905 0.529166,-0.03175 0.03634,-0.0011 0.06914,-0.0021 0.109009,-0.0021 0.215547,-0.01235 0.447322,-0.02152 0.693561,-0.02575 l 0.01164,-7.06e-4 c 2.667353,-0.05786 6.735234,0.26035 10.496551,2.187575 0.789517,1.6256 2.294467,6.356703 3.322814,9.703506 l 0.01517,0.05539 c 0.08819,0.283986 0.172861,0.559858 0.251883,0.823383 0.01094,0.02893 0.01834,0.05539 0.03246,0.09031 0.04551,0.170039 0.09278,0.324556 0.144638,0.485422 0.245887,0.827264 0.444148,1.486959 0.546453,1.838325 -0.379236,0.438503 -9.247011,10.671882 -9.6266,11.112501 -3.81247,-0.580319 -12.933893,-2.05105 -14.537973,-2.648656 -0.03704,-0.0448 -0.09172,-0.125236 -0.15875,-0.215194 -0.555625,-0.7747 -1.918406,-2.826103 -2.826809,-5.50157 l -0.02399,-0.07267 c -0.101953,-0.293511 -0.196144,-0.599722 -0.280458,-0.91052 -0.01799,-0.05398 -0.0321,-0.104775 -0.0448,-0.160514 -0.0949,-0.337255 -0.177447,-0.681213 -0.246944,-1.030816 l -0.0067,-0.01834 c -0.06773,-0.35313 -0.126647,-0.705203 -0.174272,-1.068916 -0.01411,-0.09349 -0.02081,-0.186267 -0.02928,-0.282928 -0.03034,-0.235656 -0.04516,-0.471311 -0.05786,-0.711906 -0.01799,-0.323497 -0.02152,-0.652286 -0.01623,-0.986367 z m 46.206836,18.65736 c -1.362781,5.582351 -8.472312,11.012311 -9.253009,11.594391 -5.882923,1.796 -12.070998,-1.38641 -13.016443,-1.90394 -0.834672,-1.56951 -3.567994,-10.319807 -4.689828,-14.005629 l 9.630129,-11.11497 c 1.787525,0.261055 10.995378,1.618192 13.495162,2.417233 3.907014,5.51427 3.842103,12.391673 3.833989,13.012915 z M 82.429528,101.7771 c -5.80778,2.24896 -12.116506,2.86385 -18.254487,1.80481 -1.626305,-1.26753 -2.515306,-2.98909 -2.989086,-4.621387 l -0.01164,-0.0455 c -0.08608,-0.28822 -0.154516,-0.57926 -0.211314,-0.86219 -0.0085,-0.0444 -0.02258,-0.0875 -0.02681,-0.13229 -0.05786,-0.27199 -0.1016,-0.53587 -0.136172,-0.79199 l -0.01094,-0.0794 c -0.03951,-0.27552 -0.06032,-0.53411 -0.08185,-0.77999 -0.01058,-0.16193 -0.02152,-0.30833 -0.02328,-0.44874 -0.0032,-0.0392 -0.0056,-0.0804 -0.0081,-0.11394 -0.0074,-0.1771 -0.0081,-0.34326 -0.0081,-0.49954 0,-0.27552 0.01058,-0.50517 0.01799,-0.68297 6.2103,-1.11549 10.156473,-4.74416 11.245498,-5.86987 1.528939,0.81456 7.320845,3.50449 13.183306,1.95086 0.03881,0.12735 0.08149,0.2734 0.133703,0.44802 l 0.0025,0.005 c 0.03634,0.14217 0.08855,0.30092 0.130527,0.46955 0.01658,0.0536 0.0374,0.1076 0.04904,0.16545 0.03457,0.13088 0.07444,0.2727 0.112184,0.41099 0.02152,0.0713 0.03986,0.13617 0.05786,0.21061 0.04904,0.19191 0.100189,0.39052 0.149578,0.59725 0.01764,0.085 0.04022,0.17357 0.06385,0.26106 0.02999,0.1404 0.06385,0.28045 0.09454,0.42157 0.02046,0.0896 0.04022,0.18556 0.05821,0.28292 0.03845,0.15805 0.06879,0.32773 0.09878,0.49213 0.01552,0.0635 0.02963,0.13053 0.03704,0.19226 0.03986,0.22613 0.07937,0.45473 0.112536,0.67734 0.0049,0.0547 0.0092,0.10936 0.01799,0.16615 0.02152,0.17216 0.03986,0.34079 0.05398,0.50377 7.05e-4,0.0653 0.0074,0.13159 0.01305,0.19085 0.0074,0.13723 0.0074,0.26882 0.0074,0.39265 0.0018,0.0571 0.0078,0.11853 0.0049,0.16721 0.0028,0.17039 -0.0095,0.32809 -0.03034,0.47237 -0.04127,0.13688 -0.246592,0.73166 -0.812094,1.57339 -0.5715,0.8382 -1.513064,1.932157 -3.04024,3.071637 z M 104.22273,67.398198 c 0.19156,2.626431 0.0797,5.282848 -0.34537,7.889875 -0.57468,1.351845 -1.71803,2.251076 -2.45498,2.716037 l -0.002,7.05e-4 c -0.24201,0.156281 -0.44626,0.263878 -0.55633,0.318206 -0.77964,0.02752 -3.370087,-0.449439 -5.238045,-0.8382 -0.0018,-0.341489 -0.0063,-0.840317 -0.05539,-1.49472 -0.191911,-2.630311 -0.985661,-7.41927 -3.894314,-11.624381 0.03845,-0.06703 0.07796,-0.135819 0.121002,-0.231069 0.416278,-0.752123 1.214262,-2.31387 1.888067,-4.151842 l 0.0018,-0.0035 c 0.113947,-0.305859 0.214489,-0.614186 0.319264,-0.932392 l 0.01094,-0.03845 c 0.199672,-0.629002 0.376767,-1.27388 0.511528,-1.925461 0.0053,-0.05539 0.02081,-0.109008 0.02575,-0.167569 0.05221,-0.247298 0.09525,-0.498828 0.124883,-0.745773 0.01587,-0.0829 0.02822,-0.172155 0.03634,-0.260702 0.02646,-0.229659 0.04445,-0.461434 0.06103,-0.691798 -0.0025,-0.07232 0.0053,-0.153105 0.0095,-0.228952 0.0053,-0.281517 0.0053,-0.558448 -0.01517,-0.833614 l -0.0067,-0.02046 c -0.02787,-0.382058 -0.09349,-0.750711 -0.187677,-1.104194 0.627591,-0.07126 1.671814,-0.136172 2.802114,0.04163 0.03316,0.0032 0.06138,0.0081 0.09843,0.0134 1.172633,0.198261 2.420055,0.655461 3.350328,1.643239 1.9304,3.942292 3.08081,8.27264 3.39549,12.670015 z M 92.481226,43.903196 c 2.875845,2.48779 5.247923,5.403498 7.137401,8.640234 -2.115256,-0.9271 -4.478514,-0.739422 -5.43807,-0.604661 -1.390297,-2.931231 -3.982156,-5.03167 -4.175478,-5.185128 -0.02187,-0.01517 -0.05962,-0.05186 -0.105128,-0.09208 -0.465314,-0.424744 -2.757664,-2.410883 -5.611636,-3.288595 0,-0.08714 0,-0.194733 -0.0042,-0.30233 v -0.08361 c -0.0099,-0.08537 -0.01129,-0.179212 -0.01975,-0.282928 -0.0018,-0.04233 -0.0018,-0.08149 -0.0039,-0.124884 l -0.0071,-0.06526 c -0.0067,-0.112184 -0.02046,-0.232834 -0.0321,-0.358776 l -0.0074,-0.06279 c -0.127353,-1.143 -0.464962,-2.676172 -1.298223,-4.016022 3.474509,1.4097 6.698192,3.337983 9.56557,5.82683 z M 57.45533,39.908693 c 0.3556,-0.79375 1.088319,-2.0574 2.345972,-2.81058 6.717948,-2.096912 14.09559,-2.062339 20.779671,0.09172 1.465792,1.025878 2.104319,2.753078 2.381955,4.176536 0.0025,0.03528 0.01058,0.06456 0.01834,0.09243 0.03528,0.201789 0.0635,0.396875 0.08678,0.582789 l 0.01482,0.0695 c 0.02646,0.19685 0.03881,0.381706 0.04868,0.547864 0.0067,0.04727 0.0092,0.08643 0.0127,0.128764 0.0071,0.12947 0.01235,0.23742 0.01235,0.341136 -3.788834,-0.419805 -8.843082,3.037064 -10.510662,4.26967 l -0.04657,0.03104 c -0.09243,0.07338 -0.170392,0.128059 -0.238125,0.181328 -5.388328,0.121003 -11.83499,-2.269067 -13.571362,-2.024239 -0.646642,-1.792111 -1.488369,-4.291895 -1.576564,-5.066242 l 0.01129,-0.02223 c 0.01482,-0.05468 0.03634,-0.117122 0.0695,-0.191558 l 0.01482,-0.04586 c 0.03986,-0.0949 0.08255,-0.200731 0.136525,-0.324556 z M 36.637559,62.100181 c 1.808339,-3.330575 3.782836,-4.345164 4.04495,-4.471459 1.425222,-0.400402 4.21005,-0.113241 5.839884,0.112184 0.110772,0.01341 0.207433,0.02822 0.305858,0.04304 0.162984,0.02575 0.314325,0.04621 0.439914,0.06209 -0.09596,0.835731 -0.119944,1.655587 -0.07373,2.453217 0.0049,0.06456 0.0011,0.131234 0,0.196145 0.01411,0.168628 0.03316,0.329847 0.04974,0.496005 0.01411,0.08749 0.02152,0.179211 0.03492,0.264584 0.04586,0.377825 0.0956,0.743303 0.170039,1.104547 0.0049,0.0448 0.01835,0.09172 0.02575,0.134056 0.06209,0.320675 0.141464,0.637469 0.217311,0.948972 0.02152,0.0829 0.04304,0.161925 0.06456,0.244828 0.08502,0.316794 0.180975,0.624064 0.277989,0.92463 l 0.0254,0.08326 c 0.113242,0.337255 0.233892,0.669219 0.361245,0.989894 0.01834,0.04198 0.03422,0.08079 0.05292,0.122767 0.109362,0.280458 0.224014,0.551039 0.335845,0.813858 0.02893,0.04621 0.04621,0.09455 0.06879,0.138289 0.264583,0.579261 0.531636,1.110898 0.79375,1.591381 0.03104,0.05221 0.0635,0.102305 0.08996,0.151342 0.106539,0.179563 0.197556,0.352072 0.297744,0.51435 0.02787,0.05433 0.06421,0.110066 0.0949,0.15875 0.107597,0.182033 0.215194,0.348191 0.313619,0.507647 0.0635,0.09102 0.117828,0.17533 0.172508,0.257175 0.0374,0.05468 0.07056,0.104069 0.09772,0.150283 0.147108,0.21202 0.273403,0.3937 0.37465,0.536928 -0.95497,1.240014 -3.984625,5.661025 -4.202642,11.962349 -0.235656,0.0487 -0.574675,0.10689 -0.99307,0.15804 -0.02822,0.002 -0.06491,0.005 -0.100188,0.0106 -0.111478,0.0131 -0.229659,0.0208 -0.339725,0.0314 -0.06456,0.006 -0.129823,0.013 -0.196145,0.0215 -0.122414,0.007 -0.252942,0.0141 -0.390878,0.0176 -0.06315,0.004 -0.125236,0.007 -0.191911,0.0106 -0.146403,0.004 -0.29598,0.008 -0.45473,0.006 -0.04233,0.002 -0.08784,0.002 -0.13582,0.002 -2.031294,-0.0187 -4.654197,-0.49001 -6.659034,-2.41759 -0.863952,-2.667355 -1.408289,-5.40985 -1.60408,-8.178097 -0.244828,-3.388078 0.02152,-6.812139 0.791986,-10.153298 z" id="path270"></path>
    <path style="fill:#ffffff;stroke:none;stroke-width:0.352778" d="m 89.182401,96.615253 c 0.0635,-0.01 0.136878,-0.0176 0.22225,-0.0113 0.166158,0.0166 0.297392,0.11995 0.371828,0.24518 0.116769,0.18239 0.138289,0.39441 0.01164,0.59761 -0.0956,0.13899 -0.252589,0.2473 -0.3175,0.28716 -0.16122,0.0981 -0.312562,0.14111 -0.373239,0.15452 -0.02787,0.009 -0.0568,0.0123 -0.08855,0.0191 l -0.02434,-0.01 -0.172509,-0.31468 0.01905,-0.019 c 0.09313,0.0106 0.254353,0.0296 0.454731,-0.0928 0.188383,-0.11571 0.200731,-0.25682 0.148872,-0.33937 -0.06985,-0.11536 -0.218369,-0.0981 -0.407811,-0.0674 l -0.09243,0.01 c -0.153105,0.0173 -0.417689,0.049 -0.579966,-0.21308 -0.142875,-0.23318 -0.142875,-0.54998 0.263877,-0.79904 0.210256,-0.13123 0.332317,-0.14958 0.448381,-0.16757 l 0.0187,0.007 0.160514,0.29422 -0.01587,0.0208 c -0.111478,-0.005 -0.251178,-0.0109 -0.415572,0.091 -0.142875,0.0868 -0.151342,0.2106 -0.111125,0.27693 0.06032,0.0959 0.177094,0.0776 0.4064,0.0413 z" id="path272"></path>
    <path style="fill:#ffffff;stroke:none;stroke-width:0.352778" d="m 89.723915,95.387233 c 0.190853,0.29246 0.385233,0.58456 0.583495,0.87313 0.209197,0.30409 0.282927,0.39687 0.425802,0.58349 l -0.0063,0.0208 c -0.17533,0.11924 -0.216958,0.14887 -0.367947,0.26211 l -0.01834,-0.003 c -0.14217,-0.22437 -0.226484,-0.3549 -0.396875,-0.60114 -0.366184,-0.53446 -0.445559,-0.63853 -0.614892,-0.85513 v -0.0191 c 0.152753,-0.1009 0.20073,-0.13547 0.373239,-0.26776 z" id="path274"></path>
    <path style="fill:#ffffff;stroke:none;stroke-width:0.352778" d="m 91.230982,94.237883 c 0.177094,0.22649 0.351014,0.44909 0.522816,0.67416 0.187678,0.23954 0.343606,0.43392 0.575381,0.72214 l -0.0032,0.0183 c -0.106186,0.0836 -0.142169,0.11183 -0.259644,0.21343 h -0.02328 l -0.380294,-0.12065 -0.4318,-0.13652 c -0.291042,-0.0921 -0.363009,-0.11818 -0.58032,-0.20073 l 0.225073,0.25858 0.198261,0.24236 0.363008,0.42087 -0.0018,0.0208 c -0.115711,0.091 -0.158044,0.12382 -0.289278,0.23389 l -0.01834,-0.004 c -0.150989,-0.19508 -0.297392,-0.39687 -0.452967,-0.59125 -0.209197,-0.26706 -0.396875,-0.49354 -0.648405,-0.79446 v -0.0205 c 0.148872,-0.11183 0.174625,-0.13335 0.326672,-0.26564 h 0.02187 c 0.111478,0.0399 0.176036,0.0596 0.503061,0.17215 l 0.392289,0.12242 c 0.220839,0.0709 0.244475,0.079 0.379236,0.133 l -0.268816,-0.32491 -0.22225,-0.26811 -0.226484,-0.26035 v -0.018 c 0.128059,-0.096 0.159456,-0.12558 0.278695,-0.23001 z" id="path276"></path>
    <path style="fill:#ffffff;stroke:none;stroke-width:0.352778" d="m 93.344474,94.134523 0.240594,0.2921 v 0.0194 c -0.03704,0.0797 -0.100894,0.21625 -0.257175,0.35913 -0.461433,0.4191 -0.968728,0.30233 -1.298928,-0.0596 -0.297744,-0.32738 -0.471311,-0.8576 0.01411,-1.29999 0.164395,-0.15169 0.3175,-0.21307 0.409928,-0.248 l 0.01764,0.003 0.217311,0.27411 -0.01235,0.0184 c -0.08079,0.008 -0.204964,0.024 -0.346428,0.15134 -0.307622,0.28046 -0.104069,0.61524 0.04233,0.77646 0.244475,0.26529 0.541514,0.28752 0.751417,0.0917 0.158045,-0.14146 0.188383,-0.30021 0.202495,-0.37218 z" id="path278"></path>
    <path style="fill:#ffffff;stroke:none;stroke-width:0.352778" d="m 94.439143,93.168613 0.214489,0.23037 -0.0042,0.0229 -0.7747,0.8068 -0.01588,0.004 c -0.189089,-0.19261 -0.299509,-0.30585 -0.530931,-0.5274 -0.488597,-0.47202 -0.564797,-0.5334 -0.752475,-0.69215 v -0.0215 l 0.773994,-0.8061 0.01552,-0.004 0.198614,0.21907 0.0032,0.0183 c -0.217312,0.21837 -0.256823,0.25964 -0.456495,0.46778 l 0.291395,0.27869 0.417336,-0.4512 0.02081,0.002 0.195086,0.20991 v 0.024 l -0.410634,0.42897 0.322439,0.30445 c 0.227189,-0.23671 0.273403,-0.28857 0.471664,-0.51611 z" id="path280"></path>
    <path style="fill:#ffffff;stroke:none;stroke-width:0.352778" d="m 99.797132,86.402343 c -0.100894,0.15592 -0.135819,0.21554 -0.221544,0.36441 h -0.02258 c -0.28575,-0.18767 -0.550333,-0.36618 -0.830086,-0.54221 -0.118181,-0.0737 -0.230717,-0.145 -0.349603,-0.21696 l -0.101953,0.21025 -0.02117,0.006 -0.20955,-0.15205 -0.0049,-0.0247 0.268111,-0.57997 0.02152,-0.004 c 0.286809,0.18804 0.57397,0.37748 0.862189,0.55986 0.324203,0.20497 0.433917,0.26212 0.601839,0.35807 z" id="path282"></path>
    <path style="fill:#ffffff;stroke:none;stroke-width:0.352778" d="m 99.88956,85.581073 c 0.04727,-0.0339 0.13476,-0.0878 0.20496,-0.21414 0.0307,-0.0586 0.0575,-0.12418 0.0575,-0.19085 0.003,-0.19015 -0.13123,-0.30057 -0.238474,-0.38135 0.01341,0.0769 0.02893,0.20002 -0.0635,0.36794 -0.123472,0.22719 -0.409222,0.37536 -0.771525,0.1778 -0.287867,-0.16016 -0.406047,-0.47131 -0.212372,-0.82867 0.03316,-0.0586 0.07267,-0.11571 0.118886,-0.16263 0.23248,-0.254 0.567972,-0.23672 0.948972,-0.0275 0.549273,0.30127 0.686503,0.71508 0.434273,1.1751 -0.0579,0.11325 -0.12489,0.18451 -0.2032,0.27305 l -0.0201,0.003 -0.255414,-0.16122 z m -0.455789,-1.0287 c -0.145344,-0.0476 -0.269875,0.006 -0.320675,0.0995 -0.02117,0.0437 -0.05609,0.14041 0.02646,0.23707 0.02963,0.0349 0.06703,0.061 0.11183,0.0871 0.160514,0.0889 0.306564,0.0402 0.370064,-0.0705 0.07796,-0.1397 -0.01058,-0.25788 -0.03775,-0.28434 z" id="path284"></path>
    <path style="fill:#ffffff;stroke:none;stroke-width:0.352778" d="m 101.21847,82.810353 c 0.0462,-0.0332 0.13476,-0.0868 0.2032,-0.21413 0.0325,-0.0589 0.0579,-0.12383 0.0579,-0.19015 0.004,-0.19015 -0.13052,-0.30092 -0.23812,-0.38135 0.0141,0.0762 0.0289,0.19967 -0.0635,0.36794 -0.12347,0.22684 -0.40852,0.37465 -0.77153,0.1778 -0.28751,-0.16016 -0.40499,-0.47131 -0.21237,-0.82903 0.0328,-0.0586 0.0727,-0.11606 0.11924,-0.16192 0.23213,-0.254 0.56868,-0.23742 0.94968,-0.0279 0.54927,0.30057 0.68544,0.71543 0.43321,1.17546 -0.0579,0.11324 -0.12488,0.18415 -0.2025,0.27269 l -0.0205,0.003 -0.2547,-0.16122 z m -0.45579,-1.02764 c -0.1464,-0.049 -0.27058,0.005 -0.32067,0.0991 -0.0226,0.0437 -0.0571,0.14041 0.0254,0.23813 0.03,0.0332 0.0677,0.0603 0.11148,0.0861 0.16122,0.0885 0.30727,0.0402 0.37077,-0.0702 0.0776,-0.14005 -0.0109,-0.25894 -0.0381,-0.28469 z" id="path286"></path>
    <path style="fill:#ffffff;stroke:none;stroke-width:0.352778" d="m 100.6692,83.068233 c 0.12171,-0.0166 0.23248,0.0215 0.29175,0.048 0.10759,0.0515 0.26705,0.17286 0.2921,0.40746 0.009,0.13088 -0.0296,0.27799 -0.0882,0.40111 -0.14006,0.30691 -0.41275,0.50129 -0.74366,0.34642 -0.26635,-0.12206 -0.2734,-0.32243 -0.27869,-0.41557 -0.066,0.0511 -0.208496,0.15875 -0.420515,0.061 -0.268817,-0.12488 -0.321028,-0.4325 -0.172509,-0.75918 0.198614,-0.42474 0.499184,-0.41521 0.672744,-0.33478 0.0815,0.037 0.14923,0.1016 0.18592,0.18027 0.0339,0.0737 0.0356,0.12911 0.0356,0.18344 0.06,-0.0536 0.11888,-0.10089 0.22542,-0.11818 z m -0.884062,0.21343 c -0.02787,0.0614 -0.03422,0.1965 0.123472,0.26952 0.1464,0.0677 0.24624,-0.0162 0.27869,-0.0868 0.0473,-0.0967 0,-0.21484 -0.13582,-0.26952 -0.149573,-0.0586 -0.237414,0.024 -0.266342,0.0868 z m 0.656872,0.29528 c -0.042,0.10089 0,0.22648 0.1464,0.29598 0.11395,0.0519 0.25929,0.0519 0.32138,-0.0819 0.0388,-0.0903 0.0134,-0.21025 -0.15451,-0.28398 -0.18592,-0.0833 -0.28364,0.01 -0.31327,0.0699 z" id="path288"></path>
    <path style="fill:#00497c;stroke:none;stroke-width:0.352778" d="m 26.203097,75.331112 c -0.04621,0.202495 -0.09737,0.423334 -0.207433,0.664281 -0.230717,0.479072 -0.668161,0.750006 -1.108075,0.843492 -0.657931,0.136525 -1.303867,-0.01482 -1.761773,-0.598311 -0.316794,-0.418748 -0.462139,-1.002242 -0.511175,-1.232959 -0.123825,-0.581378 -0.08749,-1.065742 -0.06103,-1.255183 7.05e-4,-0.09102 0.02222,-0.184856 0.03704,-0.275873 l 0.04904,-0.06138 1.103841,-0.177094 0.04198,0.07373 c -0.132997,0.26035 -0.358775,0.722842 -0.206727,1.425575 0.1397,0.672748 0.543277,0.854781 0.836083,0.79375 0.412397,-0.08608 0.517525,-0.538339 0.630061,-1.119716 l 0.06103,-0.280459 c 0.117475,-0.478366 0.304095,-1.278114 1.240367,-1.476375 0.829028,-0.17533 1.756833,0.154517 2.06375,1.608667 0.160161,0.751064 0.08678,1.1303 0.01552,1.493661 l -0.04374,0.05009 -1.026936,0.1524 -0.0448,-0.06209 c 0.129822,-0.327731 0.293511,-0.726723 0.172861,-1.313039 -0.109714,-0.513645 -0.459669,-0.673806 -0.699558,-0.622653 -0.346428,0.07444 -0.413103,0.443442 -0.547159,1.151114 z" id="path290"></path>
    <path style="fill:#00497c;stroke:none;stroke-width:0.352778" d="m 25.666522,81.776713 -0.907697,0.24166 -0.06385,-0.0462 -1.054806,-3.209924 0.02117,-0.04551 c 0.769056,-0.228971 1.234722,-0.366201 2.154061,-0.666415 1.954742,-0.643467 2.220031,-0.746831 2.913592,-1.021998 l 0.05821,0.02963 1.049161,3.203927 -0.01517,0.0448 -0.863953,0.22683 -0.05433,-0.0226 c -0.268817,-0.88865 -0.323498,-1.05587 -0.59302,-1.881019 l -1.162403,0.380294 0.609248,1.755425 -0.0321,0.0511 -0.839259,0.22755 -0.05891,-0.0367 -0.563034,-1.7078 -1.268942,0.43392 c 0.308328,0.93345 0.378531,1.13453 0.706967,1.9819 z" id="path292"></path>
    <path style="fill:#00497c;stroke:none;stroke-width:0.352778" d="m 29.72135,86.800623 c -0.574675,0.26776 -1.551869,0.56233 -2.421114,0.15381 -0.516819,-0.24236 -0.881944,-0.7112 -1.125361,-1.2319 -0.16122,-0.34325 -0.422275,-1.07491 -0.180975,-1.81328 0.288572,-0.90769 1.125361,-1.36666 1.584325,-1.58009 0.229658,-0.1083 0.469547,-0.19438 0.71755,-0.26141 0.309386,-0.0783 1.160992,-0.29668 2.017536,0.30551 0.378531,0.2667 0.651581,0.65546 0.845961,1.07386 0.224014,0.47342 0.328084,0.998 0.259645,1.45026 -0.02893,0.2025 -0.09278,0.39582 -0.186972,0.58103 -0.131586,0.26635 -0.454025,0.82691 -1.510595,1.32221 z m 0.582789,-2.98556 c -0.05785,-0.12841 -0.171803,-0.29845 -0.364419,-0.42827 -0.352425,-0.2226 -0.860073,-0.2226 -1.668639,0.15699 -0.607131,0.28292 -1.673578,0.85513 -1.231195,1.79352 0.363714,0.7814 1.1938,0.65546 2.192867,0.15593 0.1651,-0.0857 0.402519,-0.21238 0.631472,-0.38735 0.178858,-0.13088 0.343959,-0.28399 0.436739,-0.49213 0.122414,-0.25329 0.125589,-0.54151 0.0032,-0.79869 z" id="path294"></path>
    <path style="fill:#00497c;stroke:none;stroke-width:0.352778" d="m 34.740673,90.270543 c -0.687564,0.42933 -1.365603,0.85161 -2.046817,1.28694 -0.729545,0.46602 -1.322211,0.8516 -2.200275,1.42099 l -0.05151,-0.0123 c -0.204964,-0.32068 -0.273403,-0.43145 -0.529167,-0.79199 l 0.006,-0.0596 0.443089,-1.04598 0.506236,-1.17899 c 0.33655,-0.79763 0.434622,-0.99554 0.726722,-1.58326 l -0.791281,0.55456 -0.7366,0.49566 -1.290108,0.91263 -0.05962,-0.009 c -0.223662,-0.35313 -0.304801,-0.48013 -0.583495,-0.87701 l 0.01799,-0.0533 c 0.593019,-0.37007 1.197328,-0.73802 1.792816,-1.1169 0.811742,-0.51999 1.502834,-0.98566 2.427465,-1.61643 l 0.05433,0.007 c 0.27552,0.44732 0.326673,0.5267 0.65652,0.99201 v 0.0614 c -0.145345,0.30762 -0.223309,0.48295 -0.626534,1.38147 l -0.455788,1.06998 c -0.264584,0.6036 -0.294923,0.66569 -0.478367,1.03293 l 0.986014,-0.66251 0.823736,-0.56057 0.794456,-0.56621 0.05539,0.006 c 0.23495,0.37994 0.309386,0.48154 0.570794,0.85267 z" id="path296"></path>
    <path style="fill:#00497c;stroke:none;stroke-width:0.352778" d="m 35.027834,96.758133 c -0.251178,0.20567 -0.486128,0.4198 -0.734131,0.629 l -0.06456,0.008 c -0.434975,-0.27552 -0.826911,-0.52 -1.282347,-1.07562 -0.277284,-0.33479 -0.4191,-0.60607 -0.504473,-0.79799 -0.113241,-0.25788 -0.307622,-0.75882 -0.161219,-1.41499 0.113242,-0.49847 0.427567,-0.98531 0.93345,-1.40194 0.359833,-0.29704 0.864306,-0.57538 1.364544,-0.66075 1.070681,-0.16969 1.797403,0.36124 2.305051,0.97473 0.462139,0.56162 0.606777,1.04669 0.69603,1.35255 l -0.0081,0.055 c -0.358069,0.22295 -0.455789,0.28152 -0.81033,0.53128 l -0.05115,-0.0296 c -0.04339,-0.39017 -0.07973,-0.76729 -0.420158,-1.17581 -0.5588,-0.68016 -1.398059,-0.75565 -2.249664,-0.0547 -0.402873,0.33408 -1.074209,1.14053 -0.388762,1.97626 0.124178,0.15064 0.240595,0.23566 0.391937,0.3549 0.500238,-0.393 0.623358,-0.50518 1.113013,-0.98743 h 0.05503 l 0.770114,0.901 -0.0099,0.055 c -0.279753,0.21978 -0.554214,0.43568 -0.822678,0.65969 z" id="path298"></path>
    <path style="fill:#00497c;stroke:none;stroke-width:0.352778" d="m 41.358079,98.064463 c -0.525992,0.53834 -1.050925,1.07492 -1.573742,1.61961 -0.561975,0.586307 -1.013531,1.066437 -1.685572,1.778697 h -0.04727 c -0.261408,-0.2473 -0.349602,-0.33231 -0.659694,-0.6036 l -0.0074,-0.0561 0.171802,-1.048807 0.200025,-1.18286 c 0.132292,-0.79869 0.177095,-1.00119 0.310092,-1.59844 l -0.595136,0.67804 -0.559859,0.61383 -0.976488,1.1109 -0.05115,0.007 c -0.286103,-0.26953 -0.386292,-0.36866 -0.726723,-0.66781 l 0.0056,-0.0533 c 0.456494,-0.46531 0.924278,-0.93486 1.380772,-1.41146 0.627592,-0.65194 1.151114,-1.22591 1.852084,-2.00378 l 0.05045,-0.005 c 0.350661,0.34572 0.414161,0.4064 0.818444,0.756 l 0.01094,0.0554 c -0.06562,0.31433 -0.09596,0.49037 -0.263173,1.3963 l -0.177447,1.07244 c -0.109361,0.60784 -0.121003,0.66958 -0.208492,1.04423 l 0.750006,-0.82162 0.626533,-0.69145 0.598664,-0.68933 0.04974,-0.007 c 0.297744,0.29457 0.385233,0.36971 0.706967,0.64911 z" id="path300"></path>
    <path style="fill:#00497c;stroke:none;stroke-width:0.352778" d="m 44.122798,100.44571 c -0.580319,1.36173 -0.693561,1.66018 -1.767769,4.35152 l -0.05962,0.0215 c -0.414161,-0.32667 -0.521405,-0.40005 -0.911578,-0.67522 l -0.0127,-0.0589 0.513292,-1.12642 -1.111956,-0.85796 -0.979663,0.74577 -0.05715,0.004 -0.806098,-0.62195 0.0067,-0.0522 c 2.434872,-1.5942 3.003903,-1.98931 3.948642,-2.656767 l 0.06138,-10e-4 c 0.554214,0.42263 0.65652,0.502707 1.164167,0.869597 z m -1.903942,1.77201 0.426509,-0.9518 0.362303,-0.79057 -0.645231,0.46425 -0.929922,0.67522 z" id="path302"></path>
    <path style="fill:#00497c;stroke:none;stroke-width:0.352778" d="m 49.642713,104.15905 c -0.190853,0.31644 -0.223309,0.38524 -0.496712,0.90347 -0.185208,0.34889 -0.376414,0.69567 -0.564797,1.04598 -0.345722,0.6343 -0.679803,1.27671 -1.012825,1.911 l -0.04657,0.0173 c -0.409222,-0.254 -0.5588,-0.3355 -0.945091,-0.54081 l -0.0064,-0.048 0.77223,-1.29716 0.480484,-0.8308 0.57785,-0.96696 -0.978959,0.95321 -0.687211,0.6604 -0.997303,0.96132 -0.04939,0.0155 c -0.377119,-0.23142 -0.470605,-0.28187 -0.813505,-0.46285 l -0.0127,-0.0522 0.468841,-1.60866 0.249062,-0.889 0.333022,-1.09467 -0.630767,1.00612 -0.655461,1.02693 -0.631825,1.022 -0.05292,0.0134 c -0.311855,-0.19297 -0.414161,-0.24801 -0.769055,-0.4378 l -0.0056,-0.0487 c 1.147586,-1.66088 1.417814,-2.06446 2.433461,-3.64526 l 0.05115,-0.0148 c 0.604309,0.36195 0.703439,0.41874 1.289756,0.74647 l 0.0074,0.048 -0.347839,1.19804 -0.212725,0.69955 -0.337255,1.10843 0.814564,-0.78669 0.681214,-0.65511 0.768702,-0.72743 0.05221,-0.0116 c 0.598663,0.35525 0.690386,0.41099 1.260827,0.72849 z" id="path304"></path>
    <path style="fill:#00497c;stroke:none;stroke-width:0.352778" d="m 53.499985,106.06158 c -0.342194,0.762 -0.67557,1.52683 -0.997303,2.29694 -0.340783,0.80927 -0.438855,1.07244 -0.627592,1.59456 l -0.04621,0.0201 c -0.462139,-0.19614 -0.576439,-0.24059 -1.001184,-0.4004 l -0.01411,-0.0462 c 0.268817,-0.56974 0.421569,-0.90523 0.697089,-1.56246 0.600075,-1.4224 0.701675,-1.7152 0.921808,-2.33186 l 0.03634,-0.0229 c 0.398639,0.17357 0.529167,0.22719 1.016001,0.40817 z" id="path306"></path>
    <path style="fill:#00497c;stroke:none;stroke-width:0.352778" d="m 55.613124,110.54433 -0.287514,0.67663 -0.04057,0.0222 c -0.988131,-0.34642 -1.184275,-0.41345 -2.267303,-0.77575 l -0.01658,-0.042 c 0.303742,-0.86818 0.614539,-1.73319 0.917928,-2.60032 0.228247,-0.65299 0.269522,-0.78705 0.401814,-1.23437 l 0.04551,-0.0208 c 0.373592,0.13723 0.500945,0.18203 0.981428,0.32561 l 0.01905,0.0437 c -0.502003,1.29752 -0.636058,1.669 -1.140178,3.13796 l 0.109714,0.0388 c 0.165453,0.0589 0.646642,0.21519 1.256947,0.39123 z" id="path308"></path>
    <path style="fill:#00497c;stroke:none;stroke-width:0.352778" d="m 60.561891,108.61358 c -0.111831,0.41522 -0.182033,0.66851 -0.278694,1.04528 -0.233892,0.90946 -0.450851,1.8168 -0.641703,2.73614 l -0.03634,0.0261 c -0.455789,-0.12524 -0.568678,-0.14605 -0.980723,-0.23389 l -0.01658,-0.0402 c 0.225072,-0.7553 0.268816,-0.93345 0.449086,-1.66546 -0.21837,-0.061 -0.432506,-0.12383 -0.646642,-0.17816 -0.209903,-0.054 -0.413455,-0.10054 -0.65405,-0.1524 -0.197555,0.78599 -0.242005,0.98214 -0.380294,1.66123 l -0.03634,0.0272 c -0.473781,-0.12982 -0.573617,-0.14887 -0.969787,-0.23389 l -0.02081,-0.0399 c 0.127353,-0.45155 0.206728,-0.71261 0.334081,-1.19909 0.341489,-1.34338 0.479778,-2.01577 0.5969,-2.58022 l 0.03986,-0.0243 c 0.472722,0.12171 0.551392,0.14429 0.974725,0.23425 l 0.01729,0.0381 -0.37853,1.42557 c 0.190852,0.0501 0.382058,0.10407 0.571147,0.15346 0.244122,0.0621 0.483658,0.11677 0.722842,0.17463 0.15875,-0.63994 0.200025,-0.79693 0.319969,-1.41958 l 0.03387,-0.0222 c 0.454025,0.11466 0.525991,0.13229 0.963083,0.2279 z" id="path310"></path>
    <path style="fill:#00497c;stroke:none;stroke-width:0.352778" d="m 64.619894,113.24802 c -0.560564,-0.0875 -0.738364,-0.1076 -1.247775,-0.16616 l -0.0247,-0.0353 -0.0018,-0.74259 -0.01164,-0.8442 c -0.01058,-0.58702 -0.0074,-0.72002 0.0032,-1.24919 l -0.356306,1.10561 -0.315736,0.94368 -0.208491,0.63959 -0.04198,0.0261 c -0.51682,-0.0815 -0.660753,-0.10336 -1.199797,-0.16016 l -0.0247,-0.0367 c -0.06385,-1.57903 -0.08608,-1.99143 -0.217664,-3.80083 l 0.03175,-0.0339 c 0.388409,0.0455 0.462845,0.0579 0.924984,0.0928 l 0.02646,0.0314 0.02081,1.07315 0.02399,0.79305 c 0.01482,0.65722 0.01482,0.8135 0.01305,1.28411 l 0.239183,-0.71049 0.365125,-1.05552 0.389467,-1.18745 0.03634,-0.0268 1.055158,0.127 0.02399,0.0413 0.01517,0.83502 0.02046,0.91264 c 0.01729,0.63006 0.01729,0.81386 0.0099,1.41887 l 0.301625,-0.88547 0.27552,-0.7874 c 0.204258,-0.59337 0.256469,-0.77435 0.421922,-1.30881 l 0.03775,-0.0265 c 0.352425,0.0529 0.429331,0.0621 0.806098,0.10442 l 0.02081,0.0349 c -0.903112,2.24191 -1.045987,2.63067 -1.383242,3.56835 z" id="path312"></path>
    <path style="fill:#00497c;stroke:none;stroke-width:0.352778" d="m 68.538197,109.90228 c 0.237067,1.13911 0.297744,1.38394 0.808567,3.6008 l -0.02822,0.0395 c -0.409928,-0.0247 -0.51682,-0.024 -0.890412,-0.0272 l -0.03316,-0.0318 -0.173566,-0.95638 -1.103842,-0.0536 -0.294217,0.91828 -0.0381,0.0282 -0.796925,-0.0388 -0.02152,-0.0353 c 0.860072,-2.12266 1.047397,-2.63137 1.357489,-3.48615 l 0.03704,-0.0296 c 0.547511,0.0265 0.650875,0.0314 1.142648,0.0388 z m -0.435681,1.99813 -0.151341,-0.8068 -0.118534,-0.67169 -0.209902,0.58878 -0.294923,0.85231 z" id="path314"></path>
    <path style="fill:#00497c;stroke:none;stroke-width:0.352778" d="m 93.832013,106.02595 0.404636,0.8442 -0.0078,0.0504 c -0.141112,0.16616 -0.379237,0.45226 -0.848078,0.70097 -1.350081,0.7246 -2.499431,0.13511 -3.067403,-0.93028 -0.518584,-0.96873 -0.613834,-2.34456 0.820914,-3.11185 0.489655,-0.25859 0.894644,-0.31362 1.133828,-0.34255 l 0.03951,0.0166 0.358775,0.79058 -0.04621,0.0374 c -0.190853,-0.0318 -0.506942,-0.0702 -0.923573,0.1517 -0.903111,0.4833 -0.618419,1.40934 -0.366183,1.8863 0.423333,0.78564 1.118306,1.01953 1.749425,0.68227 0.457906,-0.24659 0.628298,-0.6096 0.702028,-0.77717 z" id="path316"></path>
    <path style="fill:#00497c;stroke:none;stroke-width:0.352778" d="m 96.021704,100.43337 c 0.271286,0.4191 0.439914,0.67627 0.692856,1.05586 0.611011,0.90664 1.236839,1.79917 1.890183,2.67794 l -0.0032,0.0508 c -0.464608,0.30303 -0.5715,0.3817 -0.962025,0.67098 l -0.0508,-0.0155 c -0.485422,-0.77894 -0.604661,-0.9592 -1.109839,-1.68028 -0.218369,0.14005 -0.437444,0.28046 -0.65405,0.42651 -0.209197,0.14181 -0.409222,0.28045 -0.638175,0.45226 0.532342,0.77893 0.669925,0.97084 1.154289,1.61889 l -0.0078,0.0515 c -0.479425,0.31327 -0.571147,0.38559 -0.957439,0.6664 l -0.04762,-0.0116 c -0.294217,-0.46285 -0.461433,-0.7359 -0.789164,-1.22203 -0.902405,-1.34091 -1.380772,-1.98367 -1.780822,-2.52165 l 0.0049,-0.0547 c 0.475544,-0.3175 0.554214,-0.37113 0.958497,-0.66816 l 0.0501,0.0148 0.948619,1.43546 c 0.190147,-0.12736 0.386997,-0.25436 0.576439,-0.38206 0.244475,-0.16263 0.476956,-0.32809 0.710847,-0.49425 -0.431447,-0.63429 -0.538339,-0.78951 -0.987072,-1.37583 l 0.0049,-0.0504 c 0.453672,-0.30409 0.523522,-0.35383 0.946855,-0.65969 z" id="path318"></path>
    <path style="fill:#00497c;stroke:none;stroke-width:0.352778" d="m 99.659902,97.204743 1.276348,1.5427 0.44662,0.52423 c 0.54504,0.66463 0.77646,0.980367 0.74577,1.499657 -0.0406,0.7246 -0.60431,1.20473 -0.79022,1.35996 -0.69039,0.5849 -1.30493,0.66322 -1.737432,0.55103 -0.385233,-0.0935 -0.657225,-0.34501 -1.142647,-0.889 l -0.321381,-0.38135 c -0.6858,-0.79763 -0.808214,-0.94227 -1.453797,-1.662637 l 0.0056,-0.0579 c 0.3556,-0.29104 0.471311,-0.39017 0.892175,-0.78175 l 0.05397,0.01 c 0.423334,0.51965 0.750711,0.91934 1.103136,1.337027 0.231423,0.27199 0.461787,0.54504 0.705909,0.80963 0.282575,0.31503 0.468136,0.46884 0.661457,0.53798 0.26282,0.0847 0.54257,0.008 0.75318,-0.17251 0.17039,-0.14322 0.29351,-0.34325 0.29492,-0.56903 0,-0.28257 -0.19261,-0.54292 -0.64981,-1.082317 -0.537283,-0.63465 -1.099611,-1.2453 -1.660881,-1.85526 l 0.0049,-0.0579 c 0.295275,-0.24483 0.398639,-0.33091 0.756709,-0.67169 z" id="path320"></path>
    <path style="fill:#00497c;stroke:none;stroke-width:0.352778" d="m 103.13406,93.352413 c 0.56479,0.54081 1.12536,1.07633 1.69404,1.61043 0.61136,0.57327 1.11865,1.0354 1.85984,1.72085 l 0.001,0.0515 c -0.25365,0.26987 -0.33796,0.36018 -0.61454,0.68439 l -0.0593,0.0131 -1.08655,-0.16616 -1.22591,-0.19332 c -0.82691,-0.12735 -1.03928,-0.16969 -1.66299,-0.30198 l 0.71367,0.6096 0.64241,0.57044 1.16169,0.99448 0.006,0.0547 c -0.27693,0.29598 -0.37676,0.40252 -0.67804,0.75742 l -0.0579,-0.004 c -0.4893,-0.46708 -0.97543,-0.94509 -1.47567,-1.41288 -0.68297,-0.63888 -1.2834,-1.17404 -2.09938,-1.88842 l -0.005,-0.0547 c 0.35807,-0.36547 0.41522,-0.43321 0.77364,-0.85548 l 0.0571,-0.0102 c 0.32668,0.0638 0.50871,0.0928 1.44534,0.25576 l 1.11442,0.17004 c 0.62936,0.10407 0.69321,0.11642 1.08338,0.20285 l -0.86007,-0.76729 -0.72355,-0.63853 -0.71931,-0.60996 -0.007,-0.054 c 0.29915,-0.3108 0.37676,-0.40076 0.66322,-0.7366 z" id="path322"></path>
    <path style="fill:#00497c;stroke:none;stroke-width:0.352778" d="m 106.89925,87.949973 c 0.35243,0.24695 0.42545,0.29069 0.99413,0.64805 0.38524,0.24483 0.76236,0.49707 1.14759,0.74119 0.69109,0.45614 1.39947,0.89359 2.09585,1.33174 l 0.0148,0.0561 c -0.3242,0.44908 -0.43145,0.61313 -0.70273,1.03046 l -0.0568,0.006 -1.41252,-1.00119 -0.91017,-0.62441 -1.05481,-0.74648 1.0033,1.20544 0.69286,0.84279 1.01282,1.22837 0.0113,0.0621 c -0.29774,0.40675 -0.36159,0.51082 -0.60466,0.8897 l -0.0603,0.0116 -1.7967,-0.68297 -0.99448,-0.36724 -1.22484,-0.47767 1.09396,0.81104 1.12113,0.84243 1.10808,0.81351 0.0141,0.0596 c -0.24906,0.33902 -0.32174,0.45579 -0.5715,0.8442 l -0.0568,0.004 c -1.79776,-1.46615 -2.23344,-1.81081 -3.95641,-3.11644 l -0.008,-0.0596 c 0.46814,-0.65969 0.54081,-0.76659 0.97226,-1.40864 l 0.0547,-0.004 1.33809,0.50517 0.78105,0.30763 1.23754,0.48542 -0.82973,-1.00154 -0.6858,-0.83996 -0.7613,-0.94439 -0.0123,-0.0617 c 0.46214,-0.65335 0.53517,-0.75424 0.9525,-1.37937 z" id="path324"></path>
    <path style="fill:#00497c;stroke:none;stroke-width:0.352778" d="m 108.75099,84.109983 c 1.65346,0.37712 2.01224,0.44592 5.25427,1.11231 l 0.0356,0.0621 c -0.28469,0.52987 -0.34678,0.66534 -0.57715,1.15923 l -0.0639,0.0254 -1.37089,-0.34784 -0.73978,1.42699 1.03576,0.94579 0.0155,0.0681 -0.53446,1.02976 -0.0607,0.004 c -2.28459,-2.41935 -2.84339,-2.97639 -3.78284,-3.90772 l -0.0173,-0.0677 c 0.36477,-0.70767 0.43427,-0.83996 0.74189,-1.48307 z m 2.37701,1.78682 -1.15535,-0.28998 -0.96414,-0.24765 0.65405,0.63183 0.94862,0.90981 z" id="path326"></path>
    <path style="fill:#00497c;stroke:none;stroke-width:0.352778" d="m 113.70363,79.972613 c 0.9645,0.30021 1.22485,0.37712 2.07928,0.60642 l 0.0303,0.0501 c -0.21343,0.6417 -0.25295,0.76482 -0.41064,1.30422 l -0.0483,0.0236 c -0.83326,-0.29351 -1.66476,-0.58843 -2.50401,-0.86713 -1.28694,-0.43003 -1.8722,-0.59478 -2.60139,-0.78775 l -0.0314,-0.0589 c 0.53305,-1.57198 0.66463,-1.957919 1.04422,-3.166889 l 0.0504,-0.03069 0.87666,0.381353 0.0335,0.06103 -0.61489,1.776936 1.21673,0.40746 0.49318,-1.681335 0.0586,-0.02187 0.83255,0.344311 0.0272,0.06421 z" id="path328"></path>
    <path style="fill:#00497c;stroke:none;stroke-width:0.352778" d="m 115.75398,76.813485 1.05233,0.263877 0.0349,0.05009 -0.28787,1.194858 -0.0621,0.02258 -1.03505,-0.259997 -0.0504,-0.05256 0.29598,-1.193447 z" id="path330"></path>
    <path style="fill:#00497c;stroke:none;stroke-width:0.352778" d="m 116.59465,71.33802 1.15217,0.262114 0.0427,0.04798 c 0.0554,0.268111 0.14782,0.727781 0.0307,1.380772 -0.33761,1.90112 -1.81751,2.574926 -3.314,2.309284 -1.36419,-0.244475 -2.79294,-1.224845 -2.43416,-3.241675 0.12488,-0.684742 0.3877,-1.128536 0.54645,-1.389239 l 0.0455,-0.02469 1.06327,0.26282 v 0.07197 c -0.18274,0.169687 -0.46461,0.448381 -0.56797,1.032934 -0.22825,1.269294 0.90628,1.713794 1.57762,1.834444 1.10384,0.196145 1.87819,-0.310091 2.03729,-1.195564 0.11571,-0.647347 -0.10936,-1.097139 -0.21943,-1.302102 z" id="path332"></path>
    <path style="fill:#00497c;stroke:none;stroke-width:0.352778" d="m 117.0081,68.982876 1.11301,0.08925 0.042,0.04304 -0.0843,1.262238 -0.0586,0.03387 -1.09961,-0.08608 -0.0561,-0.04551 0.0924,-1.261533 z" id="path334"></path>
    <path style="fill:#fbba00;stroke:none;stroke-width:0.352778" d="m 47.932799,28.644851 c -0.195087,-0.365478 -1.60902,-0.524581 -2.702984,-0.25153 l -1.600553,0.436738 -1.188861,0.329848 c -2.159,0.637469 -4.665839,1.36913 -5.898798,-0.859014 -0.603602,-1.084792 -0.639586,-2.231673 -0.186619,-3.439583 -0.95497,1.632655 -1.089731,3.224035 -0.235656,4.644319 1.321153,2.186869 4.699706,1.312333 6.68902,0.761647 l 1.051631,-0.274814 1.6129,-0.426508 c 0.839258,-0.200731 1.933222,0.148519 2.026708,0.295628 7.06e-4,0.05256 -0.0074,0.121708 -0.0381,0.203552 0.273756,-0.319263 0.405342,-0.597605 0.471312,-0.818797 0.103363,-0.384175 0,-0.600075 0,-0.600075 z" id="path338"></path>
    <path style="fill:#fbba00;stroke:none;stroke-width:0.352778" d="m 49.92811,20.786726 -0.122414,0.110773 -0.148872,0.0074 c -0.496359,0.02222 -0.962378,0.04586 -1.471789,0.132644 -1.012825,0.157692 -2.220737,0.58667 -3.148542,1.114778 -0.800453,0.458611 -0.99307,0.756356 -1.120423,0.953911 l -0.0635,0.09737 c -0.206727,0.317853 -0.300919,0.877006 -0.237419,1.008239 0.06138,0.116064 0.237419,0.173919 0.505178,0.175683 0.09349,-0.372533 0.483658,-1.023055 1.087967,-1.348669 0.880533,-0.473428 1.888772,-0.820914 2.849386,-0.965906 0.486128,-0.08079 0.935919,-0.09984 1.412875,-0.123472 l 0.342547,-0.01658 0.264584,-0.23883 0.964141,-0.910872 -0.865011,-1.886656 -0.565503,-0.640645 0.841728,2.012245 z" id="path340"></path>
    <path style="fill:#fbba00;stroke:none;stroke-width:0.352778" d="m 54.620407,25.157996 c 0.304095,0.842433 0.3048,1.866194 -0.01164,2.946399 -0.936273,2.89419 -4.252384,5.233106 -6.594123,6.568723 -2.810228,1.605492 -5.925609,2.692048 -6.89222,2.967567 l -0.110067,0.03034 -0.620889,-0.104422 c 0,0 -1.778352,-2.664884 -2.25813,-3.372909 l -0.679803,0.790222 c 0.436739,0.70732 2.57175,4.168776 2.57175,4.168776 l 1.009297,0.164747 0.209198,-0.06138 c 0.915458,-0.251178 4.162425,-1.587148 7.029803,-3.15842 2.410883,-1.325739 5.839884,-3.933825 6.82872,-6.881989 0.41663,-1.352551 0.343958,-2.630312 -0.201084,-3.620206 -0.08502,-0.156281 -0.178505,-0.300567 -0.280811,-0.437444 z" id="path342"></path>
    <path style="fill:#fbba00;stroke:none;stroke-width:0.352778" d="m 64.235366,20.143965 c -0.404283,-2.107142 -0.573969,-3.281539 -0.796925,-4.906786 l -0.11183,-0.777875 -0.630062,-0.257881 c 0.222603,1.599142 0.395464,2.790472 0.769762,4.795309 0.465666,2.490258 1.067505,5.296958 1.846439,8.660694 l 0.05045,0.210961 -0.337609,0.39617 -0.134761,0.02752 c -2.938286,0.565856 -3.668536,0.711553 -6.79697,1.423811 L 57.949222,29.749048 57.679347,29.60335 57.50331,29.5141 55.907344,20.258269 c -0.300567,-1.612194 -0.579261,-2.835275 -1.06292,-4.802364 l -0.693914,0.643114 0.13335,0.518936 c 0.544689,2.12725 0.843139,3.354564 1.159228,4.998861 l 1.43757,9.206089 0.395111,0.192264 0.428625,0.220133 0.313266,-0.0695 c 3.133726,-0.686153 4.306712,-0.963436 7.234768,-1.509183 l 0.308327,-0.05644 0.629356,-0.800452 -0.119239,-0.358423 c -0.777875,-3.22086 -1.373011,-5.910438 -1.835503,-8.297333 z" id="path344"></path>
    <path style="fill:#fbba00;stroke:none;stroke-width:0.352778" d="m 83.443059,19.12091 0.871714,-0.417689 0.838553,-2.944637 -0.458964,-0.768703 -0.769056,2.696987 -0.498827,0.248003 c 0,0 -6.572956,-0.799395 -7.300737,-0.889001 -0.0508,0.581378 -0.214842,2.204156 -0.272697,2.77742 0.105833,0.0099 0.3429,0.03246 0.652991,0.06562 0.0702,-0.633236 0.16122,-1.29787 0.189442,-1.584678 1.385006,0.156633 6.747581,0.816681 6.747581,0.816681 z" id="path346"></path>
    <path style="fill:#fbba00;stroke:none;stroke-width:0.352778" d="m 82.192109,24.077438 -0.525639,0.262819 c 0,0 -5.508978,-0.652286 -6.22935,-0.7366 -0.05221,0.709436 -0.345723,4.727927 -0.345723,4.727927 l -0.558094,0.230717 -0.103364,-0.01058 c -2.752372,-0.34925 -3.58775,-0.447323 -6.457245,-0.703792 l -0.106891,-0.01129 -0.494948,-0.356305 0.352073,-2.75978 0.270227,-2.11067 0.390525,-3.316464 c 0.20955,-1.929695 0.327378,-3.75285 0.445206,-5.846234 l -0.601839,0.206728 -0.03598,0.632531 c -0.136525,2.323041 -0.258234,4.263319 -0.495653,6.335536 l -0.389114,3.184172 -0.319264,2.342444 -0.353131,2.636309 0.860778,0.593019 0.238831,0.02152 c 2.865967,0.242358 4.049183,0.274814 6.787445,0.605014 l 0.225778,0.02611 0.96908,-0.386291 c 0,0 0.140406,-3.384903 0.239889,-4.657372 1.362428,0.154164 5.607403,0.66816 5.607403,0.66816 l 1.062567,-0.521052 c 0,0 0.104069,-1.274939 0.591256,-3.119967 l -0.461434,-0.703086 c -0.235655,0.951795 -0.334786,1.449211 -0.527755,2.553053 z" id="path348"></path>
    <path style="fill:#fbba00;stroke:none;stroke-width:0.352778" d="m 104.42734,25.165404 -0.0367,-0.0314 0.004,0.0187 -0.11183,0.154869 c -0.81986,1.166636 -1.05939,1.550811 -1.79881,2.834922 l -0.13653,0.239889 -0.50024,-0.08149 -0.17533,-0.02152 -0.28928,-0.479778 c -0.48588,-0.830792 -1.39781,-2.377017 -3.038932,-3.302353 -1.593498,-0.900994 -3.185231,-1.210028 -4.369859,-0.845608 -0.803275,0.246591 -1.435805,0.802569 -1.876425,1.652763 -0.440619,0.844197 -0.522464,1.764595 -0.242006,2.73297 0.21837,0.778228 0.651581,1.519414 1.181806,2.170289 -0.301272,-0.436739 -0.544336,-0.900995 -0.68333,-1.385006 -0.23742,-0.798689 -0.122414,-1.890536 0.25153,-2.581628 0.38347,-0.708025 1.084792,-1.221669 1.767064,-1.422399 1.057275,-0.313972 2.509309,-0.03422 3.986389,0.766938 1.519061,0.824089 2.064103,1.97097 2.528713,2.729442 l 0.41592,0.671336 0.40111,0.04445 0.82868,0.126647 0.30974,-0.515761 c 0.74506,-1.237192 0.73095,-1.165225 1.54446,-2.275417 l 0.2487,-0.338314 z" id="path350"></path>
    <path style="fill:#fbba00;stroke:none;stroke-width:0.352778" d="m 97.947518,37.391624 -0.470605,0.07056 -0.169334,-0.05644 c -1.652411,-0.559515 -3.553883,-1.381487 -5.373511,-2.370676 -3.031067,-1.653469 -5.004859,-3.385961 -6.280503,-5.283906 -1.869723,-2.795764 -1.599142,-5.34811 -1.034698,-6.885869 l -0.04833,0.08431 c -0.874183,0.779639 -1.845734,4.84505 0.558094,8.297686 1.320095,1.889478 3.72357,3.633258 6.801909,5.301897 2.114198,1.149351 3.560939,1.880306 5.233106,2.424995 l 0.28187,0.08961 0.811741,-0.122061 2.403123,-4.338462 -0.64841,-0.618067 z" id="path352"></path>
    <path style="fill:#00497c;stroke:none;stroke-width:0.352778" d="m 38.818078,32.779054 c 0.252237,-0.0018 0.505178,-0.0042 0.775406,-0.03951 1.398059,-0.106186 5.320595,-1.243189 6.577542,-1.932164 2.514248,-1.382536 2.257073,-2.700161 2.096559,-2.997553 -0.374298,-0.682272 -2.004131,-0.593725 -2.964745,-0.36195 l -1.591028,0.420511 c -2.225675,0.515056 -5.522384,2.01542 -6.836834,-0.379236 -0.529166,-0.960614 -0.720372,-2.175581 0.244828,-3.795536 0.919339,-1.503891 2.536473,-2.889603 5.054248,-4.269669 2.849386,-1.565628 5.305778,-2.138187 6.268861,-2.371373 l 0.17145,0.04304 1.243542,2.863498 -0.215194,0.208844 c -0.494595,0.02081 -0.992012,0.04445 -1.525412,0.132644 -1.142647,0.173567 -2.387247,0.628298 -3.275894,1.12007 -1.037873,0.567267 -1.181453,0.942269 -1.332795,1.137708 -0.237419,0.357717 -0.425097,1.065037 -0.252236,1.380067 0.363714,0.666397 1.794228,0.290336 2.494492,0.106539 l 1.758597,-0.440972 c 0.541514,-0.137936 2.022475,-0.564092 3.570111,-0.526345 1.876073,0.0381 2.575631,0.752828 2.931231,1.399117 0.644878,1.169811 0.257881,2.520597 0.1397,2.903008 -0.814564,2.427111 -3.630436,4.57447 -6.4516,6.123517 -2.794,1.534936 -5.728053,2.601736 -6.646687,2.852561 L 40.732956,36.30613 C 40.28634,35.686649 38.951781,33.88854 38.409562,33.07574 Z" id="path356"></path>
    <path style="fill:#00497c;stroke:none;stroke-width:0.352778" d="m 64.63718,27.098626 c -2.981678,0.555978 -3.4544,0.670983 -6.637867,1.374775 l -0.142875,-0.07514 C 57.515655,26.637193 56.587143,21.028732 56.369832,19.912896 56.036457,18.19134 55.72813,16.932276 55.198963,14.860412 l 0.136525,-0.128764 c 2.744964,-0.744008 3.605036,-0.963083 6.607881,-1.364897 l 0.146403,0.07232 c 0.281869,1.976614 0.444852,3.160537 0.878064,5.411964 0.536575,2.760487 1.123597,5.410554 1.777647,8.128706 z" id="path358"></path>
    <path style="fill:#00497c;stroke:none;stroke-width:0.352778" d="m 75.05612,22.694196 -0.342548,4.567061 -0.229658,0.09278 C 71.768231,26.967745 71.155103,26.92012 68.294428,26.678115 L 68.084172,26.53277 c 0.194381,-1.442507 0.722842,-6.418438 0.842786,-7.487355 0.238478,-2.101145 0.360186,-4.033661 0.496006,-6.385278 l 0.202494,-0.05645 c 4.382206,0.190853 11.094862,1.059392 14.545382,1.612548 l 0.207786,0.170391 -0.789164,2.644423 -0.238478,0.114653 -7.586134,-0.880534 -0.392289,3.296003 6.895748,0.958497 0.147108,0.114653 c -0.246944,1.001536 -0.37853,1.563159 -0.591961,2.680406 l -0.236361,0.113594 z" id="path360"></path>
    <path style="fill:#00497c;stroke:none;stroke-width:0.352778" d="m 97.488554,36.021082 c -1.666875,-0.542572 -3.09245,-0.996597 -5.16255,-2.1209 -3.391606,-1.840442 -5.115631,-3.480153 -6.138686,-4.941006 -1.973439,-2.843036 -1.482373,-5.29343 -0.623359,-6.870347 2.344914,-4.32682 7.702903,-4.369153 13.645446,-1.145117 2.466265,1.339145 3.697115,2.481087 4.695115,3.386667 l 0.0448,0.181681 c -0.83185,1.136649 -1.07315,1.50636 -1.82068,2.755194 l -0.23636,-0.03669 c -0.39617,-0.60325 -1.3776,-2.528358 -3.367973,-3.607152 -2.21227,-1.202973 -5.317773,-1.772709 -6.79062,0.940858 -1.540933,2.840213 1.142647,5.912908 3.408186,7.147277 1.992842,1.078795 3.429001,1.176162 4.159604,1.23437 l 0.184855,0.192969 -1.801989,2.854678 z" id="path362"></path>
    <path style="fill:#ffffff;stroke:none;stroke-width:0.352778" d="m 137.26707,18.165587 c -1.25342,0.2794 -2.65747,1.290461 -4.98193,2.966509 -2.97532,2.13995 -7.0485,5.070827 -12.43753,7.612944 -10.36179,4.878564 -22.453247,7.343423 -30.772806,8.554156 -4.310239,0.626886 -5.606698,3.264959 -7.110589,6.321425 -0.829381,1.679223 -1.762831,3.58387 -3.419123,5.808487 -1.18745,1.602669 -4.695472,4.704997 -8.447617,6.26745 l -0.434622,0.183445 c -0.943681,0.399344 -2.1209,0.894644 -2.432756,0.703792 -0.136525,-0.08361 -0.261408,-0.188384 -0.395111,-0.280459 0.728133,-0.574675 1.183217,-1.312333 1.562805,-1.939925 0.427214,-0.698853 0.717551,-1.141942 1.195212,-1.407231 0.116769,0.02787 0.352425,0.178506 0.486127,0.317148 l -0.02222,-0.02399 c 0.679803,0.745772 1.804106,0.902053 2.652537,0.358069 0.850194,-0.540808 1.192036,-1.608667 0.802216,-2.537531 -0.492125,-1.164166 -2.180519,-3.267427 -5.067653,-2.8956 -0.471311,0.06033 -0.897114,0.210256 -1.283405,0.408517 0.05786,-0.09172 0.135819,-0.210608 0.135819,-0.210608 l 0.160161,-0.243417 c 0.657225,-0.859367 0.849136,-1.00577 3.087512,-0.558095 l -0.04798,-0.0099 c 2.559756,0.578555 4.621036,-0.883003 5.530497,-1.938514 l 0.01658,-0.0127 -0.0085,0.01058 c 0.0374,-0.04939 0.08608,-0.09596 0.122767,-0.139347 0.289278,-0.369006 0.432858,-0.802922 0.440619,-1.238956 0.0025,-0.576792 -0.239888,-1.151467 -0.706966,-1.568803 -0.816328,-0.732719 -2.083506,-0.674158 -2.861734,0.09948 l 0.0628,-0.06032 c -0.186973,0.157339 -0.385939,0.09807 -0.452967,0.07655 -0.533047,-0.161219 -1.504597,-0.443441 -2.684639,-0.478719 -0.05609,-0.770114 -0.523522,-1.46932 -1.278467,-1.762831 -0.339019,-0.13088 -1.585736,-0.5207 -3.440289,0 -0.294217,0.08326 -0.556331,0.191206 -0.799747,0.31115 -0.118886,-0.199672 -0.26035,-0.389819 -0.449792,-0.546805 -0.797631,-0.674511 -1.988256,-0.607836 -2.751314,0.09207 0.415572,-0.5969 0.674511,-1.077384 0.733072,-1.190625 0.149578,-0.2921 0.225073,-0.603603 0.227542,-0.912989 0.0039,-0.624417 -0.274461,-1.235075 -0.791986,-1.645356 -0.773995,-0.612422 -2.1971,-1.053042 -2.948517,-0.41275 -0.263878,0.224014 -2.585509,0.913342 -2.707922,0.814564 -0.788106,-0.65405 -1.651001,-0.968728 -2.435931,-1.204383 0.0085,-0.07867 0.02469,-0.153812 0.02752,-0.23495 0.0032,-0.295276 -0.06068,-0.597253 -0.190148,-0.877712 -0.378883,-0.821619 -1.239661,-1.307041 -2.13995,-1.190625 -1.895828,0.243064 -3.522486,0.994481 -4.750153,2.103262 -0.123119,-0.1778 -0.250472,-0.362303 -0.440619,-0.481189 -0.372181,-0.228953 -1.474259,0.170038 -2.197806,0.500591 -0.944033,0.429684 -2.073628,1.047398 -2.2225,3.407128 -0.0049,0.09984 -0.01058,0.197556 -0.01058,0.294217 -0.0074,0.689681 0.118181,1.293989 0.284339,1.795639 -0.552097,0.457906 -1.142647,0.957086 -1.585736,1.721908 C 39.510934,41.345557 38.686492,39.731246 36.059003,38.99006 29.879042,37.249807 24.503061,34.502374 18.082152,29.809723 14.315895,27.058762 11.339508,23.955729 9.1653386,21.691601 7.224708,19.674771 6.3300639,18.766721 5.3849719,18.393129 c -1.075972,-0.426861 -2.23132,-0.09313 -2.874786,0.826206 -0.311186,0.447675 -0.454167,1.004358 -0.460375,1.641122 -0.01242,1.33103 0.585258,3.010958 1.495777,4.770966 -1.186744,-0.570441 -2.286247,-0.214489 -2.92205799,0.496006 -0.42545,0.48013 -0.616832,1.083733 -0.62339400311,1.772003 C -0.01930409,30.21824 2.0498109,33.496251 4.2483219,36.224282 c -0.556331,0.4191 -0.902053,1.072092 -0.909461,1.81857 v 0.08714 c 0.05045,1.92793 2.628547,5.784497 6.3027278,8.055681 -0.065617,0.234244 -0.10795,0.470253 -0.1121834,0.715433 -0.013053,1.520473 1.1849807,3.219098 2.9943777,4.169481 0.03387,0.251531 0.08784,0.509058 0.20567,0.783872 0.391936,0.906992 1.260475,1.774473 2.457805,2.390423 l -0.0032,0.01446 c -0.0032,0.303036 0.03951,0.606425 0.131586,0.898877 0.161219,0.521053 0.691797,1.666876 2.334683,2.121606 0.0314,0.325967 0.112536,0.655461 0.301272,0.988131 0.600781,1.062214 1.671814,1.376539 2.788709,1.380066 0.108303,0.350309 0.281869,0.693209 0.558094,1.014237 0.714375,0.830086 1.681692,1.04528 2.617612,0.997302 0.159808,0.327378 0.386291,0.638881 0.711905,0.908403 0.699559,0.582789 1.498248,0.705556 2.257425,0.617714 0.283634,0.57397 0.713317,1.103842 1.369837,1.449211 0.436739,0.230364 1.017058,0.398639 1.734961,0.323498 0.202494,0.266347 0.451908,0.516819 0.770467,0.72778 0.455436,0.29845 1.103841,0.547511 1.952977,0.51682 0.07867,0.107244 0.14605,0.218016 0.239889,0.318205 0.531284,0.572206 1.057275,0.786342 1.903942,0.912637 0.323497,0.641702 0.191911,0.702027 0.894645,1.108075 -0.230011,5.038019 0.906991,9.30522 1.364191,10.826399 0.4572,1.5247 1.199092,3.22403 1.199092,3.22403 l 0.9525,0.57539 c 0.174272,0.65122 0.449792,0.46037 0.9906,0.88794 0.294922,0.23389 0.537986,0.0924 0.884414,0.19156 0.09842,0.0903 0.207786,0.19543 0.297745,0.28821 0.0635,0.0667 0.135819,0.13335 0.209902,0.19121 1.067506,0.84208 2.77989,0.88829 3.816703,0.0995 0.118181,-0.0882 0.227542,-0.18767 0.337256,-0.29245 0.220839,0.18415 0.474839,0.35137 0.784578,0.48119 0.158044,0.24201 0.392289,0.54892 0.738717,0.83996 1.000477,0.84244 2.477911,1.01283 3.768372,0.42969 1.578328,-0.70838 2.549878,-2.31246 2.598914,-4.28943 0.0025,-0.0339 0.0025,-0.066 0.0025,-0.10019 0.01552,-1.54269 -0.564798,-2.66947 -1.356078,-3.423 0.185208,0.11677 0.377119,0.23495 0.5715,0.352425 0.209902,0.354542 0.455436,0.777875 0.455436,0.777875 1.269294,2.26801 4.868333,4.87645 10.694106,7.76076 0.352425,0.7814 0.589492,1.82986 0.702028,3.16336 l 0.05115,0.81597 c 0.09948,1.55857 0.207433,3.32705 1.866547,4.65843 l 0.614186,0.48366 c 0.813153,0.63112 1.289756,1.00542 2.293409,2.31493 0.162983,0.56409 0.41028,2.143117 0.581377,3.223327 l 0.187325,1.20862 c 0.02611,0.15981 0.04022,0.27128 0.0374,0.41345 0,0.14394 -0.01482,0.3175 -0.03986,0.60114 l -0.05609,0.76482 c -0.0032,0.0388 -0.0046,0.0776 -0.0046,0.11571 -0.0095,1.08656 0.754592,2.66559 2.065867,3.42653 l -0.12065,-0.0804 c 0.224014,0.19614 0.778933,0.99977 1.172633,1.69439 0.05856,0.1023 0.123825,0.2032 0.201789,0.29492 0.347134,0.42686 0.804334,0.76059 1.311981,0.95815 l -0.04233,-0.0155 2.015066,0.84667 0.04304,0.0166 c 0.667103,0.26106 1.379362,0.26529 2.014714,0.0554 0.0042,0.37853 0.01835,0.74401 0.05503,1.09043 0.157691,1.41958 1.035755,2.11667 1.544461,2.4377 l 0.03634,0.0437 c 0.340431,0.90594 0.746478,1.8923 1.627011,2.61091 0.06703,0.0847 0.175331,0.22084 0.175331,0.22084 2.399242,3.08822 4.854222,2.10679 5.528733,1.6891 1.181806,-0.73237 1.480256,-2.42253 1.582914,-3.05082 0.04304,-0.26459 0.07585,-0.58773 0.08079,-0.95744 0.0099,-1.19169 -0.299862,-2.85997 -1.684162,-4.52438 -0.23883,-0.28539 -0.483658,-0.49142 -0.72778,-0.64911 -0.0088,-0.74401 -0.149578,-1.65029 -0.662164,-2.61514 -0.347839,-0.65017 -0.643114,-1.95721 -0.62477,-3.89361 0.0032,-0.67804 0.04868,-1.43616 0.144639,-2.2673 0.04974,-0.45967 0.116417,-1.04175 0.121356,-1.65418 0.01411,-1.257647 -0.2413,-2.627127 -1.381478,-3.326337 -0.129117,-0.0949 -0.27552,-0.18521 -0.452967,-0.25858 -0.6858,-0.28822 -0.779286,-0.60114 -0.775758,-0.82797 0,-0.0487 0.0049,-0.0917 0.0056,-0.13124 0.06491,-0.61136 0.169334,-0.95073 0.329848,-1.46438 0.224013,-0.74436 0.487186,-1.61502 0.67063,-3.30905 l 0.07197,0.0413 c 2.900539,1.32856 6.322131,0.40852 8.370711,-0.7814 0.569737,-0.33302 0.841728,-0.25047 0.934509,-0.22402 0.498475,0.15135 0.998714,0.86184 1.148292,1.16347 0.464608,0.93098 1.553633,1.38394 2.539294,1.04069 0.982134,-0.3429 1.561748,-1.35326 1.348317,-2.37278 -0.07691,-0.35701 -0.825147,-3.54542 -3.767667,-5.2959 -2.437695,-1.45098 -4.502856,-0.98461 -6.012392,-0.64559 -0.868186,0.19438 -1.558572,0.33973 -2.306814,0.21096 -0.29457,-0.19685 -1.233664,-1.2446 -1.429103,-3.61103 -0.131233,-1.64006 -0.486833,-2.991908 -0.953911,-4.111625 3.930297,0.847372 7.976306,-0.180269 8.884003,-2.477206 0.0762,-0.187677 0.118886,-0.390172 0.147814,-0.597958 0.736953,-0.176036 1.494367,-0.51682 2.072923,-1.14935 0.631825,-0.682625 0.983191,-1.419225 1.078441,-2.142067 0.467078,-0.229658 0.905228,-0.550333 1.280584,-0.974019 0.380294,-0.425098 0.716139,-0.993776 0.902052,-1.617487 1.850321,-0.126294 2.864911,-0.908403 3.384901,-1.577269 0.13582,-0.172156 0.24554,-0.357364 0.34255,-0.545747 1.28729,-0.0254 2.45639,-0.353131 3.17077,-1.293989 1.40511,0.201788 2.81305,0.05891 3.7472,-0.996245 0.0377,-0.04163 0.0638,-0.08925 0.096,-0.134056 1.24107,0.273756 2.62079,0.253295 3.63714,-0.740127 0.26282,-0.257528 0.44909,-0.549981 0.59196,-0.85725 1.60761,0.331611 3.07164,0.2413 3.92254,-1.004359 0.067,-0.09384 0.11888,-0.191911 0.17039,-0.28963 1.84467,0.245533 3.40819,0.02893 4.14055,-1.377598 0.073,-0.138641 0.12171,-0.281869 0.16616,-0.424744 2.15406,0.174272 3.72498,-0.155575 4.30389,-1.688395 0.0677,-0.176036 0.10548,-0.349602 0.13053,-0.519289 1.74942,-0.368652 2.37137,-1.342672 2.55411,-2.175933 0.0377,-0.173214 0.0543,-0.346781 0.0586,-0.5207 0,-0.06174 -0.0131,-0.122767 -0.0159,-0.186267 1.71168,-0.549628 2.63032,-1.504597 2.92383,-2.483556 0.054,-0.182386 0.0709,-0.362655 0.0832,-0.542925 2.21545,-0.845608 3.28013,-2.407708 3.29248,-3.817055 0.002,-0.210961 -0.0187,-0.417689 -0.06,-0.61595 -0.0385,-0.160514 -0.0893,-0.314678 -0.15558,-0.46602 4.11586,-1.899708 6.40115,-4.966758 6.74935,-6.891514 0.0321,-0.190853 0.0487,-0.376414 0.0515,-0.559506 0.006,-0.878769 -0.35313,-1.647119 -1.02129,-2.123017 -0.18874,-0.134055 -0.53446,-0.324555 -1.00048,-0.404283 2.86738,-2.678289 4.92443,-5.481461 4.94454,-7.624939 0.005,-0.52952 -0.11289,-1.020234 -0.37818,-1.458384 -0.62759,-1.042458 -2.06022,-1.694391 -3.86362,-0.802216 -0.51365,0.252236 -1.3268,0.749652 -2.56399,1.498952 -0.48543,0.295628 -1.03012,0.63112 -1.61326,0.980723 2.28636,-2.693459 3.84563,-5.389386 3.86151,-7.408686 0.008,-0.492831 -0.0822,-0.943681 -0.27481,-1.346553 -0.52,-1.105606 -1.7138,-1.661231 -2.96969,-1.380067 z m -31.14428,43.339811 0.004,0.01764 -0.004,-0.01058 z m -21.240045,36.056365 0.04868,0.0374 z m 0.380295,0.4011 0.03634,0.0579 z m -7.38752,5.584117 v 0.002 z m 4.429478,15.0234 c 0.0702,0.0554 0.133703,0.11112 0.214842,0.16369 -0.09031,-0.061 -0.149931,-0.10407 -0.214842,-0.16369 z" id="path366"></path>
    <path style="fill:#e31354;stroke:none;stroke-width:0.352778" d="m 49.552754,43.907077 c 0,0 -2.595739,0.861483 -2.824692,2.339975 -0.121355,0.794103 -4.243917,5.068006 -4.522611,6.347178 -0.143933,0.670631 0.07691,0.973314 0.3175,1.21532 0.208492,0.209903 0.486833,0.776111 0.195086,1.777647 0,0 0.769761,-1.069622 0.0702,-2.044347 -0.428272,-0.604309 -0.264584,-1.211439 0.277283,-1.817159 0.623359,-0.700616 1.680634,-2.09303 3.7592,-4.244269 0.546806,-0.563034 0.867481,-0.84067 1.307395,-1.140178 0.836083,-0.567267 0.454025,-1.226256 0.586317,-1.545167 0.17533,-0.338314 0.61595,-0.726017 0.834319,-0.889 z m -1.475317,1.984375 c -0.32385,0.306917 -0.602544,0.0039 -0.602544,0.0039 0,0 0.193322,-0.48895 0.722489,-0.710848 0,0 0.121708,0.477309 -0.119945,0.706967 z" id="path368"></path>
    <path style="fill:#e31354;stroke:none;stroke-width:0.352778" d="m 49.216204,37.289318 c -0.346428,0.522817 -1.654528,2.016478 -0.791986,2.972506 1.13665,1.25977 0.424039,2.026356 0.424039,2.026356 0,0 1.476728,-0.32632 1.341261,-1.715559 -0.04163,-0.401814 -0.153105,-0.815269 0.135467,-1.129594 0.516819,-0.562328 1.481314,-0.801511 3.490736,0 2.442634,0.976489 3.763786,0.476955 3.803298,0.458258 -0.06773,0.06597 -0.747537,1.011767 -4.045656,0.715081 -1.514828,-0.135114 -2.663825,1.236133 -2.663825,1.236133 0.01976,-0.0042 1.31198,-1.001536 2.63913,-0.607836 0.563034,0.167569 1.077384,0.342194 1.856317,0.312208 -1.6256,0.245886 -1.711678,1.05022 -1.711678,1.05022 0,0 0.521053,-0.766939 2.053873,0.178505 0.538338,0.33267 1.042811,1.542345 1.728964,2.457098 0.992011,1.314803 2.657122,2.41688 4.537428,1.645003 1.327855,-0.546453 2.250722,-2.281767 3.309761,-3.410656 1.063625,-1.125361 2.600325,-0.983545 2.600325,-0.983545 0,0 -0.799394,-0.310091 -2.127956,0.06421 -1.335264,0.375356 -1.723319,1.609019 -2.873375,2.377017 -3.010253,2.008364 -5.597525,-1.322917 -5.597525,-1.322917 3.574345,0.709436 5.356931,-1.730728 5.356931,-1.730728 0,0 -1.495778,1.667228 -4.609395,0.324908 -0.796572,-0.345369 -1.407231,-0.512586 -1.559631,-0.557388 0.08784,-0.006 0.3556,-0.105128 1.060098,-0.484012 1.490839,-0.804333 2.555522,-2.879019 2.555522,-2.879019 0,0 -2.7432,2.440164 -5.557661,0.490361 -3.69182,-2.557286 -4.866923,0.176036 -4.866923,0.176036 -0.4445,-1.551164 1.567039,-3.334808 1.567039,-3.334808 -2.791531,0.358775 -4.664075,2.004483 -5.168547,4.156075 -0.159456,0.685094 -0.163689,1.529644 0.243063,2.227086 0.0702,0.119944 -0.726016,-3.371145 2.870906,-4.710995 z" id="path370"></path>
    <path style="fill:#e31354;stroke:none;stroke-width:0.352778" d="m 139.1629,37.931021 c -2.36502,1.320095 -5.64233,2.480381 -7.76711,3.131961 -6.18455,1.894064 -14.89287,2.250723 -14.89287,2.250723 0,0 12.27773,-1.589264 18.13807,-5.788731 8.6487,-6.198306 9.7402,-11.137901 7.10318,-9.830859 -1.32785,0.655814 -6.46888,4.102453 -12.29748,6.999111 -8.53757,4.243917 -20.2191,6.144331 -20.2191,6.144331 0,0 13.1258,-2.891719 20.04554,-8.326614 8.27228,-6.496403 10.53465,-12.774436 8.4462,-12.308417 -2.09373,0.467431 -7.70114,6.054019 -16.99295,10.431639 -10.54806,4.969581 -22.976417,7.512756 -31.355596,8.731251 -5.117394,0.744008 -4.372328,4.8641 -9.164814,11.316406 -1.477081,1.990372 -5.313539,5.27685 -9.312276,6.942667 -1.90888,0.797983 -3.429,1.550458 -4.748389,0.740128 -0.601839,-0.373945 -2.483908,-1.557867 -4.278136,-4.254853 0.588786,0.618419 1.487664,1.629128 3.232856,0.862542 1.473552,-0.647348 1.599141,-2.787651 3.523191,-3.830462 1.559278,-0.847372 2.977445,0.750006 2.977445,0.750006 0,0 -0.806803,-1.916995 -2.8956,-1.647473 -1.656645,0.213431 -2.870553,2.95522 -4.276373,3.36162 -1.340202,0.386292 -2.430639,0.356306 -3.684411,-1.372306 -0.06844,-0.144286 -0.117122,-0.242005 -0.118886,-0.256116 1.274939,0.228953 2.729442,-0.470253 3.442759,-1.299634 0.86995,-1.069622 1.074913,-2.48285 1.099255,-2.811991 l 0.02293,-0.0441 c 0.310091,-0.423686 0.393347,-0.62865 0.623711,-0.928864 1.432631,-1.884186 2.763661,-1.80975 5.135739,-1.333147 2.125839,0.480836 3.583517,-1.350786 3.583517,-1.350786 0,0 -0.971903,1.035755 -2.488495,0.580319 -2.174522,-0.653344 -4.510617,-0.810683 -6.649508,1.905 -1.641828,2.090914 -3.083984,2.047523 -4.43089,1.885245 -1.611489,-0.195086 -2.446514,-0.771878 -3.463572,-2.517775 -0.913695,-1.56845 -1.870428,-2.157942 -2.534003,-2.236964 0.232128,0.03669 1.497189,1.344083 1.950156,2.461331 0.884061,2.179814 1.794228,3.638197 4.046008,3.905603 1.534231,0.182738 3.529542,-1.263651 4.115859,-2.249664 -0.226836,0.479425 -0.565856,1.588205 -1.26612,2.306814 -0.747536,0.75953 -3.393369,1.676752 -4.642555,0.237066 -0.02081,-0.02822 0.574675,1.838325 1.593497,3.576109 1.420283,2.424994 1.353961,2.597856 2.960864,4.759678 1.416756,1.903942 -2.088797,1.551869 -2.088797,1.551869 1.788583,0.924984 4.326819,1.1684 6.941961,0.2032 3.698523,-1.364191 7.974895,-4.003675 12.256206,-8.876242 4.059415,-4.624564 4.492979,-10.147653 9.537348,-11.290653 4.507795,-1.021645 18.698639,-3.331987 30.103939,-8.762295 4.74063,-2.257778 6.8012,-3.508023 13.10393,-7.935736 0,0 -5.47652,5.853994 -18.10632,11.096978 -9.05792,3.760258 -14.39016,4.760736 -19.710751,6.081889 -3.233561,0.803628 -5.217231,0.977194 -6.766631,2.547056 -3.008842,3.055408 -3.637139,7.877175 -13.449654,16.324792 -4.716639,4.064706 -5.039783,2.858206 -3.618442,7.153628 1.206853,3.639962 7.589309,6.137629 11.633201,7.599187 4.964289,1.795286 9.820276,-0.685094 7.199137,-1.812219 -0.03634,-0.01411 -0.470606,-0.107245 -1.671814,-0.521759 -3.629731,-1.253419 -10.085565,-3.603978 -10.030884,-3.71087 0,0 11.491384,3.21169 12.521495,3.434998 0.455436,0.09631 1.855611,0.08749 2.499431,-0.613128 0.47625,-0.515408 1.014589,-1.411464 -0.02787,-1.775883 -0.231069,-0.07902 -8.014759,-2.610203 -8.141759,-2.820106 -0.01587,-0.02399 6.566606,1.603022 8.834968,2.12725 1.640769,0.378178 2.834569,-2.119842 1.815041,-2.281061 -1.325386,-0.209197 -4.326819,-1.1684 -4.211461,-1.153584 1.879247,0.233892 4.978753,0.536928 6.052256,0.528462 2.063397,-0.01658 2.604557,-1.101373 2.452157,-1.725084 -0.10936,-0.451908 -0.73589,-0.666044 -0.6992,-0.661458 5.85611,1.045986 3.73838,-1.599848 3.73838,-1.599848 5.66879,1.962503 4.10281,-1.287991 4.10281,-1.287991 5.65256,2.609497 3.80682,-1.594203 3.80682,-1.594203 6.82555,2.508955 3.53519,-1.210381 3.53519,-1.210381 8.39082,2.287764 3.55388,-1.730375 3.55388,-1.730375 10.22103,2.00907 3.7465,-1.837267 3.26708,-2.116314 0.27904,0.104422 2.54705,0.629708 3.20463,0.605719 2.66982,-0.09525 1.92723,-1.351491 0.97226,-1.833739 -0.84314,-0.426508 -2.12831,-0.809625 -2.12831,-0.809625 5.21899,0.492125 6.66785,-1.456619 5.78026,-1.928989 -0.89358,-0.473427 -5.21441,-0.761647 -5.21441,-0.761647 2.07398,0.05256 5.18654,-0.13335 6.14045,-0.386644 3.0413,-0.811742 3.23286,-3.074812 1.42064,-2.759781 -1.53882,0.267758 -11.57288,0.394406 -11.57288,0.394406 0,0 8.34426,-1.003301 11.27372,-1.795287 7.45349,-2.022475 9.45127,-8.078259 7.13035,-6.785328 z m -73.995495,9.914115 0.0081,-0.006 -0.0081,0.01799 z" id="path372"></path>
    <path style="fill:#e31354;stroke:none;stroke-width:0.352778" d="m 94.140693,86.856013 c -2.973211,-1.76601 -4.854928,0.39864 -7.76217,-0.19509 -1.061508,-0.21731 -2.7178,-2.06057 -2.994731,-5.46276 -0.479425,-5.888923 -4.225925,-7.248881 -4.225925,-7.248881 0.905228,1.140178 2.665589,2.359025 3.108678,7.782981 0.253295,3.09386 -1.238956,5.3594 -0.881239,6.75993 0.785636,3.11326 -0.411692,5.92596 -0.658283,7.07108 -0.248003,1.14688 0.214136,2.95028 1.760361,4.17548 1.037167,1.514817 0.642408,2.681457 0.504472,4.285537 -0.138289,1.60479 0.04304,3.56094 0.28187,4.78543 0.233186,1.22485 1.062214,1.91523 0.809625,2.93511 -0.258234,1.02059 -1.441098,1.911 -1.441098,1.911 0,0 -0.940858,-0.40428 -0.76588,-1.31304 0.25153,-1.29716 -0.359833,-5.66878 -0.614186,-7.11306 -0.316795,-1.81398 -0.873125,-3.84386 -1.618192,-5.425717 -0.437445,-0.93592 -1.279878,-1.72402 -2.276475,-2.07857 -3.764139,-1.34055 -3.253317,-2.25954 -4.05377,-4.36068 -1.766006,-4.64926 -1.513769,-6.39798 -2.427464,-7.1113 -1.5748,-1.22625 -5.921023,-1.79246 -7.552267,-2.73685 -2.140656,-1.24213 -4.342342,-3.25049 -5.261681,-4.687356 l 0.05186,-0.0032 c 0.688975,-0.08855 4.139142,-2.086328 4.199467,-4.408664 0.06032,-2.327628 1.31057,-3.363384 1.31057,-3.363384 0,0 -1.187097,0.333023 -2.12337,2.804231 -1.024466,2.724503 -3.757789,2.897364 -4.371975,2.053872 -0.844197,-1.166283 -3.65125,-0.319969 -6.66997,-4.162425 -0.239889,-0.308328 0.461081,-2.1463 -0.759883,-0.66428 -0.433211,0.525638 -0.763411,1.938866 -1.007181,3.082925 -0.424039,2.024944 -0.516819,1.599847 -0.512586,3.317169 0.0049,1.091495 -1.631245,1.751192 -2.237317,1.185687 -0.675569,-0.632531 0.411692,-2.247195 0.47872,-2.459567 0.367947,-1.179336 1.01353,-5.283553 0.865364,-5.810956 -0.503414,-1.781881 0.221897,-2.346678 0.86995,-2.842684 1.08973,-0.836083 2.163939,-0.843491 2.75978,0.02963 0.41275,0.599722 0.650875,0.878416 0.766587,0.935214 0.645936,0.316441 0.214136,-0.449087 0.214136,-0.449087 1.226255,0.341489 4.468283,2.141009 5.387622,1.592439 0.04304,-0.0254 -0.06032,-1.593144 -1.094669,-2.000955 -0.385234,-0.152753 -1.698978,-0.121356 -1.702506,-0.126295 -0.681214,-1.8034 -0.389467,-5.803195 -0.08678,-6.270625 0.301977,-0.468136 0.396875,-0.602192 -0.0014,-0.297392 -0.780698,0.596547 -1.551164,4.887031 -1.133828,6.352823 0,0 -1.336323,0.01411 -1.881717,-0.370064 -0.540103,-0.384528 -0.763411,-0.817033 -1.551164,-0.915458 -0.693914,-0.08573 -1.247775,0.02716 -1.772003,0.286808 -0.07338,-0.124531 -0.133703,-0.262114 -0.160161,-0.398992 -0.413456,-2.338211 0.448733,-4.921603 1.783997,-6.955367 l 0.392642,-0.485422 -0.04339,-0.01729 0.01729,-0.02716 c 1.670051,-2.272242 1.405467,-5.036962 1.274939,-6.973359 -0.201083,-2.903361 -0.947561,-4.003322 -0.903816,-4.046361 0,0 0.01905,3.511903 -3.133726,4.907139 -1.178983,0.522817 -2.676525,1.172281 -0.996244,-1.654528 0.386292,-0.648053 0.811036,-1.251303 1.762125,-2.455686 1.243189,-1.572331 0.99695,-3.275189 0.99695,-3.275189 0,0 0.03069,1.887361 -1.224492,3.185936 -2.098675,2.17805 -4.105275,6.08965 -4.618567,7.832373 -0.517525,1.007886 -1.341261,1.12783 -1.890183,1.217789 -0.67945,0.113947 -1.175103,0.0099 -1.460853,-0.102306 -0.669219,-0.265642 -1.236133,-1.010356 -1.231194,-1.002947 0.07267,0.08925 0.367947,0.185914 0.59443,0.229658 0.536575,0.107597 1.448506,0.08925 1.961092,-0.16263 0.366536,-0.181328 0.709436,-0.421217 0.697794,-1.010709 -0.0099,-0.507294 -0.552097,-1.551517 -1.443566,0.591256 -0.15875,0.375355 -1.121834,0.432505 -1.278114,0.247297 -0.119239,-0.12065 -0.614539,-0.721078 -0.314325,-1.613253 0,0 -0.588786,0.636411 -0.106539,1.47955 -0.462492,-0.202847 -0.572911,-0.382058 -0.766586,-0.979664 -0.454025,-1.420989 -0.02893,-1.829858 1.242836,-3.089628 1.787525,-1.775178 2.653947,-3.452636 3.030008,-4.291894 0.659342,-1.45415 0.325967,-2.087739 0.325967,-2.087739 -0.103364,-1.258006 1.50495,-2.439812 2.362906,-3.314348 0.595489,-0.608189 1.074208,-1.618897 -0.06103,-3.009547 -0.927805,-1.135945 -0.315736,-2.22497 -0.315736,-2.22497 -0.0702,-0.0515 -0.985661,0.541867 -1.100667,2.389364 -0.07937,1.227314 0.540809,2.119136 0.698148,2.49555 -1.414992,1.45415 -2.39642,1.624189 -2.640189,3.325284 -0.09525,0.668514 0.630766,1.411464 -0.743303,3.789539 C 37.415787,44.43836 38.882637,41.956216 35.497381,41.000541 29.93972,39.433502 24.275166,36.918196 16.859071,31.497412 10.329858,26.724682 6.0326719,20.89009 4.6243829,20.33764 c -1.402292,-0.557389 -0.180975,4.842934 5.9503031,11.699522 5.129391,5.735815 14.505519,9.46644 14.505519,9.46644 0,0 -7.331428,-1.68522 -13.357227,-6.293909 -4.1155061,-3.145719 -7.8521281,-6.814961 -8.7884011,-7.527925 -1.860938,-1.416756 -1.085285,3.334808 5.2486283,9.90847 4.2968338,4.452408 15.4022808,7.356122 15.4022808,7.356122 0,0 -7.446434,-1.2573 -11.882969,-3.4163 -1.522589,-0.743303 -3.906309,-2.045405 -5.7351091,-3.469922 -1.795992,-1.394178 0.8547806,4.776258 6.1432731,7.117292 2.076097,0.918986 9.954332,2.511425 9.954332,2.511425 0,0 -8.776407,-0.781756 -9.836152,-1.113719 -1.242131,-0.391937 -0.610658,1.890183 1.541286,2.834922 0.590198,0.255764 6.26075,1.099608 8.531933,1.323269 -1.967089,-0.141816 -7.288389,-0.490713 -7.671155,-0.13088 -0.4318,0.398992 1.225199,2.649714 4.652436,2.426406 -0.653698,0.100541 -1.426281,0.261761 -1.670756,0.477308 -0.512586,0.4445 -0.71367,1.676047 1.040694,1.885245 0.430037,0.04974 2.287059,-0.296687 2.445103,-0.389114 -0.246591,0.261761 -4.0894,3.772253 2.085975,2.174169 0,0 -2.232377,3.840339 2.692401,1.885245 0,0 -1.297517,3.604683 2.562225,1.364192 0,0 -0.251531,4.151136 2.826808,1.758597 0,0 -0.283633,3.201458 2.948517,1.465086 0,0 -0.778228,2.572809 2.782006,1.763536 0.02399,-0.0056 -0.333728,0.185209 -0.304095,0.636764 0.04198,0.621947 0.602898,1.569156 1.948745,1.671814 0.697795,0.05468 2.16535,-0.447322 3.249436,-0.941211 0.05292,-0.02364 -1.199797,0.760942 -1.875014,1.397353 -1.048455,0.579967 -1.93428,1.893711 -1.443919,2.943578 0.11818,0.253294 0.410986,0.700264 0.458964,1.134533 0.179211,1.676048 0.02999,3.605037 0.03634,4.709584 l -0.103364,0.617361 c -0.115711,0.289631 -0.12312,0.801511 -0.106539,1.053042 0.115711,1.631248 1.097845,1.513768 1.458383,1.793168 0.492126,0.38135 0.697089,0.41346 0.719314,0.95321 0.01764,0.43003 0.469548,1.00859 0.930981,0.91898 0.360539,0.18662 0.965906,0.81915 0.965906,0.81915 0.341489,0.26953 1.018469,0.2794 1.287286,0.0755 0.673805,-0.50871 1.402997,-2.24191 0.630767,-3.76802 -0.692856,-1.370191 -1.665817,-1.042813 -2.033764,-0.94086 -0.124884,0.03457 -0.252237,0.0071 -0.370417,0.02716 0.0014,-0.04233 0.0064,-0.07937 0.01482,-0.121002 0.08537,-0.460023 -0.08855,-1.044928 -0.280458,-1.4097 l 0.0042,0.0095 c -0.149577,-0.324909 -0.295275,-1.869723 -0.262113,-3.147837 0.01164,-0.409928 0.04551,-0.802922 0.109008,-1.145116 0.04904,0.01975 0.106892,0.04621 0.170392,0.08079 1.194858,0.640997 3.142897,1.455208 3.696053,1.978025 -0.119945,0.545041 -0.266348,1.052336 -0.451556,1.457325 -0.991306,2.192867 -0.389467,3.107275 0.492831,4.163135 0.875594,1.05657 0.388761,2.5527 1.714147,2.82787 0.481189,0.10089 0.506942,0.66251 1.005417,1.08232 0.885472,0.74507 2.905478,0.0857 2.968978,-2.32833 0.05221,-2.07857 -1.556809,-2.48285 -1.580798,-2.49944 -0.173566,-0.12311 -0.77223,-0.1464 -0.77223,-0.1464 0,0 0.547511,-1.127833 0.192616,-2.764722 -0.141464,-0.653344 0.08608,-1.641475 0.396875,-2.610556 0,0 1.753659,1.783645 4.563887,3.391959 0.235655,0.385939 0.48648,0.809978 0.7493,1.279172 1.355019,2.427117 6.577189,5.356587 10.423526,7.221017 0.498827,0.8202 1.0287,2.14912 1.226608,4.54272 0.150989,1.89935 0.0254,3.12772 1.151467,4.03083 1.273528,1.02412 1.879953,1.32116 3.434644,3.38667 0.315736,0.54716 0.652992,3.062467 0.987778,5.127267 0.124178,0.77541 0.03598,1.13101 -0.03845,2.23662 -0.01517,0.29351 0.335492,1.21955 1.03752,1.62595 0.698853,0.40605 1.818217,2.38548 1.818217,2.38548 0.123825,0.15381 0.285044,0.27446 0.466372,0.34643 l 2.0193,0.84737 c 0.323145,0.12665 0.654403,0.078 0.870303,-0.13229 0.07514,-0.0734 0.544689,-0.57291 0.383469,-1.58327 -0.07267,-0.43321 -0.174272,-0.7186 -0.557036,-1.3469 -0.783167,-1.27635 -1.479903,-1.33844 -2.224969,-1.46897 -0.0085,-0.0755 0.04551,-0.6029 0.03175,-0.6798 -0.04022,-0.23918 -0.108656,-0.48895 -0.220134,-0.73695 v 0.002 c -0.0762,-0.17956 -0.711905,-1.11019 -0.839611,-1.90394 -0.182386,-1.12289 -0.09137,-3.320347 -0.258586,-4.359977 0.614186,0.4572 1.852083,0.83326 2.629958,1.17087 1.642181,0.706607 1.700389,2.809167 2.52342,4.474627 0.455083,0.9144 0.864306,3.16759 0.936272,4.11833 0.171098,2.21333 -0.0448,4.03825 0.09102,5.29343 0.102658,0.93945 0.921103,0.94509 1.072445,1.2633 0.227894,0.47942 0.17533,0.1524 0.334786,0.57961 0.333727,0.88371 0.606072,1.58926 1.186391,1.97626 0.07091,0.0692 0.25647,0.3048 0.37712,0.4632 0.565503,0.72743 1.572683,1.7526 2.729442,1.03646 0.597605,-0.37112 1.531055,-2.91465 -0.457553,-5.30472 -0.505178,-0.60431 -0.847372,-0.21661 -1.334206,-0.38453 -0.116769,-0.36794 0.529873,-1.69157 -0.291041,-3.22474 -0.794456,-1.48237 -1.076678,-4.1469 -0.712964,-7.37023 0.367241,-3.245207 -0.386292,-2.955927 -0.395111,-3.071637 -0.006,-0.0279 -2.329392,-0.74895 -2.08527,-3.11044 0.246239,-2.36044 1.063978,-2.0514 1.196975,-8.22431 0.0035,-0.15416 0.644525,-1.99849 0.809625,-2.59398 -0.138642,0.69392 -0.459317,3.29918 1.986139,4.42313 1.960386,0.89606 4.595636,0.39688 6.464653,-0.69074 3.232856,-1.88101 4.986867,1.82457 4.986867,1.82457 0,0 -0.549628,-2.60667 -2.797175,-3.9437 z M 24.913341,37.990288 C 16.52358,34.063871 8.8972275,26.97974 5.8746269,21.797082 c 0,0 6.8498871,9.285816 18.6929921,15.229064 7.348009,3.687234 10.173054,4.266495 10.173054,4.266495 0,0 -3.113617,-0.16122 -9.827332,-3.302353 z M 46.96901,53.554844 c 1.219552,-0.355247 2.109964,-0.974725 2.214033,-0.973314 0.959908,1.007887 1.575858,2.926645 0.123825,5.543198 -0.493536,-0.270228 -1.2319,-0.724253 -2.246489,-1.488722 -0.669572,-0.51047 -1.450975,-1.34867 -2.22885,-2.294114 0.512586,-0.315384 1.226255,-0.520348 2.137481,-0.787048 z m -4.417837,18.118315 c -0.717903,-0.623358 -0.580319,-0.585611 -1.091494,-0.36583 -0.37465,0.162278 -0.132292,0.275872 -0.148873,1.011766 -0.04233,1.625248 -0.188383,4.725106 0.04727,4.953354 0.252941,0.244475 0.213077,0.229658 -0.06068,1.304572 -0.117828,0.467078 -0.837495,1.074912 -1.367367,0.717552 -0.529872,-0.357013 -0.373592,-0.692858 -0.19438,-1.91488 0.05221,-0.369711 0.173566,-5.002036 0.03986,-5.496631 -0.136525,-0.4953 -0.815269,-0.754592 -0.196144,-1.968853 0.619478,-1.212497 1.685925,-1.416755 2.762603,-0.823383 1.890889,0.621947 2.949928,0.889705 3.709106,0.917928 0.03634,0.154516 0.07585,0.312561 0.126294,0.483658 0.09525,0.305153 0.104422,1.317978 -0.0081,2.462036 -1.281641,-0.354541 -3.042708,-0.778933 -3.618089,-1.281289 z" id="path374"></path>
  </g>
</svg>