
<svg id="master-artboard" viewBox="0 0 918.9860229492188 909.4930419921875" version="1.1" xmlns="http://www.w3.org/2000/svg" x="0px" y="0px" style="enable-background:new 0 0 1400 980" width="918.9860229492188px" height="909.4930419921875px"><defs><clipPath clipPathUnits="userSpaceOnUse" id="clipPath23"><path d="M 0,841.89 H 595.276 V 0 H 0 Z" id="path21"></path></clipPath></defs><rect id="ee-background" x="0" y="0" width="918.9860229492188" height="909.4930419921875" style="fill:rgb(83, 56, 255);fill-opacity:0;pointer-events:none"></rect>


<g transform="matrix(1.7932164669036865, 0, 0, 1.7932164669036865, -252.13367176055908, -553.281712770462)"><g id="g15" transform="matrix(1.3333333,0,0,-1.3333333,0,1122.52)"><g id="g17"><g id="g19" clip-path="url(#clipPath23)"><path d="m 297.638,285.176 c 0,0 130.309,33.668 130.309,188.818 0,48.356 -16.599,96.721 -16.599,96.721 0,0 -24.071,-5.408 -41.098,-5.408 -46.053,0 -72.612,18.688 -72.612,18.688 0,0 -26.56,-18.688 -72.612,-18.688 -17.028,0 -41.098,5.408 -41.098,5.408 0,0 -16.6,-48.365 -16.6,-96.721 0,-155.15 130.31,-188.818 130.31,-188.818" style="fill:#000000;fill-opacity:1;fill-rule:nonzero;stroke:none" id="path25"></path><path d="m 225.026,560.327 c -13.1,0 -29.838,3.01 -37.724,4.591 -3.894,-12.627 -14.994,-52.03 -14.994,-90.924 0,-34.515 6.638,-65.642 19.731,-92.515 10.452,-21.456 25.036,-40.298 43.347,-56.005 27.922,-23.953 56.181,-33.299 62.252,-35.117 6.07,1.818 34.329,11.164 62.252,35.117 18.31,15.707 32.894,34.549 43.346,56.005 13.093,26.873 19.732,58 19.732,92.515 0,38.894 -11.101,78.297 -14.994,90.924 -7.887,-1.581 -24.625,-4.591 -37.724,-4.591 -39.095,0 -64.457,12.926 -72.612,17.783 -8.155,-4.857 -33.518,-17.783 -72.612,-17.783" style="fill:#ffffff;fill-opacity:1;fill-rule:nonzero;stroke:none" id="path27"></path><path d="m 225.026,557.007 c -11.903,0 -26.661,2.417 -35.414,4.081 -4.403,-14.827 -13.984,-51.217 -13.984,-87.094 0,-33.934 6.498,-64.515 19.313,-90.893 10.217,-21.028 24.477,-39.504 42.387,-54.918 26.273,-22.613 52.885,-32.026 60.31,-34.35 7.424,2.324 34.036,11.737 60.309,34.35 17.91,15.414 32.171,33.89 42.387,54.918 12.815,26.378 19.313,56.959 19.313,90.893 0,35.877 -9.581,72.267 -13.984,87.094 -8.753,-1.664 -23.51,-4.081 -35.413,-4.081 -37.42,0 -62.654,11.684 -72.612,17.283 -9.959,-5.599 -35.192,-17.283 -72.612,-17.283" style="fill:#e6e5e5;fill-opacity:1;fill-rule:nonzero;stroke:none" id="path29"></path><path d="M 416.496,512.655 252.301,316.618 c 11.057,-7.655 21.482,-13.084 29.724,-16.769 l 137.409,164.057 c 0.13,3.332 0.213,6.688 0.213,10.088 0,13.184 -1.295,26.434 -3.151,38.661 m -46.246,44.352 c -5.535,0 -10.796,0.261 -15.788,0.714 L 200.068,373.386 c 5.729,-10.091 12.451,-19.525 20.116,-28.24 l 180.043,214.958 c -8.696,-1.494 -20.282,-3.097 -29.977,-3.097 m -72.612,17.283 c -6.839,-3.845 -20.884,-10.561 -41.131,-14.39 l -80.655,-96.296 c 0.634,-15.737 2.718,-30.704 6.239,-44.808 l 125.954,150.38 c -4.407,1.901 -7.896,3.701 -10.407,5.114" style="fill:#812990;fill-opacity:1;fill-rule:nonzero;stroke:none" id="path31"></path><path d="m 378.381,546.738 -2.213,-1.689 c -7.241,-5.526 -15.301,-9.455 -24.801,-12.136 16.336,20.523 18.977,38.2 17.172,54.886 l -11.953,-1.922 -0.033,-2.086 c -0.472,-29.704 -20.314,-56.229 -58.915,-78.87 -37.822,21.645 -57.189,47.527 -59.13,79.105 l -0.118,1.931 -13.103,2.505 -0.037,-2.974 c -0.003,-0.352 -0.005,-0.703 -0.005,-1.053 0,-18.604 6.101,-35.604 18.465,-51.783 -6.659,1.686 -14.964,5.856 -24.807,12.478 l -2.255,1.517 -4.733,-8.565 1.195,-1.319 c 5.607,-6.184 18.049,-12.732 37.993,-20.009 11.848,-8.969 18.751,-17.748 25,-27.583 -0.038,0.02 -0.067,0.038 -0.105,0.058 -11.698,5.879 -20.111,13.334 -25.005,22.157 -1.438,2.513 -2.271,4.375 -2.996,6.117 -1.236,-2.09 -1.705,-4.643 -1.666,-7.488 0.822,-12.569 7.333,-18.323 14.872,-24.985 l 2.992,-2.667 c 5.002,-4.534 10.098,-9.428 14.008,-15.393 -2.549,1.164 -5.06,1.79 -7.394,2.353 -6.774,1.633 -12.624,3.043 -18.756,16.436 -0.667,1.56 -0.989,3.126 -1.184,4.688 -1.448,-1.155 -2.603,-2.779 -3.431,-4.908 -0.115,-0.328 -1.113,-3.282 -1.113,-6.055 0,-10.249 8.038,-16.551 15.041,-20.897 0.001,0 4.855,-2.864 4.855,-2.864 5.363,-3.082 9.113,-5.377 10.582,-8.141 -2.347,1.384 -4.781,2.632 -7.954,3.693 -5.8,1.899 -10.172,1.872 -13.686,0.717 3.452,-1.165 7.174,-2.68 11.681,-5.252 0.371,-0.209 9.078,-5.266 9.078,-16.949 0,-4.597 -1.502,-7.366 -2.954,-10.044 -1.182,-2.18 -2.405,-4.433 -2.405,-7.252 0,-1.764 0.637,-3.988 0.709,-4.236 0.629,-1.278 2.195,-2.447 4.657,-3.504 0,0 -0.179,1.962 -0.179,2.846 0,0.069 0.138,0.542 0.435,0.588 0.715,-7.298 6.23,-11.022 6.483,-11.185 0.991,-0.507 2.477,-0.707 4.229,-0.739 0,0 -0.441,2.307 -0.418,2.471 0.291,1.538 3.002,4.449 11.174,4.449 3.201,0 6.836,-0.461 6.872,-0.466 l 0.32,-0.041 c 0,0 4.056,-0.868 4.056,-6.159 9.752,1.245 9.649,12.035 9.649,12.035 0,0 1.66,-1.453 1.66,-3.113 1.66,0 4.357,4.046 4.357,7.159 0,7.366 -5.499,8.196 -5.499,17.533 0,17.135 21.165,21.165 21.165,21.165 0,0 -2.385,1.66 -5.291,1.66 -6.121,0 -16.496,-5.913 -16.496,-5.913 2.01,4.793 10.349,8.307 17.43,12.869 7.171,4.619 13.072,11.616 13.072,19.501 0,9.026 -4.772,10.79 -4.772,10.79 -1.219,-11.26 -8.22,-17.465 -17.928,-21.276 -2.965,-1.164 -5.727,-0.385 -9.565,-2.898 7.366,14.318 32.162,25.523 32.162,43.367 0,4.15 -1.867,7.782 -1.867,7.782 -4.746,-11.076 -12.31,-19.37 -22.152,-25.362 -2.174,-1.322 -2.71,-0.786 -6.847,-3.636 9.414,15.613 19.781,24.822 30.232,30.439 5.449,2.929 10.758,3.478 16.209,6.34 9.045,4.747 16.376,8.71 18.221,14.677 z" style="fill:#000000;fill-opacity:1;fill-rule:nonzero;stroke:none" id="path33"></path><path d="m 227.741,585.457 8.282,-1.583 c 2.239,-36.432 26.383,-61.983 61.63,-81.851 41.166,23.804 60.905,51.226 61.39,81.728 l 6.821,1.096 c -0.801,-13.09 4.21,-21.502 -23.751,-56.638 15.839,2.837 26.832,8.196 35.566,14.86 l 1.827,-3.045 c -3.107,-3.106 -9.106,-7.002 -18.081,-11.152 -2.61,-1.206 -4.998,-2.608 -7.882,-3.74 -1.682,-0.66 -3.481,-0.599 -5.31,-1.317 -2.177,-0.856 -4.396,-2.531 -6.505,-3.898 -13.778,-8.921 -27.879,-24.163 -35.911,-47.979 3.059,1.53 6.186,3 9.378,4.384 0,0 -5.236,-7.073 -5.236,-15.226 0,-3.175 0.975,-5.724 0.975,-5.724 6.933,2.79 11.982,3.749 16.807,4.506 -13.197,-4.817 -22.727,-13.326 -21.802,-32.156 l 6.578,6.212 c 0,0 0.73,-6.815 0.73,-10.476 0,-17.179 -8.404,-18.27 -8.404,-18.27 0,0 -3.783,0.487 -7.19,0.487 -12.906,0 -13.638,-6.577 -13.638,-6.577 0,0 -5.481,3.527 -5.481,10.596 0,1.456 0.609,3.776 0.609,3.776 -2.558,0 -5.481,-4.512 -5.481,-4.512 0,0 -0.609,2.08 -0.609,3.537 0,5.111 5.36,8.157 5.36,17.296 0,13.393 -10.353,19.122 -10.353,19.122 4.628,-1.547 7.546,-3.446 11.327,-5.847 0,0 0.609,0.735 0.609,1.828 0,7.136 -8.855,10.559 -17.317,15.809 -6.987,4.336 -13.864,10.076 -13.864,18.781 0,2.433 0.975,5.238 0.975,5.238 10.596,-23.146 21.923,-13.582 32.642,-23.507 l 1.218,1.097 c -4.106,8.947 -10.909,15.666 -17.783,21.896 -9.031,8.185 -16.199,12.935 -17.052,25.97 4.086,-7.366 11.56,-15.885 26.065,-23.174 1.974,-0.992 3.309,-1.963 4.881,-3.267 0.548,-0.456 0.818,-1.258 1.574,-1.695 l 1.462,0.975 c -7.1,11.976 -14.579,23.986 -30.45,35.929 -18.816,6.84 -31.852,13.38 -37.392,19.49 l 2.558,4.628 c 13.399,-9.015 24.115,-13.639 32.033,-13.763 -13.868,16.25 -22.067,34.668 -21.805,56.156" style="fill:#ffcb05;fill-opacity:1;fill-rule:nonzero;stroke:none" id="path35"></path><path d="m 161.792,492.755 c 5.255,-0.528 10.525,-1.192 15.779,-1.997 16.99,-1.967 27.864,-9.45 35.26,-24.261 1.8,-3.604 3.136,-7.864 4.429,-11.983 1.187,-3.784 2.415,-7.697 4.032,-11.25 3.175,-6.973 7.764,-12.737 14.029,-17.622 8.66,-6.753 18.778,-9.449 31.84,-8.487 l 1.135,0.083 0.68,0.914 c 1.613,2.167 3.622,4.866 3.725,8.202 l 0.081,2.61 -2.61,-0.043 c -18.239,-0.296 -30.151,4.939 -37.488,16.48 -2.582,4.062 -4.409,9.167 -6.175,14.104 -1.046,2.924 -2.128,5.947 -3.351,8.696 -2.886,6.484 -6.731,11.558 -12.86,16.969 -8.153,7.199 -18.462,10.551 -32.441,10.551 -7.156,-0.067 -12.3,-1.172 -16.065,-2.966" style="fill:#000000;fill-opacity:1;fill-rule:nonzero;stroke:none" id="path37"></path><path d="m 236.853,427.605 c -5.698,4.442 -10.197,9.888 -13.294,16.691 -3.314,7.28 -4.945,16.192 -8.5,23.313 -6.251,12.518 -16.356,23.208 -37.202,25.622 15.399,0 24.362,-4.25 30.793,-9.927 5.484,-4.843 9.339,-9.613 12.233,-16.116 3.231,-7.258 5.384,-16.334 9.7,-23.123 6.98,-10.98 18.537,-17.977 39.629,-17.633 -0.075,-2.437 -1.557,-4.54 -3.234,-6.793 -14.21,-1.047 -23.202,2.568 -30.125,7.966" style="fill:#ffcb05;fill-opacity:1;fill-rule:nonzero;stroke:none" id="path39"></path><path d="m 433.483,492.755 c -5.254,-0.528 -10.525,-1.192 -15.779,-1.997 -16.99,-1.967 -27.864,-9.45 -35.26,-24.261 -1.799,-3.604 -3.136,-7.864 -4.428,-11.983 -1.188,-3.784 -2.415,-7.697 -4.033,-11.25 -3.174,-6.973 -7.763,-12.737 -14.029,-17.622 -8.66,-6.753 -18.778,-9.449 -31.84,-8.487 l -1.135,0.083 -0.679,0.914 c -1.613,2.167 -3.622,4.866 -3.726,8.202 l -0.081,2.61 2.611,-0.043 c 18.238,-0.296 30.151,4.939 37.487,16.48 2.583,4.062 4.409,9.167 6.176,14.104 1.046,2.924 2.128,5.947 3.35,8.696 2.886,6.484 6.732,11.558 12.86,16.969 8.154,7.199 18.462,10.551 32.441,10.551 7.156,-0.067 12.3,-1.172 16.065,-2.966" style="fill:#000000;fill-opacity:1;fill-rule:nonzero;stroke:none" id="path41"></path><path d="m 358.423,427.605 c 5.697,4.442 10.197,9.888 13.294,16.691 3.313,7.28 4.944,16.192 8.5,23.313 6.25,12.518 16.355,23.208 37.201,25.622 -15.398,0 -24.361,-4.25 -30.793,-9.927 -5.484,-4.843 -9.339,-9.613 -12.232,-16.116 -3.232,-7.258 -5.384,-16.334 -9.701,-23.123 -6.98,-10.98 -18.537,-17.977 -39.629,-17.633 0.076,-2.437 1.557,-4.54 3.235,-6.793 14.209,-1.047 23.201,2.568 30.125,7.966" style="fill:#ffcb05;fill-opacity:1;fill-rule:nonzero;stroke:none" id="path43"></path><path d="m 256.164,387.638 c -2.388,-0.987 -4.566,-2.453 -6.472,-4.361 -2.009,-1.973 -3.576,-4.256 -4.637,-6.762 -1.063,-2.512 -1.602,-5.202 -1.602,-7.996 0,-5.928 1.985,-10.962 5.901,-14.963 3.934,-4.021 8.893,-6.059 14.738,-6.059 3.817,0 7.323,0.948 10.422,2.818 3.09,1.867 5.579,4.525 7.397,7.903 l 2.633,4.893 h -11.171 l -0.994,-1.377 c -1.086,-1.505 -2.306,-2.591 -3.727,-3.323 -1.416,-0.729 -2.983,-1.084 -4.789,-1.084 -2.849,0 -5.209,1.029 -7.215,3.148 -2.054,2.17 -3.053,4.788 -3.053,8.005 0,2.961 1.002,5.447 3.064,7.601 2.023,2.111 4.38,3.137 7.205,3.137 1.855,0 3.432,-0.359 4.822,-1.097 1.401,-0.743 2.72,-1.969 3.921,-3.641 l 0.995,-1.383 h 11.14 l -2.524,4.852 c -1.83,3.52 -4.371,6.291 -7.553,8.239 -3.189,1.95 -6.807,2.938 -10.753,2.938 -2.754,0 -5.36,-0.501 -7.748,-1.488" style="fill:#000000;fill-opacity:1;fill-rule:nonzero;stroke:none" id="path45"></path><path d="m 256.798,386.104 -10e-4,-10e-4 c -2.185,-0.902 -4.18,-2.248 -5.931,-3.999 -1.869,-1.837 -3.307,-3.931 -4.282,-6.236 -0.976,-2.305 -1.471,-4.779 -1.471,-7.349 0,-5.479 1.826,-10.123 5.427,-13.803 3.61,-3.689 8.17,-5.56 13.552,-5.56 3.51,0 6.727,0.868 9.564,2.58 2.833,1.711 5.119,4.157 6.793,7.269 0,0 0.658,1.223 1.317,2.446 h -7.544 c -0.248,-0.344 -0.497,-0.688 -0.497,-0.688 -1.242,-1.721 -2.653,-2.973 -4.313,-3.828 -1.656,-0.853 -3.472,-1.268 -5.549,-1.268 -3.283,0 -6.116,1.233 -8.42,3.666 -2.36,2.493 -3.508,5.485 -3.508,9.147 0,3.41 1.153,6.271 3.525,8.749 2.32,2.421 5.148,3.649 8.404,3.649 2.132,0 3.964,-0.422 5.6,-1.29 1.628,-0.863 3.139,-2.256 4.492,-4.139 0,0 0.249,-0.345 0.497,-0.692 h 7.554 c -0.631,1.214 -1.261,2.426 -1.261,2.426 -1.69,3.249 -4.027,5.801 -6.947,7.588 -2.924,1.789 -6.251,2.696 -9.887,2.696 -2.535,0 -4.928,-0.459 -7.114,-1.363" style="fill:#ffffff;fill-opacity:1;fill-rule:nonzero;stroke:none" id="path47"></path><path d="m 285.708,388.452 v -40.281 h 9.907 v 15.225 h 13.332 v 9.96 h -13.332 v 5.162 h 13.332 v 9.934 z" style="fill:#000000;fill-opacity:1;fill-rule:nonzero;stroke:none" id="path49"></path><path d="m 287.367,386.792 v -36.961 h 6.589 v 15.226 h 13.331 v 6.639 h -13.331 v 8.482 h 13.331 v 6.614 z" style="fill:#ffffff;fill-opacity:1;fill-rule:nonzero;stroke:none" id="path51"></path><path d="m 324.566,387.638 c -2.387,-0.987 -4.565,-2.454 -6.471,-4.361 -2.011,-1.975 -3.577,-4.256 -4.638,-6.762 -1.062,-2.511 -1.602,-5.202 -1.602,-7.996 0,-5.928 1.986,-10.962 5.901,-14.963 3.934,-4.021 8.893,-6.059 14.739,-6.059 3.817,0 7.322,0.948 10.421,2.819 3.09,1.864 5.579,4.523 7.397,7.902 l 2.634,4.893 h -11.172 l -0.994,-1.377 c -1.086,-1.504 -2.304,-2.591 -3.727,-3.324 -1.415,-0.728 -2.982,-1.083 -4.789,-1.083 -2.849,0 -5.208,1.029 -7.214,3.148 -2.055,2.17 -3.054,4.788 -3.054,8.005 0,2.961 1.003,5.447 3.065,7.601 2.023,2.11 4.38,3.137 7.205,3.137 1.855,0 3.432,-0.359 4.822,-1.097 1.4,-0.743 2.72,-1.969 3.921,-3.641 l 0.994,-1.383 h 11.14 l -2.523,4.852 c -1.831,3.52 -4.372,6.291 -7.553,8.239 -3.19,1.95 -6.807,2.938 -10.754,2.938 -2.752,0 -5.36,-0.501 -7.748,-1.488" style="fill:#000000;fill-opacity:1;fill-rule:nonzero;stroke:none" id="path53"></path><path d="m 325.201,386.104 -0.002,-10e-4 c -2.183,-0.901 -4.178,-2.247 -5.931,-3.999 -1.87,-1.838 -3.308,-3.933 -4.282,-6.236 -0.976,-2.305 -1.47,-4.778 -1.47,-7.349 0,-5.479 1.826,-10.123 5.427,-13.802 3.61,-3.69 8.17,-5.561 13.552,-5.561 3.511,0 6.728,0.868 9.564,2.581 2.832,1.709 5.117,4.154 6.794,7.268 0,0 0.658,1.223 1.315,2.446 h -7.544 c -0.248,-0.344 -0.497,-0.688 -0.497,-0.688 -1.242,-1.722 -2.653,-2.974 -4.313,-3.829 -1.656,-0.853 -3.471,-1.267 -5.549,-1.267 -3.284,0 -6.117,1.233 -8.419,3.666 -2.362,2.493 -3.509,5.485 -3.509,9.147 0,3.41 1.153,6.27 3.526,8.749 2.322,2.421 5.149,3.649 8.404,3.649 2.132,0 3.964,-0.422 5.6,-1.29 1.628,-0.864 3.139,-2.257 4.491,-4.139 0,0 0.248,-0.345 0.497,-0.692 h 7.555 c -0.632,1.214 -1.262,2.426 -1.262,2.426 -1.689,3.249 -4.026,5.801 -6.947,7.588 -2.925,1.789 -6.251,2.696 -9.887,2.696 -2.534,0 -4.927,-0.459 -7.113,-1.363" style="fill:#ffffff;fill-opacity:1;fill-rule:nonzero;stroke:none" id="path55"></path><path d="m 465.306,311.828 c 0,0 -2.814,0.979 -2.814,7.03 0,7.011 6.489,11.788 6.489,11.788 l -9.683,2.802 c 3.09,6.129 5.84,12.456 8.228,18.96 0.022,0.011 0.048,0.024 0.07,0.034 1.657,-3.843 4.375,-11.925 4.375,-23.639 0,-10.51 -3.367,-16.818 -6.665,-16.975 m -14.989,5.843 c 2.855,4.477 5.519,9.087 7.978,13.821 2.367,-0.684 4.798,-1.388 6.512,-1.885 -2.067,-2.355 -4.472,-6.067 -4.472,-10.749 0,-2.496 0.441,-4.311 1.039,-5.642 -2.845,1.089 -6.812,2.693 -11.057,4.455 m 18.716,38.985 -47.983,13.428 c -18.286,-50.462 -66.637,-86.519 -123.412,-86.519 -56.776,0 -105.126,36.057 -123.412,86.519 l -47.984,-13.428 c 0,0 -6.092,-9.845 -6.092,-27.853 0,-12.902 4.569,-20.158 9.945,-20.158 1.158,0 9.986,3.583 16.608,6.339 32.393,-48.886 87.895,-81.127 150.935,-81.127 63.039,0 118.541,32.24 150.934,81.127 6.622,-2.756 15.45,-6.339 16.609,-6.339 5.376,0 9.944,7.256 9.944,20.158 0,18.008 -6.092,27.853 -6.092,27.853" style="fill:#000000;fill-opacity:1;fill-rule:nonzero;stroke:none" id="path57"></path><path d="m 423.607,366.524 c -19.419,-50.644 -68.49,-86.602 -125.969,-86.602 -57.479,0 -106.55,35.957 -125.97,86.602 -11.429,-3.198 -25.818,-7.225 -39.707,-11.111 24.362,-67.959 89.337,-116.576 165.677,-116.576 76.339,0 141.314,48.617 165.675,116.576 -13.87,3.881 -28.267,7.91 -39.706,11.111" style="fill:#ffffff;fill-opacity:1;fill-rule:nonzero;stroke:none" id="path59"></path><path d="m 460.51,356.198 v 0 c -12.989,3.634 -26.234,7.341 -36.903,10.326 -0.298,-0.778 -0.604,-1.552 -0.916,-2.323 l 36.953,-10.34 C 434.991,288.354 371.763,241.742 297.638,241.742 c -75.006,0 -138.858,47.722 -162.872,114.456 -0.936,-0.261 -1.872,-0.524 -2.805,-0.785 0.352,-0.979 0.714,-1.956 1.082,-2.928 0.06,-0.158 0.12,-0.315 0.18,-0.472 0.371,-0.97 0.748,-1.937 1.135,-2.899 0.008,-0.019 0.016,-0.04 0.024,-0.059 1.229,-3.048 2.541,-6.053 3.932,-9.013 0.043,-0.09 0.084,-0.181 0.127,-0.271 0.435,-0.922 0.879,-1.839 1.33,-2.753 0.072,-0.145 0.145,-0.29 0.217,-0.435 1.897,-3.818 3.929,-7.557 6.09,-11.21 0.093,-0.159 0.187,-0.318 0.28,-0.476 0.505,-0.846 1.015,-1.688 1.533,-2.525 0.086,-0.14 0.172,-0.277 0.259,-0.416 1.666,-2.677 3.402,-5.308 5.206,-7.887 0.051,-0.072 0.1,-0.145 0.151,-0.218 0.552,-0.787 1.112,-1.566 1.676,-2.343 0.149,-0.204 0.298,-0.409 0.447,-0.614 0.559,-0.763 1.123,-1.522 1.694,-2.276 0.096,-0.128 0.195,-0.253 0.291,-0.38 1.826,-2.396 3.713,-4.743 5.657,-7.04 0.176,-0.208 0.35,-0.416 0.526,-0.622 0.575,-0.673 1.156,-1.341 1.74,-2.005 0.217,-0.247 0.436,-0.492 0.655,-0.737 0.593,-0.667 1.188,-1.33 1.791,-1.988 0.103,-0.112 0.208,-0.223 0.311,-0.334 1.308,-1.417 2.638,-2.813 3.991,-4.186 0.123,-0.125 0.244,-0.253 0.368,-0.377 0.594,-0.599 1.195,-1.191 1.797,-1.782 0.286,-0.28 0.572,-0.561 0.86,-0.84 0.582,-0.562 1.168,-1.122 1.757,-1.677 0.302,-0.283 0.605,-0.564 0.909,-0.845 0.604,-0.562 1.208,-1.121 1.818,-1.674 0.029,-0.025 0.057,-0.049 0.085,-0.074 1.357,-1.223 2.736,-2.421 4.131,-3.602 0.343,-0.291 0.683,-0.582 1.029,-0.87 0.577,-0.481 1.158,-0.956 1.741,-1.429 0.394,-0.32 0.789,-0.638 1.185,-0.955 0.574,-0.458 1.148,-0.913 1.727,-1.364 0.414,-0.321 0.831,-0.639 1.248,-0.956 1.001,-0.766 2.011,-1.52 3.029,-2.263 0.466,-0.34 0.929,-0.683 1.398,-1.019 0.553,-0.397 1.113,-0.785 1.671,-1.173 0.483,-0.337 0.965,-0.675 1.452,-1.007 0.554,-0.379 1.113,-0.755 1.672,-1.127 0.508,-0.339 1.019,-0.674 1.53,-1.008 0.546,-0.355 1.091,-0.712 1.64,-1.061 0.605,-0.384 1.215,-0.761 1.824,-1.138 0.795,-0.492 1.593,-0.979 2.396,-1.457 0.666,-0.399 1.331,-0.795 2.003,-1.185 0.52,-0.301 1.044,-0.596 1.567,-0.892 0.598,-0.338 1.197,-0.674 1.8,-1.006 0.527,-0.29 1.055,-0.578 1.585,-0.863 0.64,-0.344 1.284,-0.681 1.929,-1.017 0.488,-0.256 0.976,-0.514 1.468,-0.764 1.069,-0.544 2.144,-1.08 3.225,-1.602 0.418,-0.202 0.84,-0.396 1.258,-0.594 0.748,-0.354 1.498,-0.707 2.252,-1.052 0.498,-0.227 1,-0.45 1.501,-0.674 0.7,-0.311 1.403,-0.619 2.108,-0.921 0.495,-0.213 0.989,-0.425 1.486,-0.633 0.811,-0.34 1.627,-0.672 2.444,-0.999 0.383,-0.154 0.762,-0.313 1.146,-0.463 1.159,-0.455 2.325,-0.898 3.496,-1.328 0.423,-0.156 0.849,-0.305 1.274,-0.458 0.811,-0.291 1.624,-0.58 2.441,-0.86 0.48,-0.165 0.961,-0.327 1.443,-0.487 0.805,-0.268 1.613,-0.53 2.424,-0.787 0.448,-0.142 0.896,-0.286 1.346,-0.425 1.115,-0.344 2.235,-0.678 3.36,-0.999 l 0.641,-0.184 c 1.161,-0.327 2.326,-0.641 3.495,-0.945 0.435,-0.114 0.872,-0.22 1.308,-0.331 0.864,-0.217 1.729,-0.429 2.598,-0.634 0.466,-0.109 0.933,-0.217 1.401,-0.324 0.917,-0.208 1.839,-0.408 2.762,-0.601 0.384,-0.08 0.766,-0.165 1.151,-0.244 1.288,-0.26 2.581,-0.509 3.879,-0.743 0.273,-0.049 0.549,-0.092 0.822,-0.139 1.046,-0.183 2.095,-0.359 3.148,-0.522 0.448,-0.07 0.896,-0.136 1.345,-0.202 0.915,-0.136 1.833,-0.264 2.752,-0.385 0.448,-0.059 0.896,-0.119 1.345,-0.175 1.075,-0.133 2.153,-0.255 3.234,-0.37 0.267,-0.027 0.533,-0.06 0.801,-0.088 1.339,-0.133 2.685,-0.253 4.034,-0.357 0.366,-0.028 0.734,-0.051 1.101,-0.077 1.002,-0.071 2.007,-0.137 3.013,-0.191 0.462,-0.025 0.924,-0.047 1.387,-0.069 0.966,-0.045 1.934,-0.081 2.904,-0.111 0.426,-0.012 0.851,-0.028 1.277,-0.038 1.373,-0.032 2.749,-0.052 4.131,-0.052 1.381,0 2.758,0.02 4.131,0.052 0.425,0.01 0.85,0.026 1.276,0.038 0.97,0.03 1.938,0.066 2.905,0.111 0.462,0.022 0.925,0.044 1.386,0.069 1.007,0.054 2.011,0.12 3.014,0.191 0.367,0.026 0.735,0.049 1.101,0.077 1.349,0.104 2.695,0.224 4.034,0.357 0.268,0.028 0.533,0.061 0.799,0.088 1.081,0.115 2.16,0.237 3.236,0.37 0.449,0.056 0.896,0.116 1.344,0.175 0.92,0.121 1.837,0.249 2.752,0.385 0.448,0.066 0.898,0.132 1.345,0.202 1.053,0.163 2.102,0.339 3.15,0.522 0.273,0.047 0.547,0.09 0.82,0.139 1.298,0.234 2.591,0.483 3.881,0.743 0.382,0.079 0.764,0.163 1.146,0.243 0.925,0.194 1.848,0.394 2.767,0.602 0.466,0.107 0.932,0.215 1.398,0.324 0.869,0.205 1.736,0.417 2.601,0.635 0.435,0.11 0.872,0.216 1.305,0.33 1.173,0.305 2.342,0.62 3.505,0.948 0.208,0.059 0.415,0.119 0.622,0.178 1.129,0.322 2.253,0.658 3.371,1.002 0.45,0.139 0.895,0.282 1.342,0.424 0.813,0.258 1.622,0.52 2.429,0.789 0.48,0.159 0.962,0.321 1.44,0.485 0.819,0.281 1.632,0.57 2.445,0.862 0.423,0.152 0.848,0.301 1.27,0.456 1.172,0.431 2.338,0.874 3.497,1.33 0.384,0.149 0.763,0.307 1.144,0.461 0.818,0.328 1.635,0.659 2.446,1 0.496,0.207 0.991,0.419 1.485,0.633 0.706,0.302 1.41,0.61 2.111,0.922 0.5,0.223 1.001,0.446 1.498,0.672 0.757,0.346 1.508,0.7 2.258,1.055 0.417,0.197 0.836,0.39 1.252,0.591 1.082,0.523 2.158,1.059 3.227,1.604 0.49,0.249 0.977,0.506 1.464,0.761 0.646,0.337 1.292,0.675 1.934,1.02 0.529,0.285 1.055,0.571 1.582,0.861 0.603,0.333 1.204,0.669 1.803,1.009 0.523,0.295 1.045,0.589 1.564,0.889 0.675,0.391 1.345,0.791 2.013,1.191 0.797,0.475 1.59,0.959 2.378,1.446 0.614,0.38 1.226,0.758 1.834,1.145 0.549,0.349 1.093,0.705 1.637,1.06 0.513,0.333 1.024,0.669 1.532,1.008 0.56,0.372 1.117,0.748 1.672,1.127 0.487,0.332 0.969,0.67 1.452,1.007 0.558,0.388 1.118,0.776 1.671,1.173 0.464,0.332 0.922,0.672 1.383,1.008 1.024,0.748 2.04,1.506 3.047,2.275 0.415,0.317 0.832,0.634 1.244,0.955 0.58,0.451 1.154,0.906 1.728,1.364 0.396,0.317 0.792,0.635 1.185,0.955 0.583,0.473 1.164,0.948 1.741,1.429 0.344,0.286 0.683,0.577 1.025,0.865 1.405,1.191 2.796,2.399 4.162,3.631 0.019,0.017 0.038,0.032 0.057,0.05 0.614,0.554 1.22,1.116 1.827,1.68 0.299,0.278 0.599,0.555 0.897,0.835 0.593,0.558 1.181,1.121 1.766,1.686 0.283,0.275 0.566,0.553 0.848,0.829 0.606,0.594 1.21,1.189 1.808,1.791 0.115,0.116 0.229,0.236 0.344,0.353 1.366,1.386 2.709,2.796 4.03,4.226 0.096,0.106 0.193,0.207 0.289,0.312 0.607,0.661 1.204,1.328 1.801,1.998 0.215,0.241 0.43,0.482 0.643,0.724 0.588,0.668 1.171,1.338 1.748,2.016 0.172,0.2 0.343,0.405 0.515,0.607 1.95,2.306 3.844,4.661 5.676,7.065 0.093,0.12 0.184,0.24 0.276,0.36 0.575,0.76 1.143,1.524 1.706,2.292 0.144,0.197 0.287,0.394 0.43,0.59 0.569,0.784 1.135,1.571 1.691,2.365 0.041,0.059 0.081,0.119 0.122,0.176 1.819,2.598 3.568,5.249 5.247,7.947 0.077,0.125 0.156,0.249 0.234,0.375 0.523,0.847 1.039,1.7 1.55,2.555 0.086,0.146 0.171,0.29 0.257,0.435 2.17,3.67 4.211,7.425 6.117,11.259 0.064,0.131 0.129,0.262 0.194,0.392 0.456,0.925 0.906,1.854 1.346,2.788 0.035,0.072 0.069,0.147 0.103,0.22 1.85,3.933 3.558,7.946 5.119,12.032 0.052,0.14 0.105,0.278 0.159,0.418 0.372,0.981 0.736,1.967 1.091,2.956 -0.931,0.261 -1.867,0.524 -2.803,0.785" style="fill:#cbcbcb;fill-opacity:1;fill-rule:nonzero;stroke:none" id="path61"></path><path d="m 126.294,330.646 9.684,2.802 c -3.09,6.129 -5.84,12.456 -8.228,18.96 -0.023,0.011 -0.049,0.024 -0.071,0.034 -1.657,-3.843 -4.375,-11.925 -4.375,-23.639 0,-10.51 3.367,-16.818 6.665,-16.975 0,0 2.814,0.979 2.814,7.03 0,7.011 -6.489,11.788 -6.489,11.788" style="fill:#ffcb05;fill-opacity:1;fill-rule:nonzero;stroke:none" id="path63"></path><path d="m 144.958,317.671 c -2.854,4.477 -5.519,9.087 -7.979,13.821 -2.366,-0.684 -4.796,-1.388 -6.51,-1.885 2.066,-2.355 4.472,-6.067 4.472,-10.749 0,-2.496 -0.442,-4.311 -1.04,-5.642 2.846,1.089 6.813,2.693 11.057,4.455" style="fill:#ffffff;fill-opacity:1;fill-rule:nonzero;stroke:none" id="path65"></path><path d="m 467.596,352.442 c -0.022,-0.01 -0.048,-0.023 -0.07,-0.034 -2.388,-6.504 -5.138,-12.831 -8.228,-18.96 l 9.683,-2.802 c 0,0 -6.489,-4.777 -6.489,-11.788 0,-6.051 2.814,-7.03 2.814,-7.03 3.298,0.157 6.665,6.465 6.665,16.975 0,11.714 -2.718,19.796 -4.375,23.639" style="fill:#ffcb05;fill-opacity:1;fill-rule:nonzero;stroke:none" id="path67"></path><path d="m 464.807,329.607 c -1.714,0.497 -4.145,1.201 -6.512,1.885 -2.459,-4.734 -5.123,-9.344 -7.978,-13.821 4.245,-1.762 8.212,-3.366 11.057,-4.455 -0.598,1.331 -1.039,3.146 -1.039,5.642 0,4.682 2.405,8.394 4.472,10.749" style="fill:#ffffff;fill-opacity:1;fill-rule:nonzero;stroke:none" id="path69"></path><path d="m 175.824,338.161 c -0.797,1.274 -1.78,2.332 -2.921,3.145 -1.141,0.813 -2.444,1.393 -3.873,1.721 -1.511,0.361 -3.023,0.426 -4.488,0.191 -1.466,-0.236 -2.864,-0.765 -4.155,-1.573 -2.761,-1.729 -4.524,-4.11 -5.24,-7.079 -0.717,-2.974 -0.221,-5.855 1.474,-8.563 1.106,-1.764 2.554,-3.107 4.307,-3.991 1.75,-0.884 3.7,-1.261 5.798,-1.12 l 1.039,0.068 -2.005,3.202 -0.319,0.02 c -1.348,0.086 -2.553,0.438 -3.58,1.045 -1.026,0.607 -1.901,1.481 -2.601,2.599 -1.145,1.829 -1.433,3.752 -0.882,5.879 0.555,2.143 1.794,3.791 3.788,5.039 1.864,1.167 3.822,1.516 5.988,1.067 2.155,-0.448 3.754,-1.547 4.89,-3.362 0.72,-1.15 1.13,-2.333 1.217,-3.514 0.088,-1.187 -0.149,-2.484 -0.705,-3.854 l -0.119,-0.295 2.004,-3.202 0.52,0.886 c 1.1,1.873 1.646,3.85 1.623,5.878 -0.022,2.028 -0.615,3.984 -1.76,5.813" style="fill:#000000;fill-opacity:1;fill-rule:nonzero;stroke:none" id="path71"></path><path d="m 191.287,317.156 c 0,0 -6.184,-5.352 -7.003,-6.062 -0.667,0.77 -4.951,5.72 -5.617,6.49 0.818,0.71 7.003,6.062 7.003,6.062 l -2.151,2.485 -16.556,-14.331 2.151,-2.485 c 0,0 6.299,5.453 7.12,6.164 0.666,-0.771 4.951,-5.72 5.617,-6.491 -0.821,-0.711 -7.12,-6.162 -7.12,-6.162 l 2.14,-2.472 16.556,14.331 z" style="fill:#000000;fill-opacity:1;fill-rule:nonzero;stroke:none" id="path73"></path><path d="m 205.518,303.63 -8.743,-9.973 c -1.378,-1.571 -2.65,-2.508 -3.78,-2.784 -1.063,-0.259 -2.075,0.048 -3.094,0.943 -0.591,0.519 -0.982,1.11 -1.193,1.807 -0.209,0.693 -0.21,1.382 -0.001,2.104 0.099,0.363 0.268,0.734 0.504,1.111 0.251,0.397 0.704,0.973 1.347,1.706 l 9.023,10.291 -2.466,2.163 -9.071,-10.346 c -1.893,-2.159 -2.869,-4.18 -2.902,-6.007 -0.033,-1.868 0.902,-3.649 2.78,-5.296 1.769,-1.551 3.605,-2.175 5.458,-1.856 1.802,0.31 3.656,1.539 5.508,3.652 l 9.071,10.345 z" style="fill:#000000;fill-opacity:1;fill-rule:nonzero;stroke:none" id="path75"></path><path d="m 223.257,290.992 c 0,0 -7.024,-11.114 -8.858,-14.016 0.069,3.58 0.376,19.541 0.376,19.541 l -2.858,1.861 -11.946,-18.343 2.723,-1.773 c 0,0 7.049,11.131 8.886,14.032 -0.071,-3.58 -0.39,-19.566 -0.39,-19.566 l 2.858,-1.861 11.946,18.344 z" style="fill:#000000;fill-opacity:1;fill-rule:nonzero;stroke:none" id="path77"></path><path d="m 242.852,281.148 c 0,0 -5.26,-12.05 -6.634,-15.201 -0.472,3.553 -2.575,19.366 -2.575,19.366 l -3.104,1.405 -9.025,-19.951 2.969,-1.345 c 0,0 5.28,12.071 6.658,15.221 0.469,-3.553 2.565,-19.393 2.565,-19.393 l 3.104,-1.403 9.025,19.951 z" style="fill:#000000;fill-opacity:1;fill-rule:nonzero;stroke:none" id="path79"></path><path d="m 257.285,263.389 c -1.177,0.336 -4.578,1.304 -5.75,1.639 0.75,1.02 3.757,5.112 5.043,6.864 0.18,-2.167 0.601,-7.236 0.707,-8.503 m 2.118,12.213 -3.167,0.903 -14.185,-18.734 3.352,-0.956 c 0,0 3.697,4.945 4.149,5.548 0.713,-0.202 7.303,-2.082 8.016,-2.286 0.065,-0.751 0.599,-6.902 0.599,-6.902 l 3.373,-0.961 z" style="fill:#000000;fill-opacity:1;fill-rule:nonzero;stroke:none" id="path81"></path><path d="m 287.386,270.688 c 0,0 -7.37,-13.669 -8.626,-16 -0.685,2.557 -4.701,17.569 -4.701,17.569 l -4.012,0.471 -2.56,-21.752 3.181,-0.376 c 0,0 1.313,11.156 1.827,15.513 1.17,-4.37 4.346,-16.239 4.346,-16.239 l 2.655,-0.312 c 0,0 5.846,10.806 7.999,14.787 -0.513,-4.36 -1.826,-15.515 -1.826,-15.515 l 3.156,-0.37 2.561,21.753 z" style="fill:#000000;fill-opacity:1;fill-rule:nonzero;stroke:none" id="path83"></path><path d="m 324.159,260.112 c 0,-1.765 -0.43,-3.242 -1.286,-4.405 -1.102,-1.498 -2.887,-2.419 -5.304,-2.739 0,0 -2.66,-0.35 -3.555,-0.467 -0.146,1.1 -1.879,14.265 -2.025,15.365 0.857,0.113 3.078,0.405 3.078,0.405 1.507,0.199 2.673,0.234 3.465,0.104 0.767,-0.126 1.49,-0.412 2.153,-0.854 0.909,-0.597 1.66,-1.398 2.235,-2.382 0.582,-0.994 0.962,-2.134 1.127,-3.386 0.074,-0.571 0.112,-1.118 0.112,-1.641 m 3.308,2.033 c -0.225,1.704 -0.784,3.281 -1.661,4.688 -0.881,1.412 -2.025,2.573 -3.4,3.449 -0.997,0.637 -2.118,1.054 -3.333,1.241 -1.189,0.182 -2.631,0.165 -4.284,-0.053 l -6.425,-0.846 2.86,-21.699 5.524,0.728 c 2.165,0.284 3.716,0.626 4.744,1.045 1.033,0.42 1.981,1.025 2.816,1.795 1.255,1.181 2.169,2.624 2.715,4.295 0.544,1.661 0.693,3.464 0.444,5.357" style="fill:#000000;fill-opacity:1;fill-rule:nonzero;stroke:none" id="path85"></path><path d="m 339.831,265.612 -2.955,-0.829 9.665,-8.932 3.746,1.053 c 0,0 -6.045,5.546 -7.151,6.561 1.058,0.597 1.87,1.491 2.402,2.695 0.387,0.875 0.581,1.789 0.581,2.733 0,0.668 -0.098,1.352 -0.294,2.047 -0.316,1.127 -0.873,2.138 -1.656,3.005 -0.789,0.873 -1.718,1.501 -2.762,1.868 -0.764,0.27 -1.58,0.393 -2.421,0.368 -0.813,-0.026 -1.842,-0.212 -3.059,-0.555 l -5.93,-1.667 5.931,-21.092 3.118,0.875 c 0,0 -4.731,16.829 -5.046,17.949 0.751,0.212 2.278,0.642 2.278,0.642 1.685,0.474 2.474,0.575 2.839,0.578 0.492,0.003 0.945,-0.097 1.343,-0.296 0.511,-0.255 0.942,-0.601 1.285,-1.033 0.349,-0.439 0.613,-0.977 0.788,-1.593 0.28,-0.994 0.177,-1.872 -0.314,-2.685 -0.499,-0.827 -1.281,-1.38 -2.388,-1.692" style="fill:#000000;fill-opacity:1;fill-rule:nonzero;stroke:none" id="path87"></path><path d="m 362.756,272.292 c -1.122,-0.49 -4.36,-1.902 -5.477,-2.39 -0.069,1.264 -0.349,6.325 -0.468,8.492 1.515,-1.555 5.058,-5.191 5.945,-6.102 m -6.123,10.759 -3.018,-1.318 0.958,-23.477 3.201,1.396 c 0,0 -0.293,6.172 -0.329,6.927 0.681,0.297 6.958,3.034 7.638,3.331 0.528,-0.539 4.854,-4.953 4.854,-4.953 l 3.213,1.402 z" style="fill:#000000;fill-opacity:1;fill-rule:nonzero;stroke:none" id="path89"></path><path d="m 390.713,289.438 -0.322,0.574 -11.902,-7.599 1.656,-2.593 c 0,0 7.38,4.712 8.591,5.486 0.159,-0.635 0.267,-1.269 0.267,-1.9 0,-0.828 -0.137,-1.651 -0.409,-2.464 -0.564,-1.679 -1.59,-3.004 -3.053,-3.939 -1.895,-1.21 -3.855,-1.549 -5.994,-1.038 -2.148,0.514 -3.816,1.742 -5.102,3.756 -1.204,1.885 -1.575,3.857 -1.134,6.028 0.439,2.163 1.561,3.794 3.43,4.988 1.065,0.68 2.186,1.07 3.333,1.159 1.162,0.09 2.463,-0.113 3.865,-0.607 l 0.287,-0.101 3.232,2.065 -0.906,0.509 c -1.872,1.049 -3.82,1.559 -5.789,1.519 -1.975,-0.041 -3.877,-0.637 -5.656,-1.774 -1.337,-0.854 -2.431,-1.864 -3.253,-3.004 -0.826,-1.146 -1.413,-2.476 -1.746,-3.953 -0.348,-1.518 -0.401,-3.029 -0.153,-4.492 0.248,-1.464 0.79,-2.858 1.61,-4.142 1.741,-2.727 4.126,-4.469 7.088,-5.177 2.971,-0.71 5.82,-0.213 8.467,1.478 2.578,1.644 4.228,3.926 4.904,6.779 0.676,2.847 0.236,5.688 -1.311,8.442" style="fill:#000000;fill-opacity:1;fill-rule:nonzero;stroke:none" id="path91"></path><path d="m 410.37,299.68 c -0.028,-2.203 -0.826,-3.992 -2.437,-5.464 -1.657,-1.517 -3.532,-2.183 -5.732,-2.039 -2.209,0.143 -4.061,1.063 -5.662,2.814 -0.783,0.857 -1.366,1.885 -1.733,3.058 -0.368,1.174 -0.477,2.37 -0.326,3.553 0.114,0.895 0.373,1.739 0.769,2.506 0.396,0.768 0.925,1.457 1.57,2.048 1.617,1.479 3.481,2.138 5.702,2.015 2.226,-0.123 4.028,-0.971 5.511,-2.592 1.602,-1.752 2.367,-3.683 2.338,-5.899 m 2.481,4.508 c -0.518,1.272 -1.304,2.491 -2.339,3.623 -1.045,1.143 -2.246,2.037 -3.568,2.654 -1.323,0.617 -2.778,0.958 -4.324,1.014 -1.505,0.053 -2.937,-0.166 -4.26,-0.651 -1.321,-0.484 -2.561,-1.251 -3.685,-2.278 -1.102,-1.008 -1.96,-2.157 -2.551,-3.416 -0.59,-1.259 -0.93,-2.651 -1.01,-4.139 -0.084,-1.543 0.126,-3.04 0.625,-4.448 0.497,-1.409 1.269,-2.691 2.291,-3.809 2.178,-2.381 4.826,-3.683 7.872,-3.872 3.055,-0.19 5.775,0.785 8.084,2.898 1.204,1.1 2.125,2.368 2.739,3.767 0.614,1.4 0.922,2.942 0.919,4.581 -0.007,1.425 -0.275,2.795 -0.793,4.076" style="fill:#000000;fill-opacity:1;fill-rule:nonzero;stroke:none" id="path93"></path><path d="m 433.327,318.43 -17.188,13.57 -2.027,-2.566 c 0,0 10.432,-8.008 13.159,-10.1 -3.562,0.395 -19.426,2.16 -19.426,2.16 l -2.113,-2.676 17.189,-13.57 2.015,2.554 c 0,0 -10.447,8.034 -13.17,10.129 3.56,-0.399 19.448,-2.178 19.448,-2.178 z" style="fill:#000000;fill-opacity:1;fill-rule:nonzero;stroke:none" id="path95"></path><path d="m 441.719,335.081 c -0.543,1.708 -1.758,3.129 -3.611,4.225 -1.243,0.735 -2.443,1.053 -3.569,0.944 -1.113,-0.107 -2.296,-0.649 -3.517,-1.611 -10e-4,0 -1.328,-1.133 -1.328,-1.133 -1.135,-1.003 -1.729,-1.364 -2.028,-1.49 -0.395,-0.162 -0.768,-0.234 -1.103,-0.207 -0.337,0.025 -0.701,0.151 -1.081,0.375 -0.748,0.442 -1.209,1.018 -1.41,1.758 -0.198,0.735 -0.084,1.449 0.351,2.184 0.397,0.672 0.903,1.067 1.547,1.209 0.671,0.146 1.461,0.009 2.349,-0.41 l 0.513,-0.242 1.6,2.704 -0.588,0.301 c -1.667,0.856 -3.236,1.123 -4.66,0.794 -1.452,-0.334 -2.63,-1.254 -3.507,-2.736 -0.914,-1.544 -1.162,-3.127 -0.739,-4.705 0.422,-1.575 1.424,-2.84 2.977,-3.757 1.23,-0.728 2.447,-1.001 3.618,-0.809 1.137,0.185 2.372,0.842 3.673,1.953 0.002,0 0.411,0.355 0.411,0.355 2.087,1.818 3.766,2.309 5.132,1.5 0.977,-0.578 1.569,-1.267 1.814,-2.106 0.241,-0.824 0.102,-1.656 -0.422,-2.541 -0.48,-0.81 -1.115,-1.285 -1.943,-1.455 -0.859,-0.175 -1.761,0.007 -2.753,0.556 l -0.529,0.292 -1.628,-2.75 0.549,-0.313 c 1.77,-1.012 3.518,-1.351 5.195,-1.007 1.704,0.349 3.049,1.337 3.995,2.937 1.01,1.707 1.244,3.452 0.692,5.185" style="fill:#000000;fill-opacity:1;fill-rule:nonzero;stroke:none" id="path97"></path><path d="m 300.771,526.741 c -1.606,0 -3.021,0.357 -4.267,0.897 0.377,-0.017 0.753,-0.049 1.134,-0.049 3.031,0 5.962,0.584 8.726,1.653 -1.058,-1.673 -2.91,-2.501 -5.593,-2.501 m -7.415,21.808 c -0.024,-0.715 -0.04,-1.239 -0.043,-1.501 -0.044,-3.157 -0.893,-4.141 -1.634,-4.449 0.515,1.574 0.926,3.12 1.31,4.577 0.124,0.47 0.246,0.926 0.367,1.373 m 0.636,48.736 c 0,2.288 1.635,4.15 3.646,4.15 1.293,0 2.425,-0.776 3.071,-1.935 -0.691,-0.869 -1.123,-1.9 -1.353,-2.79 l -0.177,-0.026 0.143,-0.109 c -0.064,-0.269 -0.111,-0.523 -0.139,-0.753 l -0.304,-2.423 c -0.389,-0.162 -0.804,-0.265 -1.241,-0.265 -2.011,0 -3.646,1.862 -3.646,4.151 m 10.529,-17.475 v 0.245 c 0.018,-0.081 0.041,-0.169 0.055,-0.245 z m -3.496,7.381 c 0.329,0.129 0.649,0.284 0.962,0.448 0.599,-1.543 1.187,-3.148 1.661,-4.578 h -2.623 z m 24.221,-23.211 c -4.291,-2.31 -8.795,-4.083 -13.385,-5.27 l -3.81,-0.983 c 0,0 6.56,-3.983 7.965,-4.835 -0.605,-1.463 -2.194,-4.1 -4.299,-6.357 -2.538,2.613 -5.58,2.95 -6.959,2.95 l -2.869,-0.079 c -0.089,2.46 -0.244,6.359 -0.401,10.161 4.067,3.618 8.617,8.165 10.038,13.742 h 2.043 c 0.885,-2.17 2.553,-3.598 4.509,-3.598 2.909,0 5.188,3.008 5.188,6.848 0,3.839 -2.279,6.847 -5.188,6.847 -1.956,0 -3.624,-1.427 -4.509,-3.596 h -1.732 c -0.374,4.1 -1.469,7.399 -2.715,9.921 1.128,0.141 1.874,1.252 1.874,2.873 0,1.351 -0.507,2.503 -1.466,3.332 -0.075,0.064 -0.155,0.119 -0.232,0.177 0.23,0.419 0.389,0.945 0.389,1.6 0,1.349 -1.098,2.554 -2.682,3.188 -1.38,4.15 -5.052,7.131 -9.367,7.131 -5.492,0 -9.96,-4.821 -9.96,-10.747 0,-4.641 2.746,-8.594 6.572,-10.094 v -4.13 h -3.496 v -3.251 h -9.048 c -0.885,2.169 -2.554,3.596 -4.509,3.596 -2.909,0 -5.188,-3.008 -5.188,-6.847 0,-3.84 2.279,-6.848 5.188,-6.848 1.955,0 3.624,1.428 4.509,3.598 h 9.048 v -3.251 h 3.469 c -0.042,-0.994 -0.124,-2.938 -0.222,-5.292 -4.208,-3.481 -8.469,-8.292 -9.714,-17.507 -0.065,-0.415 -0.157,-0.814 -0.261,-1.203 -2.334,2.353 -4.118,5.268 -4.765,6.836 1.403,0.852 7.963,4.835 7.963,4.835 l -3.809,0.983 c -4.591,1.186 -9.094,2.96 -13.385,5.27 l -2.447,1.317 v -22.788 c 0,0 3.582,4.299 4.179,5.015 1.412,-3.607 3.28,-6.812 5.489,-9.554 -5.162,-3.015 -11.232,-3.733 -11.333,-3.743 l 0.165,0.008 c -2.107,0 -2.794,-3.343 -2.794,-4.496 l -0.003,-0.173 c -0.022,-1.42 0.455,-2.482 1.341,-3.381 0.45,-0.457 0.675,-1.083 1.315,-1.083 h 0.059 l 0.06,0.005 c 8.669,0.628 14.351,2.929 18.197,6.018 1.676,-5.056 7.848,-13.512 16.66,-13.512 7.012,0 14.853,6.646 14.853,15.542 0,0.784 -0.027,1.523 -0.071,2.235 3.242,3.221 5.931,7.323 7.813,12.134 0.597,-0.716 4.179,-5.015 4.179,-5.015 v 22.788 z" style="fill:#000000;fill-opacity:1;fill-rule:nonzero;stroke:none" id="path99"></path><path d="m 296.975,567.084 c 0.864,0.653 1.69,1.277 2.462,1.908 -0.044,1.051 -0.072,1.688 -0.072,1.688 h -3.454 c 0,0 -0.079,-1.868 -0.191,-4.551 0.424,0.327 0.844,0.646 1.255,0.955 m 6.74,-26.218 c -2.697,0.455 -3.374,3.421 -3.412,6.159 -0.014,1.01 -0.21,5.996 -0.418,11.133 -0.06,-0.052 -0.122,-0.106 -0.181,-0.158 -1.767,-1.541 -3.295,-2.871 -4.099,-3.902 -0.14,-0.182 -0.273,-0.379 -0.4,-0.586 -0.127,-3.214 -0.223,-5.792 -0.232,-6.487 -0.042,-2.974 -0.83,-6.225 -4.15,-6.225 -7.263,0 -13.488,10.997 -13.488,12.865 l 5.664,3.438 c -4.544,1.175 -9.135,2.927 -13.756,5.416 v -15.425 l 3.112,3.735 c 3.631,-11.723 12.728,-21.58 25.283,-21.58 3.464,0 6.663,0.753 9.557,2.086 0.158,0.718 0.235,1.521 0.235,2.411 0,3.709 -1.718,5.864 -3.715,7.12 m 8.561,16.237 5.664,-3.438 c 0,-1.07 -2.046,-5.138 -5.16,-8.417 1.244,-1.756 2.257,-4.232 2.719,-7.716 3.354,3.691 5.881,8.324 7.421,13.297 l 3.113,-3.735 v 15.425 c -4.621,-2.489 -9.213,-4.241 -13.757,-5.416 m -7.755,17.866 h 10.201 c 0.456,-2.087 1.786,-3.598 3.356,-3.598 1.948,0 3.527,2.323 3.527,5.188 0,2.865 -1.579,5.187 -3.527,5.187 -1.57,0 -2.9,-1.51 -3.356,-3.596 h -10.201 z m -13.767,3.181 h -10.2 c -0.457,2.086 -1.786,3.596 -3.357,3.596 -1.948,0 -3.528,-2.322 -3.528,-5.187 0,-2.865 1.58,-5.188 3.528,-5.188 1.571,0 2.9,1.511 3.357,3.598 h 10.2 z m 1.66,-6.433 h 10.448 v 9.684 h -10.448 z m 5.224,16.48 c -0.593,0 -1.17,0.07 -1.727,0.2 v -6.028 h 3.454 v 6.028 c -0.558,-0.13 -1.135,-0.2 -1.727,-0.2 m 6.979,4.18 c -1.476,-2.512 -4.048,-4.18 -6.979,-4.18 -4.586,0 -8.3,4.069 -8.3,9.088 0,5.019 3.714,9.088 8.3,9.088 3.248,0 6.052,-2.047 7.416,-5.022 -0.179,0.014 -0.36,0.021 -0.542,0.021 -1.017,0 -1.859,-0.281 -2.552,-0.725 -0.962,1.48 -2.537,2.448 -4.322,2.448 -2.93,0 -5.306,-2.601 -5.306,-5.81 0,-3.209 2.376,-5.81 5.306,-5.81 1.96,0 3.668,1.167 4.586,2.897 l 0.103,-0.078 c 0.996,-0.756 1.733,-1.386 2.29,-1.917" style="fill:#ffffff;fill-opacity:1;fill-rule:nonzero;stroke:none" id="path101"></path><path d="m 299.437,568.992 c -0.044,1.051 -0.072,1.688 -0.072,1.688 h -0.991 c 0.01,-0.536 0.025,-1.406 0.046,-2.496 0.349,0.27 0.687,0.539 1.017,0.808 m 0.866,-21.967 c -0.014,1.01 -0.21,5.996 -0.418,11.133 -0.06,-0.052 -0.122,-0.106 -0.181,-0.158 -0.373,-0.325 -0.732,-0.638 -1.079,-0.944 0.113,-6.272 0.221,-12.389 0.221,-13.075 0,-1.452 2.283,-4.219 5.395,-4.219 0.279,0 0.551,0.022 0.822,0.052 -0.421,0.406 -0.876,0.756 -1.348,1.052 -2.697,0.455 -3.374,3.421 -3.412,6.159 m 12.663,-2.044 c 1.291,1.594 2.023,2.935 2.023,2.935 l -10e-4,10e-4 c -0.65,-0.898 -1.394,-1.81 -2.208,-2.668 0.063,-0.088 0.125,-0.176 0.186,-0.268 m 12.597,17.293 -0.002,-0.007 c 0,0 -0.57,-9.501 -1.123,-9.501 -0.554,0 -1.246,0.623 -1.661,0.623 -0.415,0 -0.968,-0.83 -0.968,-0.83 0,0 -1.956,-6.631 -6.777,-12.506 0.19,-0.775 0.347,-1.615 0.467,-2.521 3.354,3.691 5.881,8.324 7.421,13.297 l 3.113,-3.735 v 15.425 c -0.157,-0.085 -0.313,-0.162 -0.47,-0.245 m -18.136,-28.641 c -2.785,-1.494 -6.029,-2.447 -9.789,-2.447 -11.795,0 -20.351,9.462 -20.351,9.462 v -10e-4 c 4.71,-6.73 11.711,-11.398 20.351,-11.398 3.464,0 6.663,0.753 9.557,2.086 0.15,0.686 0.225,1.454 0.232,2.298 m -28.621,20.925 4.193,2.545 c -4.544,1.175 -9.135,2.927 -13.756,5.416 1.932,-3.018 4.795,-5.774 9.563,-7.961 m 42.722,23.078 c -0.002,-2.281 -2.032,-4.612 -3.509,-4.612 -1.66,0 -3.297,3.241 -3.297,3.241 h -9.651 v 1.885 h -0.55 v -3.181 h 10.201 c 0.456,-2.087 1.786,-3.598 3.356,-3.598 1.948,0 3.527,2.323 3.527,5.188 0,0.369 -0.027,0.729 -0.077,1.077 m -44.272,-4.612 c -1.477,0 -3.507,2.332 -3.509,4.614 -0.05,-0.348 -0.078,-0.709 -0.078,-1.079 0,-2.865 1.58,-5.188 3.528,-5.188 1.571,0 2.9,1.511 3.357,3.598 h 10.2 v 1.296 h -10.2 c 0,0 -1.638,-3.241 -3.298,-3.241 m 24.775,8.377 v -8.854 h -9.617 v -0.83 h 10.447 v 9.684 z m -3.669,1.66 h -2.451 v -0.692 h 3.454 v 6.028 c -0.328,-0.076 -0.663,-0.125 -1.003,-0.157 z m 5.915,9.629 c -1.592,-1.843 -3.895,-3.004 -6.463,-3.004 -4.079,0 -7.492,2.925 -8.442,6.869 0.339,-4.677 3.905,-8.358 8.266,-8.358 2.932,0 5.502,1.669 6.977,4.183 -0.104,0.099 -0.219,0.203 -0.338,0.31 m -2.056,1.685 c -0.008,-0.017 -0.015,-0.034 -0.024,-0.051 0.011,0.014 0.02,0.032 0.03,0.046 z m -4.583,8.72 c -1.606,0 -3.043,-0.785 -4.016,-2.02 0.925,1.704 2.618,2.849 4.56,2.849 1.952,0 3.652,-1.156 4.574,-2.875 -0.284,-0.111 -0.551,-0.245 -0.796,-0.402 -0.962,1.48 -2.537,2.448 -4.322,2.448" style="fill:#cbcccc;fill-opacity:1;fill-rule:nonzero;stroke:none" id="path103"></path><path d="m 308.734,536.699 c 0.141,-0.554 0.245,-1.148 0.3,-1.786 2.089,0.208 3.678,1.064 4.776,2.591 -0.189,1.307 -0.459,2.482 -0.807,3.518 -0.837,-1.878 -2.26,-3.324 -4.269,-4.323 m -1.863,-9.46 c -0.31,-0.314 -0.658,-0.586 -1.03,-0.831 -0.052,-2.025 -0.052,-4.013 10e-4,-5.954 1.325,0.62 2.596,1.471 3.729,2.523 -1.01,0.794 -1.906,2.205 -2.7,4.262 m -2.209,20.586 c -0.685,-0.003 -1.686,-0.024 -2.718,-0.053 0.01,-0.318 0.016,-0.569 0.019,-0.724 0.03,-2.154 0.435,-3.29 0.925,-3.896 0.175,-0.072 0.349,-0.149 0.526,-0.231 0.653,1.113 1.072,2.749 1.248,4.904 m -3.705,-26.137 c -0.128,1.077 0.03,2.219 0.445,3.416 -0.209,-0.01 -0.415,-0.023 -0.631,-0.023 -0.385,0 -0.758,0.023 -1.125,0.056 -1.031,-1.969 -1.371,-3.842 -1.01,-5.641 0.737,-0.142 1.498,-0.224 2.282,-0.224 0.27,0 0.542,0.025 0.815,0.048 -0.412,0.758 -0.678,1.547 -0.776,2.368 m -14.667,8.739 c 0.421,-0.964 0.99,-2.024 1.71,-3.103 0.527,0.583 1.053,1.127 1.578,1.653 -1.127,0.398 -2.221,0.892 -3.288,1.45 m 4.011,-1.674 c -0.637,-0.626 -1.274,-1.277 -1.915,-1.99 0.871,-1.225 1.923,-2.444 3.133,-3.534 0.122,1.896 0.653,3.392 1.588,4.485 -0.187,0.14 -0.351,0.288 -0.527,0.433 -0.77,0.166 -1.53,0.368 -2.279,0.606 m 17.318,10.584 c 0.372,-0.59 0.687,-1.252 0.93,-1.991 2.04,1.036 3.408,2.551 4.114,4.573 -0.778,1.901 -1.826,3.3 -3.047,4.254 -0.213,-2.936 -0.883,-5.216 -1.997,-6.836 m -12.609,-18.56 c -0.065,2.23 0.212,4.011 0.828,5.333 -0.795,0.348 -1.527,0.763 -2.193,1.218 -0.958,-1.08 -1.451,-2.626 -1.493,-4.644 0.879,-0.725 1.834,-1.373 2.858,-1.907 m 10.162,5.242 c -0.886,-0.451 -1.909,-0.735 -3.051,-0.858 -0.458,-1.203 -0.631,-2.337 -0.505,-3.394 0.097,-0.819 0.382,-1.606 0.833,-2.361 0.911,0.137 1.828,0.393 2.734,0.76 -0.059,1.905 -0.057,3.865 -0.011,5.853 m 3.9,8.234 c 0.006,-0.169 0.018,-0.333 0.018,-0.507 0,-0.467 -0.027,-0.908 -0.069,-1.337 1.599,-0.26 3.067,-0.168 4.349,0.306 0.257,0.094 0.499,0.207 0.735,0.329 0,0.038 0.006,0.073 0.006,0.111 0,1.236 -0.065,2.376 -0.18,3.438 -1.187,-1.362 -2.812,-2.14 -4.859,-2.34 m 0.878,-6.193 c -0.622,0.361 -1.123,0.929 -1.515,1.678 -0.275,-0.729 -0.627,-1.378 -1.064,-1.934 0.796,-2.16 1.692,-3.618 2.679,-4.358 1.177,1.196 2.18,2.61 2.892,4.213 -1.179,-0.195 -2.184,-0.069 -2.992,0.401 m 0.333,0.574 c 0.759,-0.441 1.75,-0.515 2.947,-0.246 0.458,1.213 0.747,2.518 0.834,3.902 -0.153,-0.069 -0.303,-0.14 -0.463,-0.198 -1.381,-0.51 -2.953,-0.613 -4.651,-0.342 -0.056,-0.375 -0.13,-0.732 -0.219,-1.075 0.364,-0.966 0.88,-1.651 1.552,-2.041 m -3.065,11.286 c 1.011,1.582 1.598,3.828 1.761,6.709 -1.125,0.709 -2.365,1.081 -3.651,1.166 -0.179,-2.258 -0.612,-3.979 -1.301,-5.184 1.167,-0.629 2.295,-1.497 3.191,-2.691 m -9.288,-20.266 c -0.779,0.198 -1.529,0.467 -2.248,0.795 -0.107,2.314 0.149,4.122 0.765,5.414 0.774,-0.29 1.605,-0.509 2.491,-0.642 -0.969,-1.929 -1.304,-3.778 -1.008,-5.567 m 5.48,68.899 c 0.09,-0.228 0.181,-0.463 0.275,-0.705 0.899,1 1.87,2 2.91,3.011 -0.169,0.274 -0.335,0.525 -0.5,0.769 -0.699,-1.207 -1.614,-2.25 -2.685,-3.075 m 2.008,-5.555 c 0.185,-0.577 0.351,-1.133 0.49,-1.65 1.286,0.74 2.588,1.074 3.901,1.006 -0.125,0.666 -0.268,1.305 -0.43,1.917 -1.389,0.057 -2.704,-0.37 -3.961,-1.273 M 276.254,530.21 c -0.908,1.174 -1.377,2.758 -1.432,4.712 -0.83,-0.352 -1.655,-0.658 -2.453,-0.922 -0.191,-1.894 0.038,-3.516 0.714,-4.83 0.216,-0.418 0.483,-0.805 0.791,-1.17 1.258,0.326 2.417,0.703 3.488,1.123 -0.421,0.316 -0.792,0.678 -1.108,1.087 m 1.862,6.366 c -0.865,-0.513 -1.753,-0.969 -2.642,-1.37 0.013,-1.934 0.443,-3.475 1.305,-4.59 0.36,-0.465 0.808,-0.856 1.326,-1.188 1.045,0.447 2.001,0.938 2.876,1.466 -1.555,1.199 -2.509,3.101 -2.865,5.682 m 0.728,-0.443 c 0.396,-2.238 1.305,-3.854 2.746,-4.856 0.545,0.355 1.045,0.729 1.526,1.113 -1.513,1.085 -2.945,2.332 -4.272,3.743 m 12.442,11.093 c -0.627,0.083 -1.223,0.256 -1.779,0.538 -1.099,0.559 -2.06,1.52 -2.881,2.865 -0.285,-1.111 -0.521,-2.304 -0.694,-3.593 -0.122,-0.779 -0.312,-1.515 -0.554,-2.218 1.403,-1.155 2.942,-2.026 4.523,-2.278 0.553,1.591 0.986,3.177 1.385,4.686 m -18.793,-18.36 c -0.701,1.361 -0.959,3.011 -0.807,4.915 -0.887,-0.273 -1.731,-0.496 -2.504,-0.672 -0.483,-1.062 -0.769,-2.187 -0.801,-3.302 -0.028,-0.98 0.131,-1.905 0.469,-2.752 1.55,0.198 2.986,0.458 4.317,0.773 -0.252,0.329 -0.484,0.67 -0.674,1.038 m -4.776,0.96 c 0.03,1.047 0.268,2.102 0.669,3.112 -0.924,-0.187 -1.717,-0.304 -2.303,-0.363 -0.437,0 -1.135,-1.66 -1.135,-2.836 0,-0.64 -0.141,-2.977 0.992,-2.977 0.772,0.056 1.514,0.128 2.236,0.21 -0.328,0.885 -0.488,1.842 -0.459,2.854 m 36.234,57.322 c 0.111,-0.291 0.221,-0.585 0.332,-0.886 1.097,0.742 2.442,1.144 4.029,1.201 -0.432,1.05 -0.896,1.992 -1.366,2.811 -1.075,-1.049 -2.072,-2.087 -2.995,-3.126 m -4.252,-20.071 c -0.556,-0.435 -1.129,-0.868 -1.711,-1.307 0.611,-1.884 1.562,-3.406 2.826,-4.579 0.817,0.734 1.647,1.508 2.461,2.316 -1.503,0.959 -2.696,2.151 -3.576,3.57 m -10.195,-9.673 c -1.048,-1.652 -1.943,-3.584 -2.619,-5.875 0.82,-1.525 1.793,-2.598 2.923,-3.173 0.511,-0.259 1.063,-0.416 1.649,-0.483 0.325,1.233 0.642,2.408 1,3.485 -1.631,1.206 -2.611,3.214 -2.953,6.046 m 16.754,22.406 h 3.912 c -0.065,0.642 -0.143,1.269 -0.241,1.871 -1.294,0.105 -2.574,-0.226 -3.85,-1.001 0.075,-0.314 0.134,-0.603 0.179,-0.87 m -1.737,-9.752 h -1.529 c -0.121,-0.134 -0.235,-0.27 -0.36,-0.399 0.324,-0.435 0.694,-0.807 1.122,-1.1 0.828,-0.568 1.87,-0.884 3.117,-0.95 1.302,1.769 2.351,3.671 2.941,5.7 h -4.62 c -0.201,-0.433 -0.426,-0.844 -0.671,-1.237 z m -12.269,-9.163 c -0.759,-0.797 -1.487,-1.667 -2.166,-2.631 0.222,-2.935 1.084,-5.007 2.603,-6.236 0.436,1.189 0.945,2.239 1.607,3.09 0.052,0.067 0.113,0.136 0.169,0.204 -0.205,0.16 -0.403,0.331 -0.581,0.534 -0.937,1.075 -1.479,2.744 -1.632,5.039 m 5.173,4.449 c -0.651,-0.492 -1.307,-0.996 -1.963,-1.525 0.148,-2.149 0.801,-4.024 1.949,-5.62 0.894,0.789 1.883,1.638 2.905,2.547 -1.277,1.196 -2.252,2.722 -2.891,4.598 m -4.534,-3.796 c 0.088,-2.449 0.584,-4.212 1.494,-5.256 0.158,-0.181 0.332,-0.334 0.515,-0.474 0.549,0.595 1.232,1.238 2.007,1.933 -1.165,1.589 -1.858,3.441 -2.072,5.551 -0.657,-0.551 -1.309,-1.131 -1.944,-1.754 m 10.488,6.463 c -0.463,0.317 -0.864,0.712 -1.218,1.169 -0.605,-0.585 -1.26,-1.139 -1.938,-1.685 0.855,-1.401 2.033,-2.572 3.53,-3.505 0.933,0.952 1.83,1.954 2.65,3.004 -1.18,0.119 -2.197,0.45 -3.024,1.017 m 5.827,16.916 c -1.397,0.014 -2.732,-0.413 -4,-1.278 -0.218,0.654 -0.452,1.323 -0.691,1.982 1.07,0.78 2.419,1.172 4.051,1.189 0.227,-0.599 0.445,-1.224 0.64,-1.893 m -3.887,11.93 c 1.142,0 1.99,-0.433 1.99,-0.433 0,0 0.717,0.216 0.717,1.289 0,0.807 -1.408,1.999 -3.514,1.999 -3.17,0 -3.682,-4.096 -3.682,-4.096 0,0 2.638,1.241 4.489,1.241 m -1.989,-1.241 c 0,0 6.006,0.886 6.006,-3.012 0,-0.571 -0.196,-1.241 -0.453,-1.241 -0.373,0 -1.359,0.098 -1.359,0.098 -0.615,1.118 -2.022,2.507 -4.194,4.155" style="fill:#ffcb05;fill-opacity:1;fill-rule:nonzero;stroke:none" id="path105"></path><path d="m 178.332,443.291 -3.36,-14.195 -3.567,-15.119 -0.051,0.119 c -3.633,7.581 -7.616,12.741 -12.528,16.269 l -0.079,0.368 c -0.293,1.368 -0.847,2.475 -1.383,3.546 l -0.415,0.833 c 0,0 -0.442,0.039 -0.701,0.061 -0.027,0.108 -0.065,0.261 -0.129,0.515 0.011,0.008 0.15,0.103 0.15,0.103 0,0 -0.166,0.014 -0.18,0.016 -0.093,0.37 -1.213,4.84 -1.213,4.84 l -1.583,-0.254 c -0.084,-0.018 -0.168,-0.021 -0.251,-0.038 -0.465,1.042 -0.669,2.166 -0.669,3.3 0,1.512 0.306,3.028 0.634,4.339 l -0.026,-0.093 c 0.719,2.3 0.207,4.424 -0.413,6.341 2.11,-3.482 5.486,-5.824 9.066,-8.08 3.179,-1.829 6.689,-1.453 9.786,-1.121 l 2.215,0.21 0.092,0.011 c 1.054,0.162 2.12,-0.307 3.353,-0.851 l 1.391,-0.56 z M 164.99,386.944 c -0.547,-2.08 -1.101,-4.218 -1.52,-6.386 -0.057,0.099 -0.113,0.197 -0.17,0.298 l -0.779,1.347 c -1.104,1.842 -0.237,4.391 1.04,5.973 0.847,1.075 1.716,2.209 2.584,3.386 -0.01,-0.053 -0.025,-0.105 -0.034,-0.157 l 0.017,0.085 z m -38.536,57.552 c -0.078,0.139 -0.156,0.277 -0.234,0.42 -0.529,0.971 -1.084,1.971 -1.84,2.905 -0.454,1.182 -1.047,2.242 -1.628,3.263 -0.442,0.778 -0.838,1.528 -1.176,2.291 0.493,0.555 1.24,1.058 2.021,1.583 0,0 0.096,0.071 0.106,0.08 0.224,-0.617 0.475,-1.309 0.475,-1.309 1.171,-3.073 2.29,-6.011 2.29,-8.969 0,-0.089 -0.012,-0.176 -0.014,-0.264 m 71.467,28.879 c -1.36,0.104 -2.709,0.227 -4.045,0.359 l -0.573,2.1 c -0.506,1.452 -1.649,2.577 -3.058,3.007 -1.362,0.416 -2.815,0.149 -3.989,-0.73 l -1.108,-0.832 0.62,-1.239 c 0.389,-0.778 0.932,-1.278 1.53,-1.604 -0.091,0.02 -0.179,0.046 -0.292,0.081 l -1.38,0.344 c -1.373,0.267 -2.765,0.371 -4.112,0.472 l -3.383,0.296 -0.526,-1.07 c -0.767,-1.703 -1.085,-3.716 -0.975,-6.152 l 0.057,-1.241 5.232,-1.281 c 0.57,-0.169 1.15,-0.34 1.726,-0.51 l -1.121,-4.648 c -0.556,-2.424 -1.098,-4.731 -1.807,-6.98 -0.986,0.05 -1.935,-0.088 -2.808,-0.218 -1.299,-0.194 -2.42,-0.36 -3.284,0.13 l -0.08,0.045 -0.085,0.036 c -2.725,1.168 -5.564,2.025 -8.438,2.629 -1.286,2.842 -2.619,5.778 -5.284,7.927 -1.393,1.057 -2.017,2.655 -2.738,4.506 -0.622,1.597 -1.269,3.246 -2.469,4.679 -1.695,2.744 -4.487,3.902 -6.964,4.916 0,0 -0.028,0.012 -0.03,0.012 0.463,0.853 0.886,1.848 0.886,2.958 0,0.5 -0.086,1.023 -0.293,1.567 l 0.074,-0.25 c -0.568,2.71 -0.04,5.709 1.431,8.371 l 1.01,1.638 -0.887,1.683 c -3.044,5.015 -9.769,6.257 -14.851,4.474 l -0.129,-0.045 -0.119,-0.066 c -3.277,-1.795 -3.909,-5.184 -3.909,-8.256 0,-1.039 0.074,-2.032 0.141,-2.925 -0.009,-0.127 -0.018,-0.255 -0.018,-0.379 0,-1.645 0.692,-3.011 1.311,-4.229 0.393,-0.775 0.712,-1.507 0.844,-2.211 -0.261,-0.357 -0.555,-0.758 -0.555,-0.758 -0.467,-0.587 -0.978,-1.243 -1.367,-2.013 -3.173,0.239 -6.484,-0.263 -9.574,-1.564 l -0.044,-0.019 -0.043,-0.021 c -3.138,-1.541 -4.434,-4.43 -5.578,-6.978 -0.789,-1.759 -1.534,-3.42 -2.788,-4.585 -3.245,-3.333 -5.35,-7.361 -6.147,-11.705 l -0.091,-0.496 0.199,-0.462 c 2.382,-5.53 7.491,-9.072 11.997,-12.199 l 0.819,-0.568 0.044,-0.027 c 0.578,-0.353 1.017,-1.034 1.525,-1.824 0.398,-0.619 0.849,-1.318 1.441,-1.951 l -0.053,-0.123 c -1.103,-2.535 -1.457,-4.751 -1.115,-6.973 l 0.306,-1.987 0.269,0.096 c -0.514,-1.672 0.067,-3.43 0.487,-4.689 l 0.605,-1.816 0.622,0.311 c -0.036,-0.354 -0.059,-0.709 -0.059,-1.066 0,-1.307 0.215,-2.613 0.409,-3.799 l 0.18,-1.141 c 0.248,-1.653 0.758,-3.284 1.251,-4.861 0.656,-2.099 1.288,-4.124 1.288,-6.063 0,-1.145 -0.221,-2.26 -0.788,-3.343 -2.023,-3.452 -3.05,-6.789 -3.05,-9.922 0,-0.857 0.077,-1.7 0.232,-2.525 0.929,-4.588 1.701,-8.844 1.701,-12.976 0,-1.715 -0.136,-3.412 -0.446,-5.1 -0.045,-0.133 -0.527,-1.586 -0.527,-1.586 -0.495,-1.391 -1.063,-2.989 -1.063,-4.662 0,-1.067 0.231,-2.164 0.86,-3.258 l 0.185,-0.32 0.302,-0.211 c 1.577,-1.103 3.302,-1.149 4.824,-1.191 l 1.208,-0.071 c 3.775,-2.558 8.252,-2.165 12.164,-1.414 l -0.312,-0.03 c 1.749,0 2.556,1.433 2.989,2.203 l 1.305,2.139 -1.64,0.914 c -0.96,0.418 -1.944,0.562 -2.812,0.689 -1.172,0.171 -1.916,0.301 -2.403,0.789 l -0.054,0.054 -0.058,0.048 c -2.013,1.677 -3.591,3.335 -4.858,5.053 -0.381,1.228 -0.56,2.445 -0.56,3.656 0,3.023 0.995,6.019 2.03,9.137 1.097,3.304 2.223,6.696 2.223,10.308 0,0.951 -0.078,1.918 -0.256,2.902 0,0 -0.032,0.178 -0.06,0.336 0.232,0.179 0.475,0.344 0.692,0.537 l 0.292,0.26 0.146,0.364 c 0.569,1.422 0.678,2.835 0.784,4.202 0.099,1.278 0.192,2.484 0.673,3.514 l 0.026,0.057 0.022,0.057 c 1.795,4.738 2.731,9.401 2.821,13.918 2.334,-2.879 5.542,-4.813 8.681,-6.702 1.952,-1.175 3.807,-2.305 5.421,-3.621 -2.194,-2.558 -3.463,-5.79 -3.463,-9.185 0,-0.504 0.031,-1.012 0.085,-1.519 -0.35,-3.35 -1.101,-7.533 -3.733,-10.551 -0.051,-0.062 -0.74,-0.873 -0.74,-0.873 -1.032,-1.178 -2.378,-2.713 -2.378,-4.764 0,-0.439 0.061,-0.901 0.2,-1.387 l 0.014,-0.05 0.017,-0.048 c 0.676,-1.914 2.439,-2.315 3.493,-2.556 l 0.832,-0.218 0.219,-0.055 c 0.943,-0.149 1.746,-0.756 2.615,-1.507 -4.696,-1.701 -8.058,-6.187 -8.058,-11.47 0,-6.742 5.466,-12.208 12.209,-12.208 6.742,0 12.208,5.466 12.208,12.208 0,3.083 -1.151,5.891 -3.036,8.04 0.149,0.107 0.297,0.223 0.444,0.353 l 0.377,0.334 0.128,0.487 c 0.461,1.752 -0.542,2.785 -1.488,3.383 l 0.179,0.846 c 1.142,5.4 2.472,10.837 3.759,16.094 l 2.292,9.52 0.473,3.143 c 1.892,6.404 3.427,13.004 4.912,19.385 1.351,5.808 2.756,11.801 4.411,17.603 0.48,0.335 0.932,0.708 1.33,1.129 0.773,0.173 1.237,0.515 1.505,0.9 0.173,0.004 0.392,0.764 0.375,1.057 0,0.009 0.005,0.022 0.006,0.031 0,0 0.01,0.212 0.023,0.484 l 0.11,0.915 c 0.059,0.195 0.102,0.398 0.102,0.609 0,0.009 -0.002,0.018 -0.002,0.027 0.32,0.369 0.822,2.314 -0.217,2.412 0.185,0.759 0.014,1.5 -0.5,2.013 -0.108,0.109 -0.253,0.226 -0.433,0.327 0.955,3.301 1.977,7.116 2.663,11.054 1.921,-0.542 3.853,-1.072 5.792,-1.566 l 1.569,-0.399 0.44,1.565 c 0.748,2.657 1.521,5.406 1.951,8.245 l 0.268,1.766 z" style="fill:#000000;fill-opacity:1;fill-rule:nonzero;stroke:none" id="path107"></path><path d="m 136.457,497.283 c 4.731,1.66 10.956,0.333 13.279,-4.481 -3.817,0.249 -7.801,1.078 -11.62,0.165 -0.165,-2.324 0.499,-4.648 0.665,-7.055 -0.581,-3.154 -1.743,-6.225 -3.57,-8.964 -0.415,0 -1.327,-0.166 -1.825,-0.166 0.498,1.329 1.66,2.325 2.406,3.57 -0.083,2.572 -2.489,4.565 -2.241,7.22 -0.248,3.32 -0.58,7.803 2.906,9.711" style="fill:#979697;fill-opacity:1;fill-rule:nonzero;stroke:none" id="path109"></path><path d="m 138.366,479.355 c 2.323,-0.747 5.312,0 7.138,-1.659 -2.408,0.082 -5.81,-0.997 -7.138,1.659 m 45.069,-28.967 c -0.498,0.499 -1.08,0.996 -1.578,1.494 -2.655,0.83 -5.561,-1.079 -8.05,0.332 -2.906,1.245 -5.893,2.158 -8.964,2.739 -1.328,2.905 -2.573,5.977 -5.147,8.051 -3.071,2.324 -3.071,6.641 -5.477,9.463 -1.743,2.988 -5.146,3.818 -8.052,5.145 0.748,1.411 2.076,2.989 1.412,4.731 -0.747,3.569 0.166,7.387 2.157,10.459 -3.817,0.249 -7.801,1.078 -11.62,0.165 -0.165,-2.324 0.499,-4.648 0.665,-7.055 -0.581,-3.154 -1.743,-6.225 -3.57,-8.964 2.823,-1.493 6.392,-1.908 8.633,-4.316 1.493,0.996 2.988,1.993 4.731,2.49 -0.996,-1.494 -2.574,-2.573 -4.234,-2.988 -2.157,0.664 -4.067,1.826 -6.225,2.573 -4.647,2.325 -10.208,2.159 -14.94,0.166 -4.565,-2.241 -4.482,-8.051 -7.967,-11.288 -2.905,-2.988 -4.897,-6.723 -5.645,-10.79 2.325,-5.395 7.554,-8.798 12.202,-12.034 1.493,-0.914 2.075,-2.739 3.319,-4.068 1.329,-0.912 2.906,-1.576 4.316,-2.406 0.166,0.498 0.498,1.327 0.664,1.742 0.664,-0.497 1.329,-0.912 1.993,-1.411 -0.083,0.415 -0.249,1.329 -0.332,1.744 0.995,-0.415 1.908,-0.83 2.905,-1.245 -0.83,0.995 -1.66,1.825 -2.573,2.738 0.166,0.416 0.498,1.246 0.663,1.661 -1.908,0.581 -3.983,0.746 -5.892,1.493 -1.66,1.743 -2.325,4.151 -3.901,5.977 -2.241,2.49 -6.972,4.15 -6.142,8.216 0.332,4.15 5.395,4.815 7.386,7.802 0.664,1.328 1.079,2.906 1.495,4.317 2.489,-0.415 5.146,-0.582 7.221,-2.159 1.493,-2.24 2.489,-4.73 3.984,-6.972 1.909,-0.083 3.9,-0.166 5.893,-0.083 1.161,0.581 1.826,1.66 2.656,2.574 1.66,-1.993 4.481,-3.569 6.889,-1.827 2.821,2.158 0.996,5.977 1.328,8.882 0.166,-0.249 0.415,-0.83 0.581,-1.079 -0.083,-3.238 1.245,-6.972 -1.162,-9.711 1.742,-4.317 5.644,-6.973 9.462,-9.379 3.32,-1.91 7.304,-0.914 10.956,-0.665 2.158,0.332 3.984,-0.995 5.976,-1.66 0.083,1.162 -0.166,2.158 -0.581,3.237 0.746,0.333 1.576,0.664 2.324,0.997 0.746,0.331 1.494,0.664 2.241,0.912" style="fill:#cbcbcb;fill-opacity:1;fill-rule:nonzero;stroke:none" id="path111"></path><path d="m 187.252,476.782 c 1.661,1.245 3.819,0.415 4.482,-1.494 -1.493,0.333 -3.651,-0.166 -4.482,1.494" style="fill:#cbcbcb;fill-opacity:1;fill-rule:nonzero;stroke:none" id="path113"></path><path d="m 179.119,473.877 c 2.057,-0.233 4.178,-0.254 6.191,-0.646 1.589,-0.309 1.33,-0.515 2.856,-0.515 -2.822,-0.582 -4.648,-2.739 -5.811,-5.229 -1.411,0.331 -2.739,0.663 -4.066,0.995 -0.083,1.826 0.083,3.735 0.83,5.395" style="fill:#979697;fill-opacity:1;fill-rule:nonzero;stroke:none" id="path115"></path><path d="m 182.355,467.487 c 1.163,2.49 2.989,4.647 5.811,5.229 3.153,-0.415 6.391,-0.748 9.628,-0.997 -0.415,-2.739 -1.163,-5.395 -1.91,-8.051 -4.565,1.163 -9.047,2.49 -13.529,3.819" style="fill:#cbcbcb;fill-opacity:1;fill-rule:nonzero;stroke:none" id="path117"></path><path d="m 125.667,467.321 c 2.489,-0.415 5.146,-0.582 7.221,-2.159 1.493,-2.24 2.489,-4.73 3.984,-6.972 -3.984,1.577 -4.399,7.138 -8.964,7.72 0.996,-0.913 2.074,-1.66 3.071,-2.657 1.245,-2.157 1.992,-4.731 4.232,-6.059 -1.493,-2.157 -3.651,-4.232 -3.817,-7.054 -0.249,-3.072 0.249,-6.059 0.498,-9.131 -1.412,-0.082 -2.906,0.167 -4.067,0.996 1.244,5.478 -1.66,10.624 -3.321,15.687 -1.576,-1.41 -3.9,-2.324 -4.814,-4.15 0.831,-2.324 2.408,-4.232 3.238,-6.556 -2.241,2.49 -6.972,4.15 -6.142,8.216 0.332,4.15 5.395,4.815 7.386,7.802 0.664,1.328 1.079,2.906 1.495,4.317" style="fill:#979697;fill-opacity:1;fill-rule:nonzero;stroke:none" id="path119"></path><path d="m 185.261,464.997 c 0.58,0 1.66,0.083 2.24,0.083 l -0.332,-0.415 c -1.66,-1.578 -1.825,-3.902 -2.323,-5.893 -0.498,-2.408 -1.577,-4.897 -0.664,-7.305 0.747,-1.576 0.083,-2.572 -1.661,-2.406 1.398,-0.134 2.81,-0.206 4.2,-0.38 -0.615,-0.711 -1.995,-0.122 -2.577,-0.68 0.676,-0.303 1.622,-0.107 2.364,-0.14 0.101,-0.983 -2.034,-0.885 -2.779,-0.837 0.529,-0.431 1.847,-0.172 2.569,-0.197 0.034,-0.162 0.036,-0.335 0,-0.495 -0.862,-0.04 -1.849,0.048 -2.592,-0.221 0.799,-0.34 1.738,-0.161 2.572,-0.241 -0.025,-0.501 -0.622,-0.465 -1.1,-0.544 -1.494,-0.249 -3.984,0.331 -4.234,-1.909 -2.572,-11.289 -5.395,-22.576 -7.635,-33.947 -1.245,0.582 -0.581,2.159 -0.498,3.237 2.323,10.125 4.814,20.168 7.138,30.211 0.497,2.159 1.245,4.316 1.245,6.558 0.746,0.331 1.494,0.664 2.241,0.912 -0.498,0.499 -1.08,0.996 -1.578,1.494 1.495,4.234 2.242,8.715 3.404,13.115" style="fill:#979697;fill-opacity:1;fill-rule:nonzero;stroke:none" id="path121"></path><path d="m 184.846,458.772 c 0.498,1.991 0.663,4.315 2.323,5.893 l 0.997,-0.083 c -0.665,-4.067 -1.744,-8.135 -2.905,-12.119 -0.25,-0.249 -0.83,-0.746 -1.079,-0.996 -0.913,2.408 0.166,4.897 0.664,7.305" style="fill:#cbcbcb;fill-opacity:1;fill-rule:nonzero;stroke:none" id="path123"></path><path d="m 134.631,452.463 c -0.582,-1.576 -0.665,-3.32 -1.743,-4.731 -0.996,4.731 3.486,9.38 8.383,8.217 -2.242,-1.162 -4.98,-1.411 -6.64,-3.486 m 21.248,-18.923 c -2.905,0.248 -5.81,-0.831 -8.051,-2.491 -1.661,-1.162 -3.072,-2.738 -5.063,-3.237 2.241,2.989 5.81,4.482 8.714,6.724 -3.319,0.331 -6.473,-0.664 -9.544,-1.661 3.154,3.403 8.299,1.992 12.366,3.237 -0.248,0.913 -0.497,1.826 -0.663,2.656 -5.478,-1.161 -11.039,-0.082 -16.517,0 l 0.083,0.582 c 4.814,0.082 9.628,-0.582 14.442,0 -1.412,2.822 -0.997,6.058 -0.25,9.047 0.831,2.655 -0.415,5.145 -1.162,7.635 -1.659,0.83 -3.153,1.826 -4.315,3.404 -0.582,-0.748 -1.245,-1.494 -1.826,-2.242 -2.989,-0.332 -5.893,0.415 -8.882,0 -1.493,-2.157 -3.651,-4.232 -3.817,-7.054 -0.249,-3.072 0.249,-6.059 0.498,-9.131 1.909,-1.162 3.734,-2.323 5.312,-3.984 -0.747,-1.577 -1.412,-3.319 -2.988,-4.398 0.331,-0.83 0.58,-1.66 0.913,-2.574 1.245,-0.996 3.237,-0.663 4.398,-1.991 -1.411,0.165 -2.738,0.415 -4.15,0.664 0,-0.664 0.083,-1.909 0.083,-2.574 2.823,-0.415 5.395,-1.742 7.636,-3.402 l 0.499,0.581 c 0.498,0.497 0.996,1.079 1.494,1.66 2.905,3.569 7.47,5.477 12.035,5.395 -0.249,1.161 -0.748,2.157 -1.245,3.154" style="fill:#cbcbcb;fill-opacity:1;fill-rule:nonzero;stroke:none" id="path125"></path><path d="m 185.261,450.887 c 2.406,1.327 0.165,-2.823 0,0" style="fill:#cbcbcb;fill-opacity:1;fill-rule:nonzero;stroke:none" id="path127"></path><path d="m 180.944,443.417 c 0.25,2.24 2.74,1.66 4.234,1.909 -0.498,-0.664 -1.162,-1.245 -1.909,-1.66 -3.569,-12.368 -5.81,-25.15 -9.462,-37.517 -0.166,1.08 -0.332,2.243 -0.498,3.321 2.24,11.371 5.063,22.658 7.635,33.947" style="fill:#cbcbcb;fill-opacity:1;fill-rule:nonzero;stroke:none" id="path129"></path><path d="m 133.884,438.354 c 0.497,-0.499 0.497,-0.499 0,0" style="fill:#979697;fill-opacity:1;fill-rule:nonzero;stroke:none" id="path131"></path><path d="m 131.477,436.611 c 0.083,-0.084 0.249,-0.249 0.249,-0.249 0,0 -0.166,0.165 -0.249,0.249" style="fill:#000000;fill-opacity:1;fill-rule:nonzero;stroke:none" id="path133"></path><path d="m 125.334,434.785 c 2.989,-0.83 5.645,-3.569 8.882,-2.158 0.331,-0.83 0.58,-1.66 0.913,-2.574 -3.652,0.084 -7.304,-0.082 -10.79,-1.327 -0.333,2.157 0.165,4.149 0.995,6.059" style="fill:#979697;fill-opacity:1;fill-rule:nonzero;stroke:none" id="path135"></path><path d="m 147.579,426.069 c 2.655,2.324 6.307,4.565 9.877,3.238 5.644,-3.901 9.461,-9.795 12.367,-15.853 1.078,-2.572 2.406,-5.062 2.573,-7.885 -2.407,-5.975 -6.142,-11.288 -10.126,-16.35 -1.744,-2.159 -2.656,-5.395 -1.163,-7.885 1.329,-2.159 2.325,-4.814 4.897,-5.728 0.913,-0.665 2.989,-0.913 2.574,-2.49 -2.159,-1.909 -4.897,-0.082 -7.222,0.333 -3.153,0.58 -4.647,4.15 -7.801,4.648 -1.162,0.415 -2.74,0.332 -3.238,1.742 -0.663,2.325 1.329,3.9 2.574,5.477 2.821,3.238 3.734,7.553 4.15,11.621 0.664,3.652 3.9,5.727 5.644,8.632 0.415,3.071 -1.826,5.561 -3.569,7.802 -3.819,4.315 -9.628,6.971 -11.537,12.698" style="fill:#cbcbcb;fill-opacity:1;fill-rule:nonzero;stroke:none" id="path137"></path><path d="m 125.334,426.982 c 2.74,2.408 6.641,2.574 10.043,1.744 0,-0.664 0.083,-1.909 0.083,-2.574 -1.991,-0.249 -4.066,-0.165 -5.976,-0.83 -1.493,-0.83 -2.655,-2.157 -4.15,-2.905 -0.498,1.495 -1.078,3.237 0,4.565" style="fill:#979697;fill-opacity:1;fill-rule:nonzero;stroke:none" id="path139"></path><path d="m 145.089,424.991 c 0.83,0.248 1.66,0.663 2.49,1.078 1.909,-5.727 7.718,-8.383 11.537,-12.698 1.743,-2.241 3.984,-4.731 3.569,-7.802 -1.744,-2.905 -4.98,-4.98 -5.644,-8.632 -0.499,4.067 0.996,8.134 4.066,10.873 -5.561,5.394 -14.857,7.304 -17.512,15.521 0.498,0.497 0.996,1.079 1.494,1.66" style="fill:#979697;fill-opacity:1;fill-rule:nonzero;stroke:none" id="path141"></path><path d="m 128.074,423.413 c 2.24,1.578 5.312,2.324 8.051,1.744 -2.905,-1.577 -3.901,-5.064 -3.984,-8.135 0.249,-4.148 1.825,-8.133 1.328,-12.366 -0.333,-6.142 -4.15,-11.454 -4.648,-17.596 -0.498,-3.486 0.498,-6.888 1.078,-10.375 0.665,-4.233 -1.245,-8.466 -0.58,-12.699 0.248,-1.742 1.577,-2.905 2.739,-4.067 -1.909,0.25 -3.984,-0.165 -5.644,0.995 -1.578,2.74 0.166,5.646 0.913,8.301 1.162,6.224 0,12.616 -1.245,18.759 -0.748,3.983 0.664,7.967 2.656,11.37 2.656,5.063 -0.83,10.293 -1.577,15.272 -0.415,2.905 -1.411,6.473 0.913,8.797" style="fill:#979697;fill-opacity:1;fill-rule:nonzero;stroke:none" id="path143"></path><path d="m 132.141,417.022 c 0.083,3.071 1.079,6.558 3.984,8.135 2.49,-0.499 4.73,-1.66 6.723,-3.238 0.581,-5.893 -0.498,-11.785 -2.574,-17.263 -1.161,-2.49 -0.498,-5.312 -1.493,-7.802 -0.747,-0.665 -1.66,-1.245 -2.573,-1.826 0.415,-0.167 1.079,-0.415 1.411,-0.582 1.66,-9.212 -6.391,-17.262 -3.32,-26.476 1.493,-2.075 3.32,-3.901 5.312,-5.561 1.493,-1.495 3.818,-0.995 5.726,-1.825 -0.581,-0.748 -0.913,-2.075 -1.991,-2.075 -3.902,-0.747 -7.969,-1.08 -11.288,1.41 -1.162,1.162 -2.491,2.325 -2.739,4.067 -0.665,4.233 1.245,8.466 0.58,12.699 -0.58,3.487 -1.576,6.889 -1.078,10.375 0.498,6.142 4.315,11.454 4.648,17.596 0.497,4.233 -1.079,8.218 -1.328,12.366" style="fill:#cbcbcb;fill-opacity:1;fill-rule:nonzero;stroke:none" id="path145"></path><path d="m 167.748,391.127 c 0.747,4.399 3.153,8.217 5.561,11.787 -1.993,-8.55 -4.233,-17.016 -6.059,-25.647 -0.914,0.082 -2.574,0.248 -2.407,1.577 0.663,4.15 1.991,8.216 2.905,12.283" style="fill:#cbcbcb;fill-opacity:1;fill-rule:nonzero;stroke:none" id="path147"></path><path d="m 158.736,373.037 c 0,0 -1.281,0.869 -2.423,0.869 -1.144,0 -2.287,-1.372 -2.287,-1.372 1.65,-0.077 3.243,0.031 4.71,0.503 m -7.755,-11.458 c 0.736,-0.578 1.579,-0.937 2.472,-1.159 0.912,0.269 1.76,0.648 2.543,1.133 0.041,1.327 0.047,2.744 0.048,4.045 l -1.5,1.211 c -1.254,-0.398 -2.571,-0.856 -3.895,-1.246 0.083,-1.329 -0.498,-2.822 0.332,-3.984 m 13.612,-6.463 c 0.496,-0.253 0.971,-0.553 1.411,-0.925 0.913,0.748 1.91,1.329 2.491,2.326 -0.136,0.561 -0.334,1.104 -0.564,1.637 -0.76,-1.283 -1.867,-2.293 -3.338,-3.038 m -11.465,1.732 c 0.003,-0.476 0.012,-0.954 0.012,-1.411 1.277,-0.723 2.736,-1.422 4.565,-1.993 0.003,0.004 0.007,0.008 0.012,0.013 -1.772,1.044 -3.288,2.164 -4.589,3.391 m 2.916,9.282 v 0.003 c 1.557,0.491 2.689,0.935 4.233,1.265 l 0.745,1.752 c -0.642,0.886 -1.453,1.941 -2.104,2.835 -1.494,0.082 -3.306,-0.196 -4.801,-0.196 0.079,-1.578 0.692,-3.082 0.682,-4.652 z m 14.78,-2.2 c 0.39,-0.73 0.637,-1.571 0.825,-2.434 -0.072,1.151 -0.183,2.317 -0.398,3.459 -0.099,-0.375 -0.238,-0.718 -0.427,-1.025 m -2.512,1.662 c 0.089,0.099 0.176,0.205 0.266,0.303 0.919,-0.306 1.547,-0.867 2.006,-1.562 0.254,0.481 0.395,1.049 0.421,1.708 -0.291,1.107 -0.709,2.18 -1.349,3.174 -0.497,0.83 -1.41,2.159 -2.489,1.162 -0.235,-0.128 -0.477,-0.242 -0.722,-0.346 0.96,-1.444 1.586,-2.925 1.867,-4.439 m -8.058,-9.598 c -0.616,1.245 -1.024,2.52 -1.339,3.886 -0.986,0.19 -1.992,0.403 -2.954,0.704 0.008,0.153 0.011,0.321 0.018,0.481 -0.543,-0.317 -1.114,-0.586 -1.714,-0.806 0.259,-0.036 0.518,-0.075 0.784,-0.09 -0.886,-0.164 -1.522,-0.036 -1.709,-0.712 -0.153,-0.555 -0.199,-1.275 -0.209,-2.037 1.361,-1.333 2.974,-2.539 4.89,-3.659 0.734,0.734 1.487,1.488 2.233,2.233 m 3.447,6.977 c 0.811,-0.021 1.65,-0.041 2.358,-0.059 0.604,0.776 1.248,1.54 1.902,2.281 -0.238,1.583 -0.88,3.154 -1.918,4.69 -1.445,-0.524 -3.039,-0.692 -4.584,-0.766 l -0.896,-2.103 c 0.78,-1.403 1.712,-3.277 3.138,-4.043 m 0.411,-7.626 c -1.093,0.469 -2.279,0.706 -3.471,0.818 -0.58,1.165 -0.974,2.358 -1.281,3.632 0.224,-0.042 0.449,-0.084 0.669,-0.125 1.252,1.127 2.504,2.583 4.113,2.875 l 1.311,-0.033 c 0.127,-0.028 0.255,-0.059 0.386,-0.103 0.539,-1.296 1.287,-2.522 1.883,-3.793 -0.769,-1.418 -1.964,-2.503 -3.61,-3.271" style="fill:#cbcbcb;fill-opacity:1;fill-rule:nonzero;stroke:none" id="path149"></path><path d="m 149.179,366.133 0.046,-4.344 h 1.143 l -0.183,3.841 v 0.823 z m 18.976,-7.545 c 0.915,0.274 1.646,1.052 1.646,1.052 l -0.686,-2.653 z" style="fill:#979697;fill-opacity:1;fill-rule:nonzero;stroke:none" id="path151"></path><path d="m 150.378,457.207 c 0.249,-0.023 0.479,-0.04 0.73,-0.02 0.321,0.024 0.613,0.14 0.942,0.142 0.065,0 0.134,0.016 0.179,-0.025 0.048,-0.043 0.095,-0.252 0.124,-0.32 0.086,-0.208 0.061,-0.47 0.087,-0.695 0.025,-0.213 0.078,-0.404 0.078,-0.621 v -0.53 c 0,-0.192 0.001,-0.385 0,-0.577 -0.001,-0.2 0.002,-0.261 -0.143,-0.361 -0.069,-0.047 -0.143,-0.111 -0.23,-0.061 -0.058,0.032 -0.124,0.212 -0.157,0.266 -0.04,0.068 -0.092,0.135 -0.126,0.205 -0.262,0.553 -0.508,1.092 -0.968,1.513 -0.187,0.17 -0.416,0.255 -0.622,0.398 -0.156,0.108 -0.276,0.281 -0.446,0.359 -0.177,0.082 -0.331,0.119 -0.448,0.296 -0.171,0.264 0.187,0.117 0.289,0.092 0.231,-0.058 0.475,-0.039 0.711,-0.061" style="fill:#cbcbcb;fill-opacity:1;fill-rule:nonzero;stroke:none" id="path153"></path><path d="m 416.805,443.851 1.39,0.56 c 1.234,0.544 2.299,1.013 3.354,0.851 l 0.091,-0.011 2.214,-0.21 c 3.097,-0.332 6.608,-0.708 9.788,1.121 3.579,2.256 6.956,4.598 9.065,8.08 -0.619,-1.917 -1.132,-4.041 -0.413,-6.341 l -0.025,0.093 c 0.327,-1.311 0.633,-2.827 0.633,-4.339 0,-1.134 -0.203,-2.258 -0.669,-3.3 -0.083,0.017 -0.168,0.02 -0.251,0.038 l -1.584,0.254 c 0,0 -1.119,-4.47 -1.212,-4.84 -0.013,-0.002 -0.18,-0.016 -0.18,-0.016 0,0 0.14,-0.095 0.151,-0.103 -0.064,-0.254 -0.102,-0.407 -0.13,-0.515 -0.258,-0.022 -0.7,-0.061 -0.7,-0.061 l -0.416,-0.833 c -0.536,-1.071 -1.09,-2.178 -1.383,-3.546 l -0.079,-0.368 c -4.912,-3.528 -8.894,-8.688 -12.527,-16.269 l -0.051,-0.119 -3.568,15.119 -3.36,14.195 z m 12.342,-52.361 0.017,-0.085 c -0.009,0.052 -0.024,0.104 -0.034,0.157 0.868,-1.177 1.737,-2.311 2.584,-3.386 1.278,-1.582 2.145,-4.131 1.04,-5.973 l -0.779,-1.347 c -0.057,-0.101 -0.113,-0.199 -0.169,-0.298 -0.42,2.168 -0.974,4.306 -1.521,6.386 z m 39.661,53.27 c 0,2.958 1.119,5.896 2.29,8.969 0,0 0.251,0.692 0.474,1.309 0.011,-0.009 0.107,-0.08 0.107,-0.08 0.78,-0.525 1.527,-1.028 2.021,-1.583 -0.339,-0.763 -0.734,-1.513 -1.178,-2.291 -0.581,-1.021 -1.172,-2.081 -1.626,-3.263 -0.757,-0.934 -1.312,-1.934 -1.841,-2.905 -0.077,-0.143 -0.156,-0.281 -0.234,-0.42 -0.002,0.088 -0.013,0.175 -0.013,0.264 m -73.235,28.477 0.268,-1.766 c 0.429,-2.839 1.202,-5.588 1.949,-8.245 l 0.441,-1.565 1.569,0.399 c 1.939,0.494 3.871,1.024 5.793,1.566 0.685,-3.938 1.708,-7.753 2.663,-11.054 -0.181,-0.101 -0.325,-0.218 -0.434,-0.327 -0.513,-0.513 -0.684,-1.254 -0.501,-2.013 -1.038,-0.098 -0.536,-2.043 -0.216,-2.412 -0.001,-0.009 -0.001,-0.018 -0.001,-0.027 0,-0.211 0.042,-0.414 0.101,-0.609 l 0.109,-0.915 c 0.014,-0.272 0.025,-0.484 0.025,-0.484 10e-4,-0.009 0.006,-0.022 0.006,-0.031 -0.019,-0.293 0.201,-1.053 0.374,-1.057 0.268,-0.385 0.732,-0.727 1.506,-0.9 0.397,-0.421 0.849,-0.794 1.329,-1.129 1.655,-5.802 3.061,-11.795 4.411,-17.603 1.485,-6.381 3.02,-12.981 4.912,-19.385 l 0.473,-3.143 2.293,-9.52 c 1.286,-5.257 2.616,-10.694 3.759,-16.094 l 0.178,-0.846 c -0.945,-0.598 -1.949,-1.631 -1.488,-3.383 l 0.129,-0.487 0.377,-0.334 c 0.146,-0.13 0.295,-0.246 0.443,-0.353 -1.884,-2.149 -3.036,-4.957 -3.036,-8.04 0,-6.742 5.467,-12.208 12.209,-12.208 6.742,0 12.208,5.466 12.208,12.208 0,5.283 -3.361,9.769 -8.058,11.47 0.869,0.751 1.672,1.358 2.615,1.507 l 0.22,0.055 0.831,0.218 c 1.054,0.241 2.817,0.642 3.493,2.556 l 0.017,0.048 0.014,0.05 c 0.139,0.486 0.2,0.948 0.2,1.387 0,2.051 -1.347,3.586 -2.378,4.764 0,0 -0.688,0.811 -0.74,0.873 -2.631,3.018 -3.382,7.201 -3.733,10.551 0.054,0.507 0.085,1.015 0.085,1.519 0,3.395 -1.269,6.627 -3.463,9.185 1.615,1.316 3.469,2.446 5.421,3.621 3.139,1.889 6.347,3.823 8.682,6.702 0.089,-4.517 1.025,-9.18 2.82,-13.918 l 0.023,-0.057 0.025,-0.057 c 0.481,-1.03 0.575,-2.236 0.674,-3.514 0.105,-1.367 0.215,-2.78 0.783,-4.202 l 0.146,-0.364 0.293,-0.26 c 0.215,-0.193 0.46,-0.358 0.691,-0.537 -0.028,-0.158 -0.061,-0.336 -0.061,-0.336 -0.177,-0.984 -0.254,-1.951 -0.254,-2.902 0,-3.612 1.126,-7.004 2.222,-10.308 1.035,-3.118 2.031,-6.114 2.031,-9.137 0,-1.211 -0.18,-2.428 -0.561,-3.656 -1.267,-1.718 -2.845,-3.376 -4.858,-5.053 l -0.058,-0.048 -0.054,-0.054 c -0.487,-0.488 -1.23,-0.618 -2.403,-0.789 -0.867,-0.127 -1.852,-0.271 -2.812,-0.689 l -1.639,-0.914 1.304,-2.139 c 0.434,-0.77 1.241,-2.203 2.99,-2.203 l -0.313,0.03 c 3.912,-0.751 8.39,-1.144 12.164,1.414 l 1.208,0.071 c 1.522,0.042 3.247,0.088 4.824,1.191 l 0.302,0.211 0.186,0.32 c 0.629,1.094 0.859,2.191 0.859,3.258 0,1.673 -0.568,3.271 -1.062,4.662 0,0 -0.484,1.453 -0.527,1.586 -0.31,1.688 -0.448,3.385 -0.448,5.1 0,4.132 0.773,8.388 1.702,12.976 0.155,0.825 0.233,1.668 0.233,2.525 0,3.133 -1.028,6.47 -3.05,9.922 -0.568,1.083 -0.789,2.198 -0.789,3.343 0,1.939 0.633,3.964 1.289,6.063 0.492,1.577 1.002,3.208 1.25,4.861 l 0.18,1.141 c 0.195,1.186 0.409,2.492 0.409,3.799 0,0.357 -0.022,0.712 -0.059,1.066 l 0.622,-0.311 0.606,1.816 c 0.42,1.259 1.001,3.017 0.487,4.689 l 0.268,-0.096 0.306,1.987 c 0.342,2.222 -0.012,4.438 -1.114,6.973 l -0.054,0.123 c 0.593,0.633 1.043,1.332 1.442,1.951 0.507,0.79 0.947,1.471 1.524,1.824 l 0.044,0.027 0.819,0.568 c 4.507,3.127 9.615,6.669 11.997,12.199 l 0.2,0.462 -0.091,0.496 c -0.799,4.344 -2.904,8.372 -6.149,11.705 -1.253,1.165 -1.998,2.826 -2.787,4.585 -1.143,2.548 -2.44,5.437 -5.578,6.978 l -0.043,0.021 -0.045,0.019 c -3.09,1.301 -6.399,1.803 -9.573,1.564 -0.389,0.77 -0.899,1.426 -1.367,2.013 0,0 -0.293,0.401 -0.555,0.758 0.133,0.704 0.451,1.436 0.844,2.211 0.619,1.218 1.311,2.584 1.311,4.229 0,0.124 -0.009,0.252 -0.017,0.379 0.066,0.893 0.14,1.886 0.14,2.925 0,3.072 -0.631,6.461 -3.909,8.256 l -0.119,0.066 -0.129,0.045 c -5.082,1.783 -11.807,0.541 -14.85,-4.474 l -0.887,-1.683 1.009,-1.638 c 1.471,-2.662 1.999,-5.661 1.431,-8.371 l 0.075,0.25 c -0.208,-0.544 -0.294,-1.067 -0.294,-1.567 0,-1.11 0.423,-2.105 0.886,-2.958 -10e-4,0 -0.029,-0.012 -0.029,-0.012 -2.478,-1.014 -5.27,-2.172 -6.965,-4.916 -1.2,-1.433 -1.847,-3.082 -2.469,-4.679 -0.721,-1.851 -1.344,-3.449 -2.738,-4.506 -2.666,-2.149 -3.998,-5.085 -5.284,-7.927 -2.874,-0.604 -5.713,-1.461 -8.439,-2.629 l -0.084,-0.036 -0.08,-0.045 c -0.864,-0.49 -1.986,-0.324 -3.284,-0.13 -0.873,0.13 -1.822,0.268 -2.807,0.218 -0.709,2.249 -1.251,4.556 -1.807,6.98 l -1.121,4.648 c 0.575,0.17 1.154,0.341 1.725,0.51 l 5.232,1.281 0.058,1.241 c 0.109,2.436 -0.209,4.449 -0.976,6.152 l -0.526,1.07 -3.383,-0.296 c -1.347,-0.101 -2.74,-0.205 -4.113,-0.472 l -1.379,-0.344 c -0.113,-0.035 -0.201,-0.061 -0.292,-0.081 0.598,0.326 1.141,0.826 1.531,1.604 l 0.619,1.239 -1.108,0.832 c -1.173,0.879 -2.627,1.146 -3.989,0.73 -1.409,-0.43 -2.552,-1.555 -3.057,-3.007 l -0.574,-2.1 c -1.336,-0.132 -2.684,-0.255 -4.045,-0.359 z" style="fill:#000000;fill-opacity:1;fill-rule:nonzero;stroke:none" id="path155"></path><path d="m 458.819,497.283 c -4.731,1.66 -10.956,0.333 -13.28,-4.481 3.817,0.249 7.802,1.078 11.62,0.165 0.165,-2.324 -0.499,-4.648 -0.665,-7.055 0.581,-3.154 1.744,-6.225 3.57,-8.964 0.415,0 1.328,-0.166 1.826,-0.166 -0.498,1.329 -1.661,2.325 -2.408,3.57 0.083,2.572 2.491,4.565 2.242,7.22 0.249,3.32 0.581,7.803 -2.905,9.711" style="fill:#979697;fill-opacity:1;fill-rule:nonzero;stroke:none" id="path157"></path><path d="m 449.771,477.696 c 1.827,1.659 4.815,0.912 7.138,1.659 -1.327,-2.656 -4.73,-1.577 -7.138,-1.659 m -35.689,-28.22 c 0.747,-0.333 1.577,-0.664 2.323,-0.997 -0.415,-1.079 -0.664,-2.075 -0.581,-3.237 1.992,0.665 3.819,1.992 5.977,1.66 3.652,-0.249 7.636,-1.245 10.956,0.665 3.817,2.406 7.719,5.062 9.462,9.379 -2.407,2.739 -1.079,6.473 -1.162,9.711 0.166,0.249 0.415,0.83 0.581,1.079 0.332,-2.905 -1.494,-6.724 1.328,-8.882 2.407,-1.742 5.228,-0.166 6.888,1.827 0.831,-0.914 1.495,-1.993 2.657,-2.574 1.992,-0.083 3.983,0 5.893,0.083 1.493,2.242 2.49,4.732 3.984,6.972 2.075,1.577 4.731,1.744 7.221,2.159 0.415,-1.411 0.83,-2.989 1.494,-4.317 1.992,-2.987 7.055,-3.652 7.386,-7.802 0.83,-4.066 -3.9,-5.726 -6.141,-8.216 -1.577,-1.826 -2.242,-4.234 -3.902,-5.977 -1.908,-0.747 -3.983,-0.912 -5.892,-1.493 l 0.664,-1.661 c -0.913,-0.913 -1.743,-1.743 -2.573,-2.738 0.996,0.415 1.909,0.83 2.905,1.245 -0.083,-0.415 -0.249,-1.329 -0.332,-1.744 0.664,0.499 1.328,0.914 1.991,1.411 0.167,-0.415 0.499,-1.244 0.665,-1.742 1.41,0.83 2.987,1.494 4.315,2.406 1.246,1.329 1.827,3.154 3.321,4.068 4.648,3.236 9.877,6.639 12.201,12.034 -0.747,4.067 -2.739,7.802 -5.645,10.79 -3.486,3.237 -3.402,9.047 -7.967,11.288 -4.731,1.993 -10.292,2.159 -14.94,-0.166 -2.158,-0.747 -4.067,-1.909 -6.225,-2.573 -1.66,0.415 -3.238,1.494 -4.234,2.988 1.744,-0.497 3.238,-1.494 4.732,-2.49 2.241,2.408 5.809,2.823 8.632,4.316 -1.826,2.739 -2.989,5.81 -3.57,8.964 0.166,2.407 0.83,4.731 0.665,7.055 -3.818,0.913 -7.803,0.084 -11.62,-0.165 1.991,-3.072 2.905,-6.89 2.157,-10.459 -0.663,-1.742 0.664,-3.32 1.411,-4.731 -2.904,-1.327 -6.307,-2.157 -8.05,-5.145 -2.408,-2.822 -2.408,-7.139 -5.478,-9.463 -2.573,-2.074 -3.818,-5.146 -5.146,-8.051 -3.072,-0.581 -6.059,-1.494 -8.964,-2.739 -2.49,-1.411 -5.395,0.498 -8.051,-0.332 -0.499,-0.498 -1.079,-0.995 -1.577,-1.494 0.747,-0.248 1.493,-0.581 2.241,-0.912" style="fill:#cbcbcb;fill-opacity:1;fill-rule:nonzero;stroke:none" id="path159"></path><path d="m 408.022,476.782 c -1.659,1.245 -3.818,0.415 -4.481,-1.494 1.493,0.333 3.651,-0.166 4.481,1.494" style="fill:#cbcbcb;fill-opacity:1;fill-rule:nonzero;stroke:none" id="path161"></path><path d="m 416.156,473.877 c -2.056,-0.233 -4.178,-0.254 -6.191,-0.646 -1.59,-0.309 -1.33,-0.515 -2.856,-0.515 2.823,-0.582 4.649,-2.739 5.81,-5.229 1.411,0.331 2.74,0.663 4.067,0.995 0.083,1.826 -0.082,3.735 -0.83,5.395" style="fill:#979697;fill-opacity:1;fill-rule:nonzero;stroke:none" id="path163"></path><path d="m 412.919,467.487 c -1.161,2.49 -2.987,4.647 -5.81,5.229 -3.154,-0.415 -6.39,-0.748 -9.628,-0.997 0.415,-2.739 1.163,-5.395 1.91,-8.051 4.564,1.163 9.047,2.49 13.528,3.819" style="fill:#cbcbcb;fill-opacity:1;fill-rule:nonzero;stroke:none" id="path165"></path><path d="m 469.609,467.321 c -2.49,-0.415 -5.146,-0.582 -7.221,-2.159 -1.494,-2.24 -2.491,-4.73 -3.984,-6.972 3.984,1.577 4.399,7.138 8.964,7.72 -0.996,-0.913 -2.075,-1.66 -3.071,-2.657 -1.245,-2.157 -1.992,-4.731 -4.233,-6.059 1.494,-2.157 3.652,-4.232 3.818,-7.054 0.249,-3.072 -0.249,-6.059 -0.498,-9.131 1.41,-0.082 2.905,0.167 4.066,0.996 -1.245,5.478 1.66,10.624 3.321,15.687 1.577,-1.41 3.901,-2.324 4.813,-4.15 -0.83,-2.324 -2.406,-4.232 -3.236,-6.556 2.241,2.49 6.971,4.15 6.141,8.216 -0.331,4.15 -5.394,4.815 -7.386,7.802 -0.664,1.328 -1.079,2.906 -1.494,4.317" style="fill:#979697;fill-opacity:1;fill-rule:nonzero;stroke:none" id="path167"></path><path d="m 410.015,464.997 c -0.581,0 -1.661,0.083 -2.241,0.083 l 0.331,-0.415 c 1.661,-1.578 1.827,-3.902 2.325,-5.893 0.498,-2.408 1.577,-4.897 0.664,-7.305 -0.747,-1.576 -0.083,-2.572 1.66,-2.406 -1.399,-0.134 -2.81,-0.206 -4.199,-0.38 0.614,-0.711 1.995,-0.122 2.577,-0.68 -0.677,-0.303 -1.622,-0.107 -2.365,-0.14 -0.101,-0.983 2.035,-0.885 2.78,-0.837 -0.53,-0.431 -1.848,-0.172 -2.569,-0.197 -0.035,-0.162 -0.037,-0.335 -0.001,-0.495 0.863,-0.04 1.849,0.048 2.592,-0.221 -0.799,-0.34 -1.738,-0.161 -2.572,-0.241 0.025,-0.501 0.623,-0.465 1.101,-0.544 1.494,-0.249 3.984,0.331 4.232,-1.909 2.574,-11.289 5.396,-22.576 7.637,-33.947 1.245,0.582 0.581,2.159 0.498,3.237 -2.324,10.125 -4.815,20.168 -7.138,30.211 -0.498,2.159 -1.245,4.316 -1.245,6.558 -0.748,0.331 -1.494,0.664 -2.241,0.912 0.498,0.499 1.078,0.996 1.577,1.494 -1.494,4.234 -2.241,8.715 -3.403,13.115" style="fill:#979697;fill-opacity:1;fill-rule:nonzero;stroke:none" id="path169"></path><path d="m 410.43,458.772 c -0.498,1.991 -0.664,4.315 -2.325,5.893 l -0.996,-0.083 c 0.665,-4.067 1.744,-8.135 2.906,-12.119 0.249,-0.249 0.83,-0.746 1.079,-0.996 0.913,2.408 -0.166,4.897 -0.664,7.305" style="fill:#cbcbcb;fill-opacity:1;fill-rule:nonzero;stroke:none" id="path171"></path><path d="m 454.004,455.949 c 4.897,1.163 9.38,-3.486 8.384,-8.217 -1.079,1.411 -1.162,3.155 -1.743,4.731 -1.661,2.075 -4.4,2.324 -6.641,3.486 m -15.853,-25.563 c 4.566,0.082 9.13,-1.826 12.036,-5.395 0.498,-0.581 0.996,-1.163 1.494,-1.66 l 0.498,-0.581 c 2.24,1.66 4.814,2.987 7.635,3.402 0,0.665 0.083,1.91 0.083,2.574 -1.411,-0.249 -2.738,-0.499 -4.149,-0.664 1.161,1.328 3.153,0.995 4.398,1.991 0.333,0.914 0.582,1.744 0.914,2.574 -1.578,1.079 -2.241,2.821 -2.989,4.398 1.578,1.661 3.404,2.822 5.313,3.984 0.249,3.072 0.747,6.059 0.498,9.131 -0.166,2.822 -2.324,4.897 -3.818,7.054 -2.989,0.415 -5.893,-0.332 -8.881,0 -0.581,0.748 -1.245,1.494 -1.827,2.242 -1.162,-1.578 -2.656,-2.574 -4.315,-3.404 -0.747,-2.49 -1.992,-4.98 -1.162,-7.635 0.747,-2.989 1.162,-6.225 -0.25,-9.047 4.815,-0.582 9.629,0.082 14.442,0 l 0.083,-0.582 c -5.477,-0.082 -11.039,-1.161 -16.516,0 -0.166,-0.83 -0.415,-1.743 -0.664,-2.656 4.067,-1.245 9.213,0.166 12.367,-3.237 -3.071,0.997 -6.226,1.992 -9.545,1.661 2.904,-2.242 6.474,-3.735 8.715,-6.724 -1.992,0.499 -3.404,2.075 -5.063,3.237 -2.241,1.66 -5.146,2.739 -8.052,2.491 -0.497,-0.997 -0.996,-1.993 -1.245,-3.154" style="fill:#cbcbcb;fill-opacity:1;fill-rule:nonzero;stroke:none" id="path173"></path><path d="m 410.015,450.887 c -2.408,1.327 -0.166,-2.823 0,0" style="fill:#cbcbcb;fill-opacity:1;fill-rule:nonzero;stroke:none" id="path175"></path><path d="m 414.33,443.417 c -0.248,2.24 -2.738,1.66 -4.232,1.909 0.498,-0.664 1.162,-1.245 1.909,-1.66 3.568,-12.368 5.809,-25.15 9.462,-37.517 0.166,1.08 0.332,2.243 0.498,3.321 -2.241,11.371 -5.063,22.658 -7.637,33.947" style="fill:#cbcbcb;fill-opacity:1;fill-rule:nonzero;stroke:none" id="path177"></path><path d="m 461.392,438.354 c -0.498,-0.499 -0.498,-0.499 0,0" style="fill:#979697;fill-opacity:1;fill-rule:nonzero;stroke:none" id="path179"></path><path d="m 463.799,436.611 c -0.083,-0.084 -0.249,-0.249 -0.249,-0.249 0,0 0.166,0.165 0.249,0.249" style="fill:#000000;fill-opacity:1;fill-rule:nonzero;stroke:none" id="path181"></path><path d="m 469.94,434.785 c -2.987,-0.83 -5.643,-3.569 -8.88,-2.158 -0.332,-0.83 -0.581,-1.66 -0.914,-2.574 3.653,0.084 7.304,-0.082 10.791,-1.327 0.332,2.157 -0.166,4.149 -0.997,6.059" style="fill:#979697;fill-opacity:1;fill-rule:nonzero;stroke:none" id="path183"></path><path d="m 447.696,426.069 c -2.655,2.324 -6.307,4.565 -9.877,3.238 -5.643,-3.901 -9.462,-9.795 -12.366,-15.853 -1.079,-2.572 -2.407,-5.062 -2.574,-7.885 2.408,-5.975 6.142,-11.288 10.127,-16.35 1.743,-2.159 2.656,-5.395 1.162,-7.885 -1.328,-2.159 -2.324,-4.814 -4.897,-5.728 -0.914,-0.665 -2.988,-0.913 -2.573,-2.49 2.157,-1.909 4.897,-0.082 7.221,0.333 3.154,0.58 4.647,4.15 7.802,4.648 1.162,0.415 2.738,0.332 3.237,1.742 0.664,2.325 -1.329,3.9 -2.573,5.477 -2.822,3.238 -3.736,7.553 -4.151,11.621 -0.664,3.652 -3.9,5.727 -5.643,8.632 -0.415,3.071 1.826,5.561 3.568,7.802 3.819,4.315 9.629,6.971 11.537,12.698" style="fill:#cbcbcb;fill-opacity:1;fill-rule:nonzero;stroke:none" id="path185"></path><path d="m 469.94,426.982 c -2.738,2.408 -6.639,2.574 -10.043,1.744 0,-0.664 -0.083,-1.909 -0.083,-2.574 1.993,-0.249 4.068,-0.165 5.977,-0.83 1.493,-0.83 2.655,-2.157 4.149,-2.905 0.499,1.495 1.08,3.237 0,4.565" style="fill:#979697;fill-opacity:1;fill-rule:nonzero;stroke:none" id="path187"></path><path d="m 450.187,424.991 c -0.831,0.248 -1.661,0.663 -2.491,1.078 -1.908,-5.727 -7.718,-8.383 -11.537,-12.698 -1.742,-2.241 -3.983,-4.731 -3.568,-7.802 1.743,-2.905 4.979,-4.98 5.643,-8.632 0.498,4.067 -0.995,8.134 -4.066,10.873 5.561,5.394 14.856,7.304 17.513,15.521 -0.498,0.497 -0.996,1.079 -1.494,1.66" style="fill:#979697;fill-opacity:1;fill-rule:nonzero;stroke:none" id="path189"></path><path d="m 467.202,423.413 c -2.241,1.578 -5.312,2.324 -8.052,1.744 2.906,-1.577 3.902,-5.064 3.985,-8.135 -0.249,-4.148 -1.826,-8.133 -1.328,-12.366 0.332,-6.142 4.15,-11.454 4.647,-17.596 0.499,-3.486 -0.497,-6.888 -1.078,-10.375 -0.664,-4.233 1.244,-8.466 0.581,-12.699 -0.249,-1.742 -1.578,-2.905 -2.739,-4.067 1.909,0.25 3.984,-0.165 5.643,0.995 1.578,2.74 -0.166,5.646 -0.912,8.301 -1.162,6.224 0,12.616 1.245,18.759 0.746,3.983 -0.665,7.967 -2.656,11.37 -2.656,5.063 0.83,10.293 1.576,15.272 0.415,2.905 1.411,6.473 -0.912,8.797" style="fill:#979697;fill-opacity:1;fill-rule:nonzero;stroke:none" id="path191"></path><path d="m 463.135,417.022 c -0.083,3.071 -1.079,6.558 -3.985,8.135 -2.49,-0.499 -4.731,-1.66 -6.722,-3.238 -0.581,-5.893 0.498,-11.785 2.573,-17.263 1.162,-2.49 0.498,-5.312 1.493,-7.802 0.747,-0.665 1.66,-1.245 2.573,-1.826 -0.414,-0.167 -1.078,-0.415 -1.411,-0.582 -1.659,-9.212 6.392,-17.262 3.321,-26.476 -1.495,-2.075 -3.321,-3.901 -5.313,-5.561 -1.493,-1.495 -3.817,-0.995 -5.726,-1.825 0.581,-0.748 0.913,-2.075 1.992,-2.075 3.9,-0.747 7.967,-1.08 11.288,1.41 1.161,1.162 2.49,2.325 2.739,4.067 0.663,4.233 -1.245,8.466 -0.581,12.699 0.581,3.487 1.577,6.889 1.078,10.375 -0.497,6.142 -4.315,11.454 -4.647,17.596 -0.498,4.233 1.079,8.218 1.328,12.366" style="fill:#cbcbcb;fill-opacity:1;fill-rule:nonzero;stroke:none" id="path193"></path><path d="m 427.528,391.127 c -0.748,4.399 -3.154,8.217 -5.561,11.787 1.992,-8.55 4.232,-17.016 6.058,-25.647 0.914,0.082 2.574,0.248 2.408,1.577 -0.664,4.15 -1.993,8.216 -2.905,12.283" style="fill:#cbcbcb;fill-opacity:1;fill-rule:nonzero;stroke:none" id="path195"></path><path d="m 441.25,372.534 c 0,0 -1.145,1.372 -2.287,1.372 -1.143,0 -2.424,-0.869 -2.424,-0.869 1.468,-0.472 3.061,-0.58 4.711,-0.503 m 3.376,-6.971 c -1.323,0.39 -2.641,0.848 -3.896,1.246 l -1.499,-1.211 c 0.001,-1.301 0.007,-2.718 0.048,-4.045 0.784,-0.485 1.631,-0.864 2.543,-1.133 0.894,0.222 1.736,0.581 2.472,1.159 0.83,1.162 0.249,2.655 0.332,3.984 m -17.281,-7.409 c -0.231,-0.533 -0.429,-1.076 -0.565,-1.637 0.581,-0.997 1.577,-1.578 2.491,-2.326 0.441,0.372 0.916,0.672 1.412,0.925 -1.472,0.745 -2.579,1.755 -3.338,3.038 m 10.214,-4.697 c 0.004,-0.005 0.007,-0.009 0.011,-0.013 1.829,0.571 3.289,1.27 4.566,1.993 0,0.457 0.009,0.935 0.01,1.411 -1.299,-1.227 -2.816,-2.347 -4.587,-3.391 m 2.918,13.68 c -0.01,1.57 0.601,3.074 0.681,4.652 -1.495,0 -3.307,0.278 -4.801,0.196 -0.651,-0.894 -1.462,-1.949 -2.104,-2.835 l 0.746,-1.752 c 1.544,-0.33 2.676,-0.774 4.231,-1.265 v -0.003 z m -16.454,-2.182 c -0.214,-1.142 -0.324,-2.308 -0.396,-3.459 0.186,0.863 0.435,1.704 0.824,2.434 -0.189,0.307 -0.327,0.65 -0.428,1.025 m 4.807,5.076 c -0.245,0.104 -0.486,0.218 -0.721,0.346 -1.08,0.997 -1.993,-0.332 -2.49,-1.162 -0.64,-0.994 -1.057,-2.067 -1.349,-3.174 0.026,-0.659 0.168,-1.227 0.421,-1.708 0.459,0.695 1.087,1.256 2.007,1.562 0.089,-0.098 0.177,-0.204 0.266,-0.303 0.28,1.514 0.906,2.995 1.866,4.439 m 8.425,-16.27 c 1.915,1.12 3.528,2.326 4.89,3.659 -0.011,0.762 -0.056,1.482 -0.209,2.037 -0.188,0.676 -0.824,0.548 -1.709,0.712 0.265,0.015 0.524,0.054 0.784,0.09 -0.601,0.22 -1.172,0.489 -1.714,0.806 0.006,-0.16 0.01,-0.328 0.017,-0.481 -0.962,-0.301 -1.967,-0.514 -2.954,-0.704 -0.315,-1.366 -0.722,-2.641 -1.339,-3.886 0.746,-0.745 1.5,-1.499 2.234,-2.233 m -2.543,13.253 -0.896,2.103 c -1.545,0.074 -3.138,0.242 -4.584,0.766 -1.038,-1.536 -1.679,-3.107 -1.919,-4.69 0.656,-0.741 1.299,-1.505 1.903,-2.281 0.709,0.018 1.548,0.038 2.358,0.059 1.427,0.766 2.358,2.64 3.138,4.043 m -7.159,-8.398 c 0.595,1.271 1.343,2.497 1.884,3.793 0.131,0.044 0.258,0.075 0.384,0.103 l 1.313,0.033 c 1.608,-0.292 2.86,-1.748 4.113,-2.875 0.22,0.041 0.444,0.083 0.668,0.125 -0.306,-1.274 -0.7,-2.467 -1.28,-3.632 -1.193,-0.112 -2.378,-0.349 -3.472,-0.818 -1.646,0.768 -2.841,1.853 -3.61,3.271" style="fill:#cbcbcb;fill-opacity:1;fill-rule:nonzero;stroke:none" id="path197"></path><path d="m 445.09,366.453 v -0.823 l -0.183,-3.841 h 1.144 l 0.045,4.344 z m -18.931,-9.466 -0.685,2.653 c 0,0 0.732,-0.778 1.646,-1.052 z" style="fill:#979697;fill-opacity:1;fill-rule:nonzero;stroke:none" id="path199"></path><path d="m 444.897,457.207 c -0.249,-0.023 -0.479,-0.04 -0.729,-0.02 -0.321,0.024 -0.613,0.14 -0.942,0.142 -0.066,0 -0.135,0.016 -0.18,-0.025 -0.048,-0.043 -0.095,-0.252 -0.123,-0.32 -0.087,-0.208 -0.062,-0.47 -0.088,-0.695 -0.024,-0.213 -0.078,-0.404 -0.077,-0.621 v -0.53 c 0,-0.192 -10e-4,-0.385 -10e-4,-0.577 0.002,-0.2 -0.002,-0.261 0.143,-0.361 0.07,-0.047 0.143,-0.111 0.23,-0.061 0.058,0.032 0.125,0.212 0.157,0.266 0.04,0.068 0.093,0.135 0.126,0.205 0.263,0.553 0.507,1.092 0.969,1.513 0.186,0.17 0.416,0.255 0.621,0.398 0.156,0.108 0.276,0.281 0.446,0.359 0.178,0.082 0.331,0.119 0.447,0.296 0.173,0.264 -0.186,0.117 -0.288,0.092 -0.231,-0.058 -0.474,-0.039 -0.711,-0.061" style="fill:#cbcbcb;fill-opacity:1;fill-rule:nonzero;stroke:none" id="path201"></path></g></g></g></g></svg>