
<svg id="master-artboard" viewBox="0 0 623.4633178710938 980.7955932617188" version="1.1" xmlns="http://www.w3.org/2000/svg" x="0px" y="0px" style="enable-background:new 0 0 1400 980" width="623.4633178710938px" height="980.7955932617188px"><defs><style id="ee-google-fonts">@import url(https://fonts.googleapis.com/css?family=Rubik:300,300italic,400,400italic,500,500italic,700,700italic,900,900italic);</style></defs><rect id="ee-background" x="0" y="0" width="623.4633178710938" height="980.7955932617188" style="fill:rgb(87, 72, 86);fill-opacity:0;pointer-events:none"></rect>








































<g transform="matrix(1.5093662738800049, 0, 0, 1.5093662738800049, -141.89776611328125, -147.67560386657715)"><g>
<path style="stroke:none;fill:#1f211d" d="M 276.647 718.041C 264.104 710.365 249.035 707.65 232.936 704.843C 225.447 703.532 217.773 702.128 209.442 700.163L 209.442 700.163C 209.442 700.163 209.349 700.163 209.254 700.163L 209.254 700.069C 200.456 698.01 192.22 695.108 184.451 691.645C 176.588 688.087 169.194 683.876 162.361 679.009C 127.261 654.299 106.201 613.769 104.797 567.624C 103.955 541.231 110.413 516.52 116.872 491.901C 122.769 469.439 128.665 446.882 128.385 423.761C 128.291 408.599 126.231 395.588 122.02 382.953C 117.714 370.223 110.975 357.587 101.615 343.173L 98.0581 337.837L 102.645 333.345L 151.316 285.141L 156.277 280.18L 161.706 284.578L 161.706 284.673C 167.696 289.446 173.874 293.752 180.239 297.402C 186.51 300.959 192.875 303.86 199.24 306.2C 231.906 317.807 266.07 312.472 295.086 289.54L 299.953 285.702L 304.727 289.446C 304.82 289.54 304.82 289.54 304.82 289.54L 304.82 289.54C 310.624 294.126 316.427 297.87 322.418 301.052C 328.501 304.234 334.679 306.668 340.857 308.447C 372.868 317.713 407.687 309.57 438.387 284.578L 443.816 280.18L 448.777 285.141L 497.45 333.345L 501.942 337.837L 498.479 343.173C 489.025 357.587 482.378 370.223 478.074 382.953C 473.769 395.588 471.803 408.599 471.616 423.761C 471.333 446.882 477.232 469.439 483.127 491.901C 489.587 516.52 496.045 541.231 495.296 567.624L 495.296 567.624L 495.296 567.718C 495.016 576.609 493.986 585.316 492.207 593.832C 490.523 602.257 488.089 610.4 485 618.263C 469.182 658.604 435.861 689.212 390.746 700.163L 390.746 700.163C 391.026 700.069 390.652 700.163 390.559 700.163L 390.559 700.163L 390.559 700.163L 390.559 700.163C 382.228 702.128 374.552 703.532 367.065 704.843C 351.153 707.65 336.177 710.272 323.728 717.759C 312.963 724.313 306.692 729.74 299.86 739.849C 293.121 729.928 287.224 724.592 276.647 718.041z"></path>
<path style="stroke:none;fill:#e42e2a" d="M 210.191 197.063L 237.148 197.063C 247.818 197.063 247.912 209.138 237.054 209.138L 171.815 209.138L 171.815 250.977L 237.054 250.977C 273.277 250.977 290.125 230.571 290.125 202.211C 290.125 174.973 272.435 157.845 248.286 157.845L 221.891 157.845C 211.127 157.845 211.033 145.77 221.891 145.77L 287.13 145.77L 287.13 103.931L 221.891 103.931C 185.574 103.931 168.726 124.336 168.726 152.697C 168.726 180.028 190.067 197.063 210.191 197.063z"></path>
<path style="stroke:none;fill:#e42e2a" d="M 306.131 250.977L 306.131 103.931L 353.305 103.931L 353.305 160.933L 379.607 103.931L 429.309 103.931L 389.997 176.752L 437.732 251.07L 386.159 251.07L 353.305 195.191L 353.305 250.977L 306.131 250.977z"></path>
<path style="stroke:none;fill:#e42e2a" d="M 120.896 575.674C 124.36 613.396 142.424 645.968 171.347 666.279C 177.337 670.586 183.889 674.235 190.816 677.418C 197.836 680.6 205.23 683.127 212.999 685L 212.999 685L 212.999 685L 212.999 685L 213.092 685C 213.186 685 212.999 685 212.999 685L 212.999 685L 212.999 685L 213.092 685L 213.092 685L 213.092 685L 213.092 685C 219.925 686.684 227.32 687.995 234.527 689.305L 120.896 575.674z"></path>
<path style="stroke:none;fill:#e42e2a" d="M 299.953 357.212L 299.953 305.451C 289.002 313.314 277.489 319.117 265.602 322.768L 299.953 357.212L 299.953 357.212z"></path>
<path style="stroke:none;fill:#e42e2a" d="M 299.953 622.475L 299.953 580.916L 144.016 424.979C 144.016 437.708 142.424 450.157 139.991 462.418L 299.953 622.475L 299.953 622.475z"></path>
<path style="stroke:none;fill:#e42e2a" d="M 299.953 492.744L 132.69 325.483L 118.088 339.99C 123.985 349.35 128.759 358.242 132.596 367.134L 299.953 534.583L 299.953 492.744z"></path>
<path style="stroke:none;fill:#e42e2a" d="M 299.953 403.545L 299.953 403.545L 223.856 327.355C 213.935 326.512 203.92 324.358 194.092 320.896C 186.697 318.275 179.49 314.905 172.47 310.88C 167.416 307.979 162.361 304.702 157.4 300.959L 155.997 302.363L 299.953 446.038L 299.953 403.545z"></path>
<path style="stroke:none;fill:#e42e2a" d="M 299.953 708.492L 299.953 668.9L 299.953 668.9L 130.912 499.765C 128.104 510.436 125.389 521.106 123.423 531.869L 299.953 708.492L 299.953 708.492z"></path>
<path style="stroke:none;fill:#004d92" d="M 334.397 322.768C 327.846 320.708 321.481 318.088 315.303 314.905C 310.063 312.097 304.914 309.008 299.953 305.451L 299.953 305.451L 299.953 357.212L 334.397 322.768z"></path>
<path style="stroke:none;fill:#004d92" d="M 460.104 462.418C 457.575 449.69 455.891 436.865 455.984 423.668C 456.17 406.82 458.511 392.313 463.285 377.991C 467.591 365.356 473.675 353.188 482.005 339.99L 442.599 300.959C 421.633 316.59 398.888 325.483 376.237 327.355L 299.953 403.545L 299.953 622.475L 460.104 462.418z"></path>
<path style="stroke:none;fill:#004d92" d="M 476.577 531.869C 474.611 521.106 471.896 510.436 469.088 499.671L 299.953 668.9L 299.953 708.492L 476.577 531.869z"></path>
<path style="stroke:none;fill:#004d92" d="M 365.567 689.305C 372.681 687.995 379.981 686.684 386.814 685.093L 386.814 685.093C 387.188 685 387.001 685 387.001 685L 387.001 685C 426.969 675.359 456.453 648.214 470.493 612.553C 473.207 605.626 475.36 598.326 476.951 590.745C 477.981 585.877 478.636 580.822 479.103 575.674L 365.567 689.305z"></path>
<path style="stroke:none;fill:#ffffff" d="M 367.532 392.5L 383.35 376.682L 427.156 401.953L 392.897 367.415L 403.193 356.744L 455.048 409.16L 439.418 424.886L 393.366 398.023L 429.589 434.339L 419.105 444.167L 367.532 392.5z"></path>
<path style="stroke:none;fill:#ffffff" d="M 182.205 576.609L 193.811 565.004L 230.595 601.79C 233.872 605.066 236.305 606.937 237.896 607.405C 239.488 607.873 240.985 607.405 242.482 605.908C 243.887 604.41 244.355 602.912 243.887 601.414C 243.419 599.823 241.547 597.39 238.271 594.114L 201.486 557.328L 213.186 545.628L 247.537 580.073C 254.557 587.094 258.207 592.99 258.582 597.95C 258.957 602.912 256.242 608.246 250.533 614.051C 244.729 619.854 239.394 622.568 234.527 622.193C 229.66 621.819 223.669 618.075 216.556 610.961L 182.205 576.609z"></path>
<path style="stroke:none;fill:#ffffff" d="M 256.336 502.386L 267.849 490.779L 288.347 511.371L 296.303 503.415L 275.71 482.823L 287.317 471.217L 339.359 523.165L 327.752 534.772L 304.352 511.371L 296.397 519.327L 319.796 542.728L 308.19 554.333L 256.336 502.386z"></path>
<path style="stroke:none;fill:#ffffff" d="M 263.45 524.008L 265.509 526.068L 254.37 537.299L 253.247 536.175C 249.877 532.806 247.444 530.934 245.852 530.465C 244.261 529.998 242.764 530.465 241.36 531.963C 239.862 533.367 239.394 534.865 239.862 536.456C 240.33 538.047 242.202 540.482 245.571 543.851L 266.912 565.285C 270.188 568.561 272.622 570.433 274.307 570.901C 275.992 571.369 277.489 570.901 278.987 569.497C 280.297 568.093 280.858 566.596 280.391 565.098C 279.923 563.506 278.332 561.354 275.523 558.546L 272.622 555.645L 283.854 544.412L 286.755 547.22C 292.372 552.931 295.273 557.983 295.367 562.384C 295.367 566.876 292.652 571.836 287.224 577.265C 281.327 583.163 275.898 585.972 271.031 585.596C 266.07 585.316 260.08 581.571 253.06 574.458L 236.305 557.797C 229.285 550.684 225.635 544.693 225.261 539.826C 224.98 534.865 227.788 529.437 233.684 523.538C 239.113 518.109 244.074 515.489 248.474 515.489C 252.966 515.583 257.927 518.392 263.45 524.008z"></path>
<path style="stroke:none;fill:#ffffff" d="M 210.378 616.577C 207.009 613.208 201.299 610.682 196.525 612.647C 198.585 605.253 194.84 601.228 190.161 596.454C 185.012 591.4 180.426 589.341 175.652 589.714C 170.973 590.09 165.356 592.897 159.179 599.074L 147.011 611.242L 198.865 663.191L 214.59 647.372C 223.388 638.48 222.64 628.838 213.748 619.946L 210.378 616.577zM 181.081 621.538L 180.051 622.568L 165.637 608.154L 166.667 607.124C 168.82 604.971 170.692 604.035 172.47 604.128C 174.249 604.317 176.401 605.532 178.835 608.06L 180.051 609.277C 182.579 611.804 183.889 613.957 184.077 615.735C 184.17 617.514 183.234 619.386 181.081 621.538zM 202.329 642.785L 201.299 643.816L 186.885 629.4L 187.915 628.371C 190.067 626.218 191.939 625.282 193.717 625.376C 195.495 625.563 197.648 626.873 200.082 629.308L 201.299 630.525C 203.826 633.051 205.136 635.204 205.323 636.983C 205.417 638.761 204.481 640.632 202.329 642.785z"></path>
<path style="stroke:none;fill:#ffffff" d="M 407.687 449.876C 407.311 444.915 403.663 438.924 396.548 431.999L 379.793 415.244C 372.774 408.225 366.783 404.574 361.915 404.199C 357.049 403.825 351.62 406.633 345.724 412.53C 339.827 418.427 337.019 423.855 337.393 428.722C 337.674 433.59 341.324 439.579 348.344 446.6L 365.099 463.355C 372.211 470.468 378.204 474.118 383.164 474.492C 388.031 474.774 393.46 471.965 399.357 466.069C 405.252 460.265 407.968 454.836 407.687 449.876zM 391.213 458.02C 389.715 459.609 388.124 460.172 386.533 459.798C 384.848 459.33 382.415 457.458 379.138 454.182L 357.611 432.654C 354.333 429.471 352.462 427.037 351.996 425.353C 351.62 423.668 352.182 422.077 353.679 420.58C 355.271 418.988 356.863 418.427 358.453 418.801C 360.044 419.176 362.571 421.047 365.941 424.417L 387.375 445.851C 390.652 449.127 392.524 451.561 392.991 453.246C 393.366 454.836 392.804 456.429 391.213 458.02z"></path>
<path style="stroke:none;fill:#ffffff" d="M 325.039 473.745L 315.116 463.916L 334.866 444.635L 324.756 434.526L 293.495 465.508L 345.536 517.549L 375.957 486.661L 366.316 476.832L 346.846 495.647L 335.428 484.228L 354.428 465.601L 343.946 455.025L 325.039 473.745z"></path>
</g></g></svg>